%TF.GenerationSoftware,KiCad,Pcbnew,9.0.0*%
%TF.CreationDate,2025-03-25T17:14:42+01:00*%
%TF.ProjectId,ESP32_speaker_tiny,45535033-325f-4737-9065-616b65725f74,rev?*%
%TF.SameCoordinates,Original*%
%TF.FileFunction,Copper,L1,Top*%
%TF.FilePolarity,Positive*%
%FSLAX46Y46*%
G04 Gerber Fmt 4.6, Leading zero omitted, Abs format (unit mm)*
G04 Created by KiCad (PCBNEW 9.0.0) date 2025-03-25 17:14:42*
%MOMM*%
%LPD*%
G01*
G04 APERTURE LIST*
G04 Aperture macros list*
%AMRoundRect*
0 Rectangle with rounded corners*
0 $1 Rounding radius*
0 $2 $3 $4 $5 $6 $7 $8 $9 X,Y pos of 4 corners*
0 Add a 4 corners polygon primitive as box body*
4,1,4,$2,$3,$4,$5,$6,$7,$8,$9,$2,$3,0*
0 Add four circle primitives for the rounded corners*
1,1,$1+$1,$2,$3*
1,1,$1+$1,$4,$5*
1,1,$1+$1,$6,$7*
1,1,$1+$1,$8,$9*
0 Add four rect primitives between the rounded corners*
20,1,$1+$1,$2,$3,$4,$5,0*
20,1,$1+$1,$4,$5,$6,$7,0*
20,1,$1+$1,$6,$7,$8,$9,0*
20,1,$1+$1,$8,$9,$2,$3,0*%
G04 Aperture macros list end*
%TA.AperFunction,ComponentPad*%
%ADD10RoundRect,0.250001X0.949999X-0.949999X0.949999X0.949999X-0.949999X0.949999X-0.949999X-0.949999X0*%
%TD*%
%TA.AperFunction,ComponentPad*%
%ADD11C,2.400000*%
%TD*%
%TA.AperFunction,ComponentPad*%
%ADD12C,1.600000*%
%TD*%
%TA.AperFunction,ComponentPad*%
%ADD13O,1.600000X1.600000*%
%TD*%
%TA.AperFunction,ComponentPad*%
%ADD14R,2.000000X1.200000*%
%TD*%
%TA.AperFunction,ComponentPad*%
%ADD15O,2.000000X1.200000*%
%TD*%
%TA.AperFunction,ComponentPad*%
%ADD16O,1.750000X3.000000*%
%TD*%
%TA.AperFunction,ComponentPad*%
%ADD17O,2.500000X4.000000*%
%TD*%
%TA.AperFunction,ViaPad*%
%ADD18C,0.500000*%
%TD*%
%TA.AperFunction,ViaPad*%
%ADD19C,0.600000*%
%TD*%
%TA.AperFunction,Conductor*%
%ADD20C,0.200000*%
%TD*%
%TA.AperFunction,Conductor*%
%ADD21C,0.500000*%
%TD*%
%TA.AperFunction,Conductor*%
%ADD22C,0.700000*%
%TD*%
G04 APERTURE END LIST*
D10*
%TO.P,SPEAKER_R,1*%
%TO.N,Net-(AMP_R1-OUTP)*%
X60000000Y-22000000D03*
D11*
%TO.P,SPEAKER_R,2*%
%TO.N,Net-(AMP_R1-OUTN)*%
X60000000Y-18500000D03*
%TD*%
D10*
%TO.P,+ -,1*%
%TO.N,+5V*%
X60000000Y-47500000D03*
D11*
%TO.P,+ -,2*%
%TO.N,GND*%
X60000000Y-44000000D03*
%TD*%
D12*
%TO.P,GAIN_L1,1*%
%TO.N,GND*%
X60000000Y-59420000D03*
D13*
%TO.P,GAIN_L1,2*%
%TO.N,Net-(AMP_L1-GAIN)*%
X60000000Y-69580000D03*
%TD*%
D10*
%TO.P,PWR_SWITCH,1*%
%TO.N,+5V*%
X60000000Y-39000000D03*
D11*
%TO.P,PWR_SWITCH,2*%
%TO.N,Net-(AMP_L1-Vin)*%
X60000000Y-35500000D03*
%TD*%
D14*
%TO.P,U1,1,3V3*%
%TO.N,unconnected-(U1-3V3-Pad1)*%
X26600000Y-23900000D03*
D15*
%TO.P,U1,2,CHIP_PU*%
%TO.N,unconnected-(U1-CHIP_PU-Pad2)*%
X26600000Y-26440000D03*
%TO.P,U1,3,SENSOR_VP/GPIO36/ADC1_CH0*%
%TO.N,unconnected-(U1-SENSOR_VP{slash}GPIO36{slash}ADC1_CH0-Pad3)*%
X26600000Y-28980000D03*
%TO.P,U1,4,SENSOR_VN/GPIO39/ADC1_CH3*%
%TO.N,unconnected-(U1-SENSOR_VN{slash}GPIO39{slash}ADC1_CH3-Pad4)*%
X26600000Y-31520000D03*
%TO.P,U1,5,VDET_1/GPIO34/ADC1_CH6*%
%TO.N,unconnected-(U1-VDET_1{slash}GPIO34{slash}ADC1_CH6-Pad5)*%
X26600000Y-34060000D03*
%TO.P,U1,6,VDET_2/GPIO35/ADC1_CH7*%
%TO.N,unconnected-(U1-VDET_2{slash}GPIO35{slash}ADC1_CH7-Pad6)*%
X26600000Y-36600000D03*
%TO.P,U1,7,32K_XP/GPIO32/ADC1_CH4*%
%TO.N,unconnected-(U1-32K_XP{slash}GPIO32{slash}ADC1_CH4-Pad7)*%
X26600000Y-39140000D03*
%TO.P,U1,8,32K_XN/GPIO33/ADC1_CH5*%
%TO.N,unconnected-(U1-32K_XN{slash}GPIO33{slash}ADC1_CH5-Pad8)*%
X26600000Y-41680000D03*
%TO.P,U1,9,DAC_1/ADC2_CH8/GPIO25*%
%TO.N,Net-(AMP_L1-~{SD_MODE})*%
X26600000Y-44220000D03*
%TO.P,U1,10,DAC_2/ADC2_CH9/GPIO26*%
%TO.N,Net-(AMP_R1-~{SD_MODE})*%
X26600000Y-46760000D03*
%TO.P,U1,11,ADC2_CH7/GPIO27*%
%TO.N,unconnected-(U1-ADC2_CH7{slash}GPIO27-Pad11)*%
X26600000Y-49300000D03*
%TO.P,U1,12,MTMS/GPIO14/ADC2_CH6*%
%TO.N,Net-(AMP_L1-DIN)*%
X26600000Y-51840000D03*
%TO.P,U1,13,MTDI/GPIO12/ADC2_CH5*%
%TO.N,Net-(AMP_L1-LRC)*%
X26600000Y-54380000D03*
%TO.P,U1,14,GND*%
%TO.N,GND*%
X26600000Y-56920000D03*
%TO.P,U1,15,MTCK/GPIO13/ADC2_CH4*%
%TO.N,Net-(AMP_L1-BCLK)*%
X26600000Y-59460000D03*
%TO.P,U1,16,SD_DATA2/GPIO9*%
%TO.N,unconnected-(U1-SD_DATA2{slash}GPIO9-Pad16)*%
X26600000Y-62000000D03*
%TO.P,U1,17,SD_DATA3/GPIO10*%
%TO.N,unconnected-(U1-SD_DATA3{slash}GPIO10-Pad17)*%
X26600000Y-64540000D03*
%TO.P,U1,18,CMD*%
%TO.N,unconnected-(U1-CMD-Pad18)*%
X26600000Y-67080000D03*
%TO.P,U1,19,5V*%
%TO.N,Net-(AMP_L1-Vin)*%
X26600000Y-69620000D03*
%TO.P,U1,20,SD_CLK/GPIO6*%
%TO.N,unconnected-(U1-SD_CLK{slash}GPIO6-Pad20)*%
X51996320Y-69617280D03*
%TO.P,U1,21,SD_DATA0/GPIO7*%
%TO.N,unconnected-(U1-SD_DATA0{slash}GPIO7-Pad21)*%
X51996320Y-67077280D03*
%TO.P,U1,22,SD_DATA1/GPIO8*%
%TO.N,unconnected-(U1-SD_DATA1{slash}GPIO8-Pad22)*%
X52000000Y-64540000D03*
%TO.P,U1,23,MTDO/GPIO15/ADC2_CH3*%
%TO.N,unconnected-(U1-MTDO{slash}GPIO15{slash}ADC2_CH3-Pad23)*%
X52000000Y-62000000D03*
%TO.P,U1,24,ADC2_CH2/GPIO2*%
%TO.N,unconnected-(U1-ADC2_CH2{slash}GPIO2-Pad24)*%
X52000000Y-59460000D03*
%TO.P,U1,25,GPIO0/BOOT/ADC2_CH1*%
%TO.N,unconnected-(U1-GPIO0{slash}BOOT{slash}ADC2_CH1-Pad25)*%
X52000000Y-56920000D03*
%TO.P,U1,26,ADC2_CH0/GPIO4*%
%TO.N,unconnected-(U1-ADC2_CH0{slash}GPIO4-Pad26)*%
X52000000Y-54380000D03*
%TO.P,U1,27,GPIO16*%
%TO.N,unconnected-(U1-GPIO16-Pad27)*%
X52000000Y-51840000D03*
%TO.P,U1,28,GPIO17*%
%TO.N,unconnected-(U1-GPIO17-Pad28)*%
X52000000Y-49300000D03*
%TO.P,U1,29,GPIO5*%
%TO.N,unconnected-(U1-GPIO5-Pad29)*%
X52000000Y-46760000D03*
%TO.P,U1,30,GPIO18*%
%TO.N,unconnected-(U1-GPIO18-Pad30)*%
X52000000Y-44220000D03*
%TO.P,U1,31,GPIO19*%
%TO.N,unconnected-(U1-GPIO19-Pad31)*%
X52000000Y-41680000D03*
%TO.P,U1,32,GND*%
%TO.N,GND*%
X52000000Y-39140000D03*
%TO.P,U1,33,GPIO21*%
%TO.N,unconnected-(U1-GPIO21-Pad33)*%
X52000000Y-36600000D03*
%TO.P,U1,34,U0RXD/GPIO3*%
%TO.N,unconnected-(U1-U0RXD{slash}GPIO3-Pad34)*%
X52000000Y-34060000D03*
%TO.P,U1,35,U0TXD/GPIO1*%
%TO.N,unconnected-(U1-U0TXD{slash}GPIO1-Pad35)*%
X52000000Y-31520000D03*
%TO.P,U1,36,GPIO22*%
%TO.N,unconnected-(U1-GPIO22-Pad36)*%
X52000000Y-28980000D03*
%TO.P,U1,37,GPIO23*%
%TO.N,unconnected-(U1-GPIO23-Pad37)*%
X52000000Y-26440000D03*
%TO.P,U1,38,GND*%
%TO.N,GND*%
X52000000Y-23900000D03*
%TD*%
D12*
%TO.P,GAIN_R1,1*%
%TO.N,GND*%
X56000000Y-59340000D03*
D13*
%TO.P,GAIN_R1,2*%
%TO.N,Net-(AMP_R1-GAIN)*%
X56000000Y-69500000D03*
%TD*%
D10*
%TO.P,SPEAKER_L,1*%
%TO.N,Net-(AMP_L1-OUTP)*%
X60000000Y-30500000D03*
D11*
%TO.P,SPEAKER_L,2*%
%TO.N,Net-(AMP_L1-OUTN)*%
X60000000Y-27000000D03*
%TD*%
D16*
%TO.P,AMP_R1,1,Vin*%
%TO.N,Net-(AMP_L1-Vin)*%
X31500000Y-43907000D03*
%TO.P,AMP_R1,2,GND*%
%TO.N,GND*%
X34040000Y-43907000D03*
%TO.P,AMP_R1,3,~{SD_MODE}*%
%TO.N,Net-(AMP_R1-~{SD_MODE})*%
X36580000Y-43907000D03*
%TO.P,AMP_R1,4,GAIN*%
%TO.N,Net-(AMP_R1-GAIN)*%
X39120000Y-43907000D03*
%TO.P,AMP_R1,5,DIN*%
%TO.N,Net-(AMP_L1-DIN)*%
X41660000Y-43907000D03*
%TO.P,AMP_R1,6,BCLK*%
%TO.N,Net-(AMP_L1-BCLK)*%
X44200000Y-43907000D03*
%TO.P,AMP_R1,7,LRC*%
%TO.N,Net-(AMP_L1-LRC)*%
X46740000Y-43907000D03*
D17*
%TO.P,AMP_R1,8,OUTP*%
%TO.N,Net-(AMP_R1-OUTP)*%
X40920000Y-31453000D03*
%TO.P,AMP_R1,9,OUTN*%
%TO.N,Net-(AMP_R1-OUTN)*%
X37420000Y-31453000D03*
%TD*%
D16*
%TO.P,AMP_L1,1,Vin*%
%TO.N,Net-(AMP_L1-Vin)*%
X46500000Y-53593000D03*
%TO.P,AMP_L1,2,GND*%
%TO.N,GND*%
X43960000Y-53593000D03*
%TO.P,AMP_L1,3,~{SD_MODE}*%
%TO.N,Net-(AMP_L1-~{SD_MODE})*%
X41420000Y-53593000D03*
%TO.P,AMP_L1,4,GAIN*%
%TO.N,Net-(AMP_L1-GAIN)*%
X38880000Y-53593000D03*
%TO.P,AMP_L1,5,DIN*%
%TO.N,Net-(AMP_L1-DIN)*%
X36340000Y-53593000D03*
%TO.P,AMP_L1,6,BCLK*%
%TO.N,Net-(AMP_L1-BCLK)*%
X33800000Y-53593000D03*
%TO.P,AMP_L1,7,LRC*%
%TO.N,Net-(AMP_L1-LRC)*%
X31260000Y-53593000D03*
D17*
%TO.P,AMP_L1,8,OUTP*%
%TO.N,Net-(AMP_L1-OUTP)*%
X37080000Y-66047000D03*
%TO.P,AMP_L1,9,OUTN*%
%TO.N,Net-(AMP_L1-OUTN)*%
X40580000Y-66047000D03*
%TD*%
D18*
%TO.N,GND*%
X32500000Y-46000000D03*
X30500000Y-46000000D03*
X29500000Y-46000000D03*
X28500000Y-46000000D03*
X37500000Y-49000000D03*
X36500000Y-49000000D03*
X35500000Y-49000000D03*
X57000000Y-39000000D03*
X57000000Y-40000000D03*
X57000000Y-41000000D03*
X57000000Y-42000000D03*
X57000000Y-43000000D03*
X57000000Y-44000000D03*
X57000000Y-45000000D03*
X57000000Y-46000000D03*
X57000000Y-47000000D03*
X57000000Y-48000000D03*
X57000000Y-48000000D03*
X57000000Y-49000000D03*
X57500000Y-49500000D03*
X60500000Y-58000000D03*
X60000000Y-57500000D03*
X59500000Y-57000000D03*
X59000000Y-56500000D03*
X58500000Y-56000000D03*
X58000000Y-55500000D03*
X57500000Y-55000000D03*
X57000000Y-54500000D03*
X56500000Y-54000000D03*
X56000000Y-53500000D03*
X55500000Y-53000000D03*
X55000000Y-52500000D03*
X54500000Y-52000000D03*
X54000000Y-51500000D03*
X64500000Y-56000000D03*
X64000000Y-55500000D03*
X60500000Y-52500000D03*
X60000000Y-52000000D03*
X59500000Y-51500000D03*
X59000000Y-51000000D03*
X58500000Y-50500000D03*
X58000000Y-50000000D03*
X65000000Y-71500000D03*
X65000000Y-70500000D03*
X65000000Y-69500000D03*
X65000000Y-68500000D03*
X65000000Y-67500000D03*
X65000000Y-66500000D03*
X65000000Y-65500000D03*
X65000000Y-64500000D03*
X65000000Y-63500000D03*
X65000000Y-62500000D03*
X65000000Y-61500000D03*
X65000000Y-60500000D03*
X65000000Y-59500000D03*
X65000000Y-58500000D03*
X65000000Y-57500000D03*
X61000000Y-68000000D03*
X61000000Y-67000000D03*
X61000000Y-66000000D03*
X61000000Y-65000000D03*
X61000000Y-64000000D03*
X61000000Y-63000000D03*
X61000000Y-62000000D03*
X61000000Y-61000000D03*
X64500000Y-72000000D03*
X64000000Y-72500000D03*
X63500000Y-73000000D03*
X63000000Y-73500000D03*
X47500000Y-67000000D03*
X48500000Y-74000000D03*
X48000000Y-73500000D03*
X47500000Y-73000000D03*
X47000000Y-72500000D03*
X46500000Y-72000000D03*
X46000000Y-71500000D03*
X45500000Y-71000000D03*
X57000000Y-36000000D03*
X57000000Y-35000000D03*
X57000000Y-34000000D03*
X57000000Y-33500000D03*
X57500000Y-33000000D03*
X58000000Y-32500000D03*
X57500000Y-25500000D03*
X57000000Y-25500000D03*
X56000000Y-26000000D03*
X55500000Y-26500000D03*
X55000000Y-27000000D03*
X54500000Y-27500000D03*
X54000000Y-28000000D03*
X50000000Y-24000000D03*
X50000000Y-25000000D03*
X50000000Y-26000000D03*
X50000000Y-27000000D03*
X50000000Y-28000000D03*
X49500000Y-28500000D03*
X49000000Y-29000000D03*
X48500000Y-29500000D03*
X48000000Y-30000000D03*
X47500000Y-30500000D03*
X47000000Y-31000000D03*
X46000000Y-31000000D03*
X45000000Y-31000000D03*
X44000000Y-31000000D03*
X43000000Y-31000000D03*
X37500000Y-28500000D03*
X38000000Y-28000000D03*
X38500000Y-27500000D03*
X45500000Y-27000000D03*
X44500000Y-27000000D03*
X43500000Y-27000000D03*
X42500000Y-27000000D03*
X41500000Y-27000000D03*
X40500000Y-27000000D03*
X39500000Y-27000000D03*
X46000000Y-26500000D03*
X46000000Y-25500000D03*
X46000000Y-24500000D03*
X28500000Y-65500000D03*
X28500000Y-66500000D03*
X28500000Y-67500000D03*
X29000000Y-68000000D03*
X30000000Y-68500000D03*
X31000000Y-68500000D03*
X32000000Y-68500000D03*
X33000000Y-68500000D03*
X34000000Y-68500000D03*
X35000000Y-68500000D03*
X36000000Y-68500000D03*
X37000000Y-56000000D03*
X38000000Y-56000000D03*
X39000000Y-56000000D03*
X40000000Y-56000000D03*
X41000000Y-56000000D03*
X42000000Y-56000000D03*
X43000000Y-56000000D03*
X44000000Y-56000000D03*
X45000000Y-56000000D03*
X46000000Y-56000000D03*
X47000000Y-56000000D03*
X47000000Y-57000000D03*
X47000000Y-58000000D03*
X47000000Y-59000000D03*
X47000000Y-60000000D03*
X47000000Y-61000000D03*
X47000000Y-62000000D03*
X47000000Y-63000000D03*
X47000000Y-64000000D03*
X47000000Y-65000000D03*
X47000000Y-66500000D03*
X46500000Y-66000000D03*
X46000000Y-65500000D03*
X45500000Y-65000000D03*
X44500000Y-64500000D03*
X43500000Y-64500000D03*
X42500000Y-64500000D03*
X47500000Y-51500000D03*
X48000000Y-52000000D03*
X48000000Y-51000000D03*
X48000000Y-50000000D03*
X47000000Y-50000000D03*
X45500000Y-51500000D03*
X45000000Y-51000000D03*
X45500000Y-50500000D03*
X46000000Y-50000000D03*
X42000000Y-51000000D03*
X43000000Y-50000000D03*
X42000000Y-50000000D03*
X41000000Y-50000000D03*
X40000000Y-50000000D03*
X40000000Y-50500000D03*
X40000000Y-51500000D03*
X36000000Y-56000000D03*
X36000000Y-57000000D03*
X36000000Y-58000000D03*
X36000000Y-59000000D03*
X35500000Y-59500000D03*
X35000000Y-60000000D03*
X35000000Y-61000000D03*
X35000000Y-62000000D03*
X35000000Y-63000000D03*
X34500000Y-63500000D03*
X34000000Y-64000000D03*
X33500000Y-64500000D03*
X32500000Y-64500000D03*
X31500000Y-64500000D03*
X30500000Y-64500000D03*
X29500000Y-64500000D03*
X28500000Y-64500000D03*
X49000000Y-74000000D03*
X47000000Y-74000000D03*
X45000000Y-74000000D03*
X43000000Y-74000000D03*
X41000000Y-74000000D03*
X39000000Y-74000000D03*
X37000000Y-74000000D03*
X35000000Y-74000000D03*
X33000000Y-74000000D03*
X31000000Y-74000000D03*
X29000000Y-74000000D03*
X27000000Y-74000000D03*
X25000000Y-74000000D03*
X25000000Y-72000000D03*
X25000000Y-70500000D03*
X25000000Y-68500000D03*
X25000000Y-66500000D03*
X25000000Y-64500000D03*
X25000000Y-62500000D03*
X25000000Y-61000000D03*
X25000000Y-59000000D03*
X25000000Y-57000000D03*
X50000000Y-23500000D03*
X62500000Y-74000000D03*
X63500000Y-74000000D03*
X65000000Y-74000000D03*
X65000000Y-56500000D03*
X65000000Y-55000000D03*
X65000000Y-53500000D03*
X65000000Y-51500000D03*
X65000000Y-50000000D03*
X65000000Y-48500000D03*
X65000000Y-46500000D03*
X65000000Y-45000000D03*
X65000000Y-43500000D03*
X65000000Y-42000000D03*
X65000000Y-40500000D03*
X65000000Y-39000000D03*
X65000000Y-37500000D03*
X65000000Y-36000000D03*
X65000000Y-34500000D03*
X65000000Y-33000000D03*
X65000000Y-31500000D03*
X65000000Y-30000000D03*
X65000000Y-28500000D03*
X65000000Y-27000000D03*
X65000000Y-25500000D03*
X65000000Y-24000000D03*
X65000000Y-22500000D03*
X65000000Y-21000000D03*
X65000000Y-19500000D03*
X65000000Y-18000000D03*
X65000000Y-16500000D03*
X63500000Y-16500000D03*
X61500000Y-16500000D03*
X59500000Y-16500000D03*
X57500000Y-16500000D03*
X55500000Y-16500000D03*
X55500000Y-17000000D03*
X55500000Y-21000000D03*
X55500000Y-22500000D03*
X54500000Y-23500000D03*
X46500000Y-23500000D03*
X44500000Y-23500000D03*
X42500000Y-23500000D03*
X40500000Y-23500000D03*
X38500000Y-23500000D03*
X36500000Y-23500000D03*
X34500000Y-23500000D03*
X32500000Y-23500000D03*
X30500000Y-23500000D03*
X28500000Y-23500000D03*
X25000000Y-25500000D03*
X25000000Y-28000000D03*
X25000000Y-30500000D03*
X25000000Y-33000000D03*
X25000000Y-35500000D03*
X25000000Y-38000000D03*
X25000000Y-40500000D03*
X25000000Y-43000000D03*
X25000000Y-45500000D03*
X25000000Y-48000000D03*
X25000000Y-50500000D03*
X25000000Y-55500000D03*
X25000000Y-53000000D03*
X30500000Y-51500000D03*
X34500000Y-49000000D03*
X35000000Y-49500000D03*
X35500000Y-50000000D03*
X36000000Y-50500000D03*
X36500000Y-51000000D03*
X61000000Y-53000000D03*
D19*
%TO.N,Net-(AMP_L1-LRC)*%
X29500000Y-53500000D03*
%TD*%
D20*
%TO.N,Net-(AMP_L1-LRC)*%
X29500000Y-53500000D02*
X28620000Y-54380000D01*
X28620000Y-54380000D02*
X26600000Y-54380000D01*
X31000000Y-62500000D02*
X29000000Y-62500000D01*
X31260000Y-57669870D02*
X30500000Y-57669870D01*
X29000000Y-62500000D02*
X28500000Y-62000000D01*
X31260000Y-62240000D02*
X31000000Y-62500000D01*
X31260000Y-59229870D02*
X31260000Y-59598053D01*
X32260000Y-58509870D02*
X32260000Y-58629870D01*
X32020000Y-58869870D02*
X31500000Y-58869870D01*
X32020000Y-57669870D02*
X31260000Y-57669870D01*
X31260000Y-59109870D02*
X31260000Y-59229870D01*
X28500000Y-55000000D02*
X27880000Y-54380000D01*
X31500000Y-58269870D02*
X32020000Y-58269870D01*
X28500000Y-62000000D02*
X28500000Y-55000000D01*
X31260000Y-58269870D02*
X31500000Y-58269870D01*
X30260000Y-56709870D02*
X30260000Y-56829870D01*
X31260000Y-59598053D02*
X31260000Y-62240000D01*
X30500000Y-58269870D02*
X31260000Y-58269870D01*
X32260000Y-57309870D02*
X32260000Y-57429870D01*
X32260000Y-56109870D02*
X32260000Y-56229870D01*
X27880000Y-54380000D02*
X26600000Y-54380000D01*
X31260000Y-57069870D02*
X32020000Y-57069870D01*
X31260000Y-56469870D02*
X30500000Y-56469870D01*
X31500000Y-56469870D02*
X31260000Y-56469870D01*
X32020000Y-56469870D02*
X31500000Y-56469870D01*
X31260000Y-53093000D02*
X31260000Y-55629870D01*
X31500000Y-55869870D02*
X32020000Y-55869870D01*
X30500000Y-57069870D02*
X31260000Y-57069870D01*
X30260000Y-57909870D02*
X30260000Y-58029870D01*
X30260000Y-56829870D02*
G75*
G03*
X30500000Y-57069900I240000J-30D01*
G01*
X30260000Y-58029870D02*
G75*
G03*
X30500000Y-58269900I240000J-30D01*
G01*
X32020000Y-57069870D02*
G75*
G02*
X32260030Y-57309870I0J-240030D01*
G01*
X32260000Y-57429870D02*
G75*
G02*
X32020000Y-57669900I-240000J-30D01*
G01*
X31500000Y-58869870D02*
G75*
G03*
X31259970Y-59109870I0J-240030D01*
G01*
X32020000Y-58269870D02*
G75*
G02*
X32260030Y-58509870I0J-240030D01*
G01*
X32260000Y-58629870D02*
G75*
G02*
X32020000Y-58869900I-240000J-30D01*
G01*
X30500000Y-57669870D02*
G75*
G03*
X30259970Y-57909870I0J-240030D01*
G01*
X32260000Y-56229870D02*
G75*
G02*
X32020000Y-56469900I-240000J-30D01*
G01*
X32020000Y-55869870D02*
G75*
G02*
X32260030Y-56109870I0J-240030D01*
G01*
X30500000Y-56469870D02*
G75*
G03*
X30259970Y-56709870I0J-240030D01*
G01*
X31260000Y-55629870D02*
G75*
G03*
X31500000Y-55869900I240000J-30D01*
G01*
%TO.N,Net-(AMP_L1-BCLK)*%
X28000000Y-60500000D02*
X26960000Y-59460000D01*
X34560000Y-58967923D02*
X33800000Y-58967923D01*
X33800000Y-58367923D02*
X34560000Y-58367923D01*
X32800000Y-58007923D02*
X32800000Y-58127923D01*
X33040000Y-58367923D02*
X33800000Y-58367923D01*
X33800000Y-58967923D02*
X33560000Y-58967923D01*
X33560000Y-58967923D02*
X33040000Y-58967923D01*
X34040000Y-56567923D02*
X33800000Y-56567923D01*
X34040000Y-55967923D02*
X34560000Y-55967923D01*
X33800000Y-53093000D02*
X33800000Y-55727923D01*
X34800000Y-58607923D02*
X34800000Y-58727923D01*
X34800000Y-56207923D02*
X34800000Y-56327923D01*
X28000000Y-63000000D02*
X28000000Y-60500000D01*
X34560000Y-57767923D02*
X33800000Y-57767923D01*
X33040000Y-57167923D02*
X33800000Y-57167923D01*
X33800000Y-57767923D02*
X33040000Y-57767923D01*
X32800000Y-56807923D02*
X32800000Y-56927923D01*
X26960000Y-59460000D02*
X26600000Y-59460000D01*
X34560000Y-56567923D02*
X34040000Y-56567923D01*
X33800000Y-56567923D02*
X33040000Y-56567923D01*
X33800000Y-59927923D02*
X33800000Y-60231496D01*
X33800000Y-57167923D02*
X34560000Y-57167923D01*
X33800000Y-59807923D02*
X33800000Y-59927923D01*
X33040000Y-59567923D02*
X33560000Y-59567923D01*
X28500000Y-63500000D02*
X28000000Y-63000000D01*
X34800000Y-57407923D02*
X34800000Y-57527923D01*
X33800000Y-60231496D02*
X33800000Y-62700000D01*
X32800000Y-59207923D02*
X32800000Y-59327923D01*
X33800000Y-62700000D02*
X33000000Y-63500000D01*
X33000000Y-63500000D02*
X28500000Y-63500000D01*
X34800000Y-57527923D02*
G75*
G02*
X34560000Y-57767900I-240000J23D01*
G01*
X32800000Y-58127923D02*
G75*
G03*
X33040000Y-58367900I240000J23D01*
G01*
X32800000Y-56927923D02*
G75*
G03*
X33040000Y-57167900I240000J23D01*
G01*
X33040000Y-57767923D02*
G75*
G03*
X32800023Y-58007923I0J-239977D01*
G01*
X34800000Y-58727923D02*
G75*
G02*
X34560000Y-58967900I-240000J23D01*
G01*
X33040000Y-58967923D02*
G75*
G03*
X32800023Y-59207923I0J-239977D01*
G01*
X34560000Y-57167923D02*
G75*
G02*
X34799977Y-57407923I0J-239977D01*
G01*
X32800000Y-59327923D02*
G75*
G03*
X33040000Y-59567900I240000J23D01*
G01*
X34800000Y-56327923D02*
G75*
G02*
X34560000Y-56567900I-240000J23D01*
G01*
X34560000Y-55967923D02*
G75*
G02*
X34799977Y-56207923I0J-239977D01*
G01*
X33560000Y-59567923D02*
G75*
G02*
X33799977Y-59807923I0J-239977D01*
G01*
X34560000Y-58367923D02*
G75*
G02*
X34799977Y-58607923I0J-239977D01*
G01*
X33800000Y-55727923D02*
G75*
G03*
X34040000Y-55967900I240000J23D01*
G01*
X33040000Y-56567923D02*
G75*
G03*
X32800023Y-56807923I0J-239977D01*
G01*
%TO.N,Net-(AMP_L1-DIN)*%
X33688573Y-49740000D02*
G75*
G03*
X33448573Y-49500027I-239973J0D01*
G01*
X33088573Y-51260000D02*
G75*
G02*
X32848573Y-51499973I-239973J0D01*
G01*
X31528573Y-51500000D02*
G75*
G02*
X31288600Y-51260000I27J240000D01*
G01*
X33328573Y-49500000D02*
G75*
G03*
X33088600Y-49740000I27J-240000D01*
G01*
X31288573Y-49740000D02*
G75*
G03*
X31048573Y-49500027I-239973J0D01*
G01*
X32128573Y-49500000D02*
G75*
G03*
X31888600Y-49740000I27J-240000D01*
G01*
X33928573Y-50500000D02*
G75*
G02*
X33688600Y-50260000I27J240000D01*
G01*
X32728573Y-51500000D02*
G75*
G02*
X32488600Y-51260000I27J240000D01*
G01*
X30688573Y-50260000D02*
G75*
G02*
X30448573Y-50499973I-239973J0D01*
G01*
X31888573Y-51260000D02*
G75*
G02*
X31648573Y-51499973I-239973J0D01*
G01*
X30928573Y-49500000D02*
G75*
G03*
X30688600Y-49740000I27J-240000D01*
G01*
X32488573Y-49740000D02*
G75*
G03*
X32248573Y-49500027I-239973J0D01*
G01*
X30688573Y-49740000D02*
X30688573Y-50260000D01*
X31288573Y-50260000D02*
X31288573Y-49740000D01*
X31888573Y-49740000D02*
X31888573Y-50500000D01*
X31288573Y-50500000D02*
X31288573Y-50260000D01*
X34500000Y-50500000D02*
X33928573Y-50500000D01*
X33088573Y-50260000D02*
X33088573Y-50500000D01*
X31888573Y-50500000D02*
X31888573Y-51260000D01*
X31288573Y-51260000D02*
X31288573Y-50500000D01*
X33688573Y-50260000D02*
X33688573Y-49740000D01*
X27160000Y-51840000D02*
X26600000Y-51840000D01*
X28500000Y-50500000D02*
X27160000Y-51840000D01*
X30086364Y-50500000D02*
X28500000Y-50500000D01*
X33088573Y-49740000D02*
X33088573Y-50260000D01*
X32488573Y-51260000D02*
X32488573Y-50500000D01*
X33088573Y-50500000D02*
X33088573Y-51260000D01*
X30448573Y-50500000D02*
X30328573Y-50500000D01*
X31648573Y-51500000D02*
X31528573Y-51500000D01*
X36340000Y-53093000D02*
X36340000Y-52340000D01*
X33448573Y-49500000D02*
X33328573Y-49500000D01*
X32848573Y-51500000D02*
X32728573Y-51500000D01*
X36340000Y-52340000D02*
X34500000Y-50500000D01*
X32248573Y-49500000D02*
X32128573Y-49500000D01*
X31048573Y-49500000D02*
X30928573Y-49500000D01*
X30328573Y-50500000D02*
X30086364Y-50500000D01*
X32488573Y-50500000D02*
X32488573Y-49740000D01*
%TO.N,Net-(AMP_R1-~{SD_MODE})*%
X35240000Y-46760000D02*
X26600000Y-46760000D01*
X36580000Y-45420000D02*
X35240000Y-46760000D01*
X36580000Y-44407000D02*
X36580000Y-45420000D01*
D21*
%TO.N,Net-(AMP_L1-Vin)*%
X57349000Y-37651000D02*
X59500000Y-35500000D01*
X59500000Y-35500000D02*
X60000000Y-35500000D01*
X37795753Y-37651000D02*
X57349000Y-37651000D01*
X31500000Y-43946753D02*
X37795753Y-37651000D01*
X31500000Y-44407000D02*
X31500000Y-43946753D01*
D20*
%TO.N,Net-(AMP_L1-GAIN)*%
X60000000Y-69580000D02*
X58179000Y-71401000D01*
X39000000Y-52973000D02*
X38880000Y-53093000D01*
X39099000Y-48901000D02*
X39000000Y-49000000D01*
X50833900Y-71401000D02*
X49000000Y-69567100D01*
X49099000Y-69401000D02*
X49099000Y-48901000D01*
X39000000Y-49000000D02*
X39000000Y-52973000D01*
X49099000Y-48901000D02*
X39099000Y-48901000D01*
X58179000Y-71401000D02*
X50833900Y-71401000D01*
X49000000Y-69500000D02*
X49099000Y-69401000D01*
X49000000Y-69567100D02*
X49000000Y-69500000D01*
D21*
%TO.N,Net-(AMP_L1-Vin)*%
X46500000Y-53093000D02*
X48093000Y-53093000D01*
D22*
X64000000Y-47500000D02*
X64000000Y-38000000D01*
D21*
X48449000Y-53551000D02*
X48449000Y-69949000D01*
D22*
X50000000Y-71500000D02*
X51000000Y-72500000D01*
X29051000Y-69949000D02*
X29000000Y-70000000D01*
X60000000Y-72500000D02*
X62500000Y-70000000D01*
X49500000Y-71000000D02*
X49512246Y-71000000D01*
X51000000Y-72500000D02*
X60000000Y-72500000D01*
X64000000Y-38000000D02*
X61500000Y-35500000D01*
X49512246Y-71000000D02*
X50000000Y-71487754D01*
X62500000Y-49000000D02*
X64000000Y-47500000D01*
D21*
X48500000Y-53500000D02*
X48449000Y-53551000D01*
D22*
X50000000Y-71487754D02*
X50000000Y-71500000D01*
X29000000Y-70000000D02*
X28620000Y-69620000D01*
X48449000Y-69949000D02*
X49500000Y-71000000D01*
X48449000Y-69949000D02*
X29051000Y-69949000D01*
X28620000Y-69620000D02*
X26600000Y-69620000D01*
X62500000Y-70000000D02*
X62500000Y-49000000D01*
X61500000Y-35500000D02*
X60000000Y-35500000D01*
D21*
X48093000Y-53093000D02*
X48500000Y-53500000D01*
D20*
%TO.N,Net-(AMP_R1-GAIN)*%
X56000000Y-69500000D02*
X54500000Y-71000000D01*
X54500000Y-71000000D02*
X51000000Y-71000000D01*
X39000000Y-48500000D02*
X39120000Y-48380000D01*
X49500000Y-48500000D02*
X39000000Y-48500000D01*
X49500000Y-69500000D02*
X49500000Y-48500000D01*
X51000000Y-71000000D02*
X49500000Y-69500000D01*
X39120000Y-48380000D02*
X39120000Y-44407000D01*
D22*
%TO.N,+5V*%
X63000000Y-46500000D02*
X63000000Y-40000000D01*
X62000000Y-39000000D02*
X60000000Y-39000000D01*
X62000000Y-47500000D02*
X63000000Y-46500000D01*
X60000000Y-47500000D02*
X62000000Y-47500000D01*
X63000000Y-40000000D02*
X62000000Y-39000000D01*
%TD*%
%TA.AperFunction,Conductor*%
%TO.N,GND*%
G36*
X58218833Y-37945047D02*
G01*
X58274767Y-37986918D01*
X58299184Y-38052382D01*
X58299500Y-38061229D01*
X58299500Y-40000015D01*
X58310000Y-40102795D01*
X58310001Y-40102797D01*
X58328914Y-40159873D01*
X58365186Y-40269335D01*
X58365187Y-40269337D01*
X58457286Y-40418651D01*
X58457289Y-40418655D01*
X58581344Y-40542710D01*
X58581348Y-40542713D01*
X58730662Y-40634812D01*
X58730664Y-40634813D01*
X58730666Y-40634814D01*
X58897203Y-40689999D01*
X58999992Y-40700500D01*
X58999997Y-40700500D01*
X61000003Y-40700500D01*
X61000008Y-40700500D01*
X61102797Y-40689999D01*
X61269334Y-40634814D01*
X61418655Y-40542711D01*
X61542711Y-40418655D01*
X61634814Y-40269334D01*
X61679034Y-40135884D01*
X61718805Y-40078442D01*
X61783320Y-40051618D01*
X61852096Y-40063933D01*
X61884420Y-40087209D01*
X62113181Y-40315970D01*
X62146666Y-40377293D01*
X62149500Y-40403651D01*
X62149500Y-46096349D01*
X62129815Y-46163388D01*
X62113181Y-46184030D01*
X61884420Y-46412790D01*
X61823097Y-46446275D01*
X61753405Y-46441291D01*
X61697472Y-46399419D01*
X61679034Y-46364115D01*
X61634814Y-46230666D01*
X61606048Y-46184030D01*
X61542713Y-46081348D01*
X61542710Y-46081344D01*
X61418655Y-45957289D01*
X61418651Y-45957286D01*
X61269337Y-45865187D01*
X61269335Y-45865186D01*
X61160280Y-45829049D01*
X61102797Y-45810001D01*
X61102795Y-45810000D01*
X61000015Y-45799500D01*
X61000008Y-45799500D01*
X60721326Y-45799500D01*
X60654287Y-45779815D01*
X60608532Y-45727011D01*
X60598588Y-45657853D01*
X60627613Y-45594297D01*
X60673873Y-45560939D01*
X60753502Y-45527954D01*
X60753514Y-45527949D01*
X60946498Y-45416530D01*
X61012403Y-45365957D01*
X61012404Y-45365956D01*
X60211059Y-44564612D01*
X60231591Y-44559111D01*
X60368408Y-44480119D01*
X60480119Y-44368408D01*
X60559111Y-44231591D01*
X60564612Y-44211059D01*
X61365956Y-45012404D01*
X61365957Y-45012403D01*
X61416530Y-44946498D01*
X61527949Y-44753514D01*
X61527954Y-44753502D01*
X61613236Y-44547618D01*
X61670911Y-44332367D01*
X61670914Y-44332354D01*
X61700000Y-44111424D01*
X61700000Y-43888575D01*
X61670914Y-43667645D01*
X61670911Y-43667632D01*
X61613236Y-43452381D01*
X61527954Y-43246497D01*
X61527949Y-43246485D01*
X61416533Y-43053507D01*
X61365956Y-42987595D01*
X61365955Y-42987595D01*
X60564612Y-43788939D01*
X60559111Y-43768409D01*
X60480119Y-43631592D01*
X60368408Y-43519881D01*
X60231591Y-43440889D01*
X60211058Y-43435387D01*
X61012403Y-42634043D01*
X61012403Y-42634040D01*
X60946504Y-42583473D01*
X60946491Y-42583464D01*
X60753520Y-42472054D01*
X60753502Y-42472045D01*
X60547618Y-42386763D01*
X60332367Y-42329088D01*
X60332354Y-42329085D01*
X60111425Y-42300000D01*
X59888575Y-42300000D01*
X59667645Y-42329085D01*
X59667632Y-42329088D01*
X59452381Y-42386763D01*
X59246497Y-42472045D01*
X59246479Y-42472054D01*
X59053511Y-42583462D01*
X58987595Y-42634042D01*
X59788941Y-43435387D01*
X59768409Y-43440889D01*
X59631592Y-43519881D01*
X59519881Y-43631592D01*
X59440889Y-43768409D01*
X59435387Y-43788940D01*
X58634042Y-42987595D01*
X58583462Y-43053511D01*
X58472054Y-43246479D01*
X58472045Y-43246497D01*
X58386763Y-43452381D01*
X58329088Y-43667632D01*
X58329085Y-43667645D01*
X58300000Y-43888575D01*
X58300000Y-44111424D01*
X58329085Y-44332354D01*
X58329088Y-44332367D01*
X58386763Y-44547618D01*
X58472045Y-44753502D01*
X58472054Y-44753520D01*
X58583464Y-44946491D01*
X58583473Y-44946504D01*
X58634040Y-45012403D01*
X58634043Y-45012403D01*
X59435387Y-44211058D01*
X59440889Y-44231591D01*
X59519881Y-44368408D01*
X59631592Y-44480119D01*
X59768409Y-44559111D01*
X59788940Y-44564612D01*
X58987595Y-45365955D01*
X58987595Y-45365956D01*
X59053507Y-45416533D01*
X59246485Y-45527949D01*
X59246497Y-45527954D01*
X59326127Y-45560939D01*
X59380531Y-45604780D01*
X59402595Y-45671075D01*
X59385315Y-45738774D01*
X59334178Y-45786384D01*
X59278674Y-45799500D01*
X58999984Y-45799500D01*
X58897204Y-45810000D01*
X58897203Y-45810001D01*
X58730664Y-45865186D01*
X58730662Y-45865187D01*
X58581348Y-45957286D01*
X58581344Y-45957289D01*
X58457289Y-46081344D01*
X58457286Y-46081348D01*
X58365187Y-46230662D01*
X58365186Y-46230664D01*
X58310001Y-46397203D01*
X58310000Y-46397204D01*
X58299500Y-46499984D01*
X58299500Y-48500015D01*
X58310000Y-48602795D01*
X58310001Y-48602796D01*
X58365186Y-48769335D01*
X58365187Y-48769337D01*
X58457286Y-48918651D01*
X58457289Y-48918655D01*
X58581344Y-49042710D01*
X58581348Y-49042713D01*
X58730662Y-49134812D01*
X58730664Y-49134813D01*
X58730666Y-49134814D01*
X58897203Y-49189999D01*
X58999992Y-49200500D01*
X58999997Y-49200500D01*
X61000003Y-49200500D01*
X61000008Y-49200500D01*
X61102797Y-49189999D01*
X61269334Y-49134814D01*
X61418655Y-49042711D01*
X61437819Y-49023547D01*
X61499142Y-48990062D01*
X61568834Y-48995046D01*
X61624767Y-49036918D01*
X61649184Y-49102382D01*
X61649500Y-49111228D01*
X61649500Y-69596348D01*
X61629815Y-69663387D01*
X61613181Y-69684030D01*
X61511194Y-69786016D01*
X61449871Y-69819500D01*
X61380179Y-69814516D01*
X61324246Y-69772644D01*
X61299829Y-69707179D01*
X61300689Y-69687248D01*
X61300118Y-69687203D01*
X61300500Y-69682352D01*
X61300500Y-69477648D01*
X61268477Y-69275465D01*
X61205218Y-69080776D01*
X61143358Y-68959371D01*
X61112287Y-68898390D01*
X61088970Y-68866296D01*
X60991971Y-68732786D01*
X60847213Y-68588028D01*
X60681613Y-68467715D01*
X60681612Y-68467714D01*
X60681610Y-68467713D01*
X60624653Y-68438691D01*
X60499223Y-68374781D01*
X60304534Y-68311522D01*
X60129995Y-68283878D01*
X60102352Y-68279500D01*
X59897648Y-68279500D01*
X59873329Y-68283351D01*
X59695465Y-68311522D01*
X59500776Y-68374781D01*
X59318386Y-68467715D01*
X59152786Y-68588028D01*
X59008028Y-68732786D01*
X58887715Y-68898386D01*
X58794781Y-69080776D01*
X58731522Y-69275465D01*
X58706616Y-69432720D01*
X58699500Y-69477648D01*
X58699500Y-69682352D01*
X58703342Y-69706610D01*
X58731522Y-69884534D01*
X58736173Y-69898848D01*
X58738165Y-69968690D01*
X58705921Y-70024842D01*
X57966584Y-70764181D01*
X57905261Y-70797666D01*
X57878903Y-70800500D01*
X56804191Y-70800500D01*
X56737152Y-70780815D01*
X56691397Y-70728011D01*
X56681453Y-70658853D01*
X56710478Y-70595297D01*
X56731306Y-70576182D01*
X56847212Y-70491971D01*
X56847210Y-70491971D01*
X56847219Y-70491966D01*
X56991966Y-70347219D01*
X56991968Y-70347215D01*
X56991971Y-70347213D01*
X57063998Y-70248074D01*
X57112287Y-70181610D01*
X57205220Y-69999219D01*
X57268477Y-69804534D01*
X57300500Y-69602352D01*
X57300500Y-69397648D01*
X57268808Y-69197555D01*
X57268477Y-69195465D01*
X57233330Y-69087294D01*
X57205220Y-69000781D01*
X57205218Y-69000778D01*
X57205218Y-69000776D01*
X57171503Y-68934607D01*
X57112287Y-68818390D01*
X57104556Y-68807749D01*
X56991971Y-68652786D01*
X56847213Y-68508028D01*
X56681613Y-68387715D01*
X56681612Y-68387714D01*
X56681610Y-68387713D01*
X56624653Y-68358691D01*
X56499223Y-68294781D01*
X56304534Y-68231522D01*
X56129995Y-68203878D01*
X56102352Y-68199500D01*
X55897648Y-68199500D01*
X55873329Y-68203351D01*
X55695465Y-68231522D01*
X55500776Y-68294781D01*
X55318386Y-68387715D01*
X55152786Y-68508028D01*
X55008028Y-68652786D01*
X54887715Y-68818386D01*
X54794781Y-69000776D01*
X54731522Y-69195465D01*
X54705529Y-69359581D01*
X54699500Y-69397648D01*
X54699500Y-69602352D01*
X54716013Y-69706610D01*
X54731523Y-69804534D01*
X54736172Y-69818843D01*
X54738167Y-69888684D01*
X54705922Y-69944842D01*
X54287584Y-70363181D01*
X54226261Y-70396666D01*
X54199903Y-70399500D01*
X53431661Y-70399500D01*
X53364622Y-70379815D01*
X53318867Y-70327011D01*
X53308923Y-70257853D01*
X53331343Y-70202615D01*
X53337549Y-70194072D01*
X53337548Y-70194072D01*
X53337552Y-70194068D01*
X53416193Y-70039725D01*
X53469722Y-69874981D01*
X53496820Y-69703891D01*
X53496820Y-69530669D01*
X53469722Y-69359579D01*
X53416193Y-69194835D01*
X53337552Y-69040492D01*
X53235734Y-68900352D01*
X53113248Y-68777866D01*
X52973108Y-68676048D01*
X52818765Y-68597407D01*
X52654021Y-68543878D01*
X52654019Y-68543877D01*
X52654018Y-68543877D01*
X52500104Y-68519500D01*
X52482931Y-68516780D01*
X51509709Y-68516780D01*
X51492536Y-68519500D01*
X51338622Y-68543877D01*
X51173872Y-68597408D01*
X51019531Y-68676048D01*
X50941446Y-68732781D01*
X50879392Y-68777866D01*
X50879390Y-68777868D01*
X50879389Y-68777868D01*
X50756908Y-68900349D01*
X50756908Y-68900350D01*
X50756906Y-68900352D01*
X50754930Y-68903072D01*
X50655088Y-69040491D01*
X50576448Y-69194832D01*
X50522917Y-69359581D01*
X50518041Y-69390370D01*
X50512648Y-69401745D01*
X50511750Y-69414305D01*
X50497963Y-69432720D01*
X50488111Y-69453504D01*
X50477423Y-69460158D01*
X50469878Y-69470238D01*
X50448327Y-69478276D01*
X50428800Y-69490435D01*
X50416210Y-69490255D01*
X50404414Y-69494655D01*
X50381937Y-69489765D01*
X50358937Y-69489437D01*
X50346809Y-69482123D01*
X50336141Y-69479803D01*
X50307887Y-69458652D01*
X50136819Y-69287584D01*
X50103334Y-69226261D01*
X50100500Y-69199903D01*
X50100500Y-66990669D01*
X50495820Y-66990669D01*
X50495820Y-67163891D01*
X50522918Y-67334981D01*
X50576447Y-67499725D01*
X50655088Y-67654068D01*
X50756906Y-67794208D01*
X50879392Y-67916694D01*
X51019532Y-68018512D01*
X51173875Y-68097153D01*
X51338619Y-68150682D01*
X51509709Y-68177780D01*
X51509710Y-68177780D01*
X52482930Y-68177780D01*
X52482931Y-68177780D01*
X52654021Y-68150682D01*
X52818765Y-68097153D01*
X52973108Y-68018512D01*
X53113248Y-67916694D01*
X53235734Y-67794208D01*
X53337552Y-67654068D01*
X53416193Y-67499725D01*
X53469722Y-67334981D01*
X53496820Y-67163891D01*
X53496820Y-66990669D01*
X53469722Y-66819579D01*
X53416193Y-66654835D01*
X53337552Y-66500492D01*
X53235734Y-66360352D01*
X53113248Y-66237866D01*
X52973108Y-66136048D01*
X52818765Y-66057407D01*
X52654021Y-66003878D01*
X52654019Y-66003877D01*
X52654018Y-66003877D01*
X52500104Y-65979500D01*
X52482931Y-65976780D01*
X51509709Y-65976780D01*
X51492536Y-65979500D01*
X51338622Y-66003877D01*
X51173872Y-66057408D01*
X51019531Y-66136048D01*
X50939576Y-66194139D01*
X50879392Y-66237866D01*
X50879390Y-66237868D01*
X50879389Y-66237868D01*
X50756908Y-66360349D01*
X50756908Y-66360350D01*
X50756906Y-66360352D01*
X50754930Y-66363072D01*
X50655088Y-66500491D01*
X50576448Y-66654832D01*
X50522917Y-66819582D01*
X50495820Y-66990669D01*
X50100500Y-66990669D01*
X50100500Y-64453389D01*
X50499500Y-64453389D01*
X50499500Y-64626610D01*
X50518645Y-64747491D01*
X50526598Y-64797701D01*
X50580127Y-64962445D01*
X50658768Y-65116788D01*
X50760586Y-65256928D01*
X50883072Y-65379414D01*
X51023212Y-65481232D01*
X51177555Y-65559873D01*
X51342299Y-65613402D01*
X51513389Y-65640500D01*
X51513390Y-65640500D01*
X52486610Y-65640500D01*
X52486611Y-65640500D01*
X52657701Y-65613402D01*
X52822445Y-65559873D01*
X52976788Y-65481232D01*
X53116928Y-65379414D01*
X53239414Y-65256928D01*
X53341232Y-65116788D01*
X53419873Y-64962445D01*
X53473402Y-64797701D01*
X53500500Y-64626611D01*
X53500500Y-64453389D01*
X53473402Y-64282299D01*
X53419873Y-64117555D01*
X53341232Y-63963212D01*
X53239414Y-63823072D01*
X53116928Y-63700586D01*
X52976788Y-63598768D01*
X52822445Y-63520127D01*
X52657701Y-63466598D01*
X52657699Y-63466597D01*
X52657698Y-63466597D01*
X52526271Y-63445781D01*
X52486611Y-63439500D01*
X51513389Y-63439500D01*
X51473728Y-63445781D01*
X51342302Y-63466597D01*
X51177552Y-63520128D01*
X51023211Y-63598768D01*
X50972184Y-63635842D01*
X50883072Y-63700586D01*
X50883070Y-63700588D01*
X50883069Y-63700588D01*
X50760588Y-63823069D01*
X50760588Y-63823070D01*
X50760586Y-63823072D01*
X50734845Y-63858501D01*
X50658768Y-63963211D01*
X50580128Y-64117552D01*
X50526597Y-64282302D01*
X50499500Y-64453389D01*
X50100500Y-64453389D01*
X50100500Y-61913389D01*
X50499500Y-61913389D01*
X50499500Y-62086611D01*
X50526598Y-62257701D01*
X50580127Y-62422445D01*
X50658768Y-62576788D01*
X50760586Y-62716928D01*
X50883072Y-62839414D01*
X51023212Y-62941232D01*
X51177555Y-63019873D01*
X51342299Y-63073402D01*
X51513389Y-63100500D01*
X51513390Y-63100500D01*
X52486610Y-63100500D01*
X52486611Y-63100500D01*
X52657701Y-63073402D01*
X52822445Y-63019873D01*
X52976788Y-62941232D01*
X53116928Y-62839414D01*
X53239414Y-62716928D01*
X53341232Y-62576788D01*
X53419873Y-62422445D01*
X53473402Y-62257701D01*
X53500500Y-62086611D01*
X53500500Y-61913389D01*
X53473402Y-61742299D01*
X53419873Y-61577555D01*
X53341232Y-61423212D01*
X53239414Y-61283072D01*
X53116928Y-61160586D01*
X52976788Y-61058768D01*
X52822445Y-60980127D01*
X52657701Y-60926598D01*
X52657699Y-60926597D01*
X52657698Y-60926597D01*
X52526271Y-60905781D01*
X52486611Y-60899500D01*
X51513389Y-60899500D01*
X51473728Y-60905781D01*
X51342302Y-60926597D01*
X51177552Y-60980128D01*
X51023211Y-61058768D01*
X50943256Y-61116859D01*
X50883072Y-61160586D01*
X50883070Y-61160588D01*
X50883069Y-61160588D01*
X50760588Y-61283069D01*
X50760588Y-61283070D01*
X50760586Y-61283072D01*
X50716859Y-61343256D01*
X50658768Y-61423211D01*
X50580128Y-61577552D01*
X50526597Y-61742302D01*
X50504697Y-61880577D01*
X50499500Y-61913389D01*
X50100500Y-61913389D01*
X50100500Y-59373389D01*
X50499500Y-59373389D01*
X50499500Y-59546610D01*
X50520432Y-59678774D01*
X50526598Y-59717701D01*
X50580127Y-59882445D01*
X50658768Y-60036788D01*
X50760586Y-60176928D01*
X50883072Y-60299414D01*
X51023212Y-60401232D01*
X51177555Y-60479873D01*
X51342299Y-60533402D01*
X51513389Y-60560500D01*
X51513390Y-60560500D01*
X52486610Y-60560500D01*
X52486611Y-60560500D01*
X52657701Y-60533402D01*
X52822445Y-60479873D01*
X52976788Y-60401232D01*
X53116928Y-60299414D01*
X53239414Y-60176928D01*
X53341232Y-60036788D01*
X53419873Y-59882445D01*
X53473402Y-59717701D01*
X53500500Y-59546611D01*
X53500500Y-59373389D01*
X53483131Y-59263723D01*
X53481308Y-59252214D01*
X53479006Y-59237682D01*
X54700000Y-59237682D01*
X54700000Y-59442317D01*
X54732009Y-59644417D01*
X54795244Y-59839031D01*
X54888141Y-60021350D01*
X54888147Y-60021359D01*
X54920523Y-60065921D01*
X54920524Y-60065922D01*
X55600000Y-59386446D01*
X55600000Y-59392661D01*
X55627259Y-59494394D01*
X55679920Y-59585606D01*
X55754394Y-59660080D01*
X55845606Y-59712741D01*
X55947339Y-59740000D01*
X55953553Y-59740000D01*
X55274076Y-60419474D01*
X55318650Y-60451859D01*
X55500968Y-60544755D01*
X55695582Y-60607990D01*
X55897683Y-60640000D01*
X56102317Y-60640000D01*
X56304417Y-60607990D01*
X56499031Y-60544755D01*
X56681349Y-60451859D01*
X56725921Y-60419474D01*
X56725922Y-60419474D01*
X56046447Y-59740000D01*
X56052661Y-59740000D01*
X56154394Y-59712741D01*
X56245606Y-59660080D01*
X56320080Y-59585606D01*
X56372741Y-59494394D01*
X56400000Y-59392661D01*
X56400000Y-59386447D01*
X57079474Y-60065921D01*
X57111859Y-60021349D01*
X57204755Y-59839031D01*
X57267990Y-59644417D01*
X57300000Y-59442317D01*
X57300000Y-59317682D01*
X58700000Y-59317682D01*
X58700000Y-59522317D01*
X58732009Y-59724417D01*
X58795244Y-59919031D01*
X58888141Y-60101350D01*
X58888147Y-60101359D01*
X58920523Y-60145921D01*
X58920524Y-60145922D01*
X59600000Y-59466446D01*
X59600000Y-59472661D01*
X59627259Y-59574394D01*
X59679920Y-59665606D01*
X59754394Y-59740080D01*
X59845606Y-59792741D01*
X59947339Y-59820000D01*
X59953553Y-59820000D01*
X59274076Y-60499474D01*
X59318650Y-60531859D01*
X59500968Y-60624755D01*
X59695582Y-60687990D01*
X59897683Y-60720000D01*
X60102317Y-60720000D01*
X60304417Y-60687990D01*
X60499031Y-60624755D01*
X60681349Y-60531859D01*
X60725921Y-60499474D01*
X60046447Y-59820000D01*
X60052661Y-59820000D01*
X60154394Y-59792741D01*
X60245606Y-59740080D01*
X60320080Y-59665606D01*
X60372741Y-59574394D01*
X60400000Y-59472661D01*
X60400000Y-59466447D01*
X61079474Y-60145921D01*
X61111859Y-60101349D01*
X61204755Y-59919031D01*
X61267990Y-59724417D01*
X61300000Y-59522317D01*
X61300000Y-59317682D01*
X61267990Y-59115582D01*
X61204755Y-58920968D01*
X61111859Y-58738650D01*
X61079474Y-58694077D01*
X61079474Y-58694076D01*
X60400000Y-59373551D01*
X60400000Y-59367339D01*
X60372741Y-59265606D01*
X60320080Y-59174394D01*
X60245606Y-59099920D01*
X60154394Y-59047259D01*
X60052661Y-59020000D01*
X60046446Y-59020000D01*
X60725922Y-58340524D01*
X60725921Y-58340523D01*
X60681359Y-58308147D01*
X60681350Y-58308141D01*
X60499031Y-58215244D01*
X60304417Y-58152009D01*
X60102317Y-58120000D01*
X59897683Y-58120000D01*
X59695582Y-58152009D01*
X59500968Y-58215244D01*
X59318644Y-58308143D01*
X59274077Y-58340523D01*
X59274077Y-58340524D01*
X59953554Y-59020000D01*
X59947339Y-59020000D01*
X59845606Y-59047259D01*
X59754394Y-59099920D01*
X59679920Y-59174394D01*
X59627259Y-59265606D01*
X59600000Y-59367339D01*
X59600000Y-59373553D01*
X58920524Y-58694077D01*
X58920523Y-58694077D01*
X58888143Y-58738644D01*
X58795244Y-58920968D01*
X58732009Y-59115582D01*
X58700000Y-59317682D01*
X57300000Y-59317682D01*
X57300000Y-59237682D01*
X57267990Y-59035582D01*
X57204755Y-58840968D01*
X57111859Y-58658650D01*
X57079474Y-58614077D01*
X57079474Y-58614076D01*
X56400000Y-59293551D01*
X56400000Y-59287339D01*
X56372741Y-59185606D01*
X56320080Y-59094394D01*
X56245606Y-59019920D01*
X56154394Y-58967259D01*
X56052661Y-58940000D01*
X56046446Y-58940000D01*
X56686345Y-58300102D01*
X56725922Y-58260524D01*
X56725921Y-58260523D01*
X56681359Y-58228147D01*
X56681350Y-58228141D01*
X56499031Y-58135244D01*
X56304417Y-58072009D01*
X56102317Y-58040000D01*
X55897683Y-58040000D01*
X55695582Y-58072009D01*
X55500968Y-58135244D01*
X55318644Y-58228143D01*
X55274077Y-58260523D01*
X55274077Y-58260524D01*
X55953554Y-58940000D01*
X55947339Y-58940000D01*
X55845606Y-58967259D01*
X55754394Y-59019920D01*
X55679920Y-59094394D01*
X55627259Y-59185606D01*
X55600000Y-59287339D01*
X55600000Y-59293553D01*
X54920524Y-58614077D01*
X54920523Y-58614077D01*
X54888143Y-58658644D01*
X54795244Y-58840968D01*
X54732009Y-59035582D01*
X54700000Y-59237682D01*
X53479006Y-59237682D01*
X53473402Y-59202302D01*
X53473402Y-59202299D01*
X53419873Y-59037555D01*
X53341232Y-58883212D01*
X53239414Y-58743072D01*
X53116928Y-58620586D01*
X52976788Y-58518768D01*
X52822445Y-58440127D01*
X52657701Y-58386598D01*
X52657699Y-58386597D01*
X52657698Y-58386597D01*
X52526271Y-58365781D01*
X52486611Y-58359500D01*
X51513389Y-58359500D01*
X51473728Y-58365781D01*
X51342302Y-58386597D01*
X51177552Y-58440128D01*
X51023211Y-58518768D01*
X51009313Y-58528866D01*
X50883072Y-58620586D01*
X50883070Y-58620588D01*
X50883069Y-58620588D01*
X50760588Y-58743069D01*
X50760588Y-58743070D01*
X50760586Y-58743072D01*
X50737607Y-58774700D01*
X50658768Y-58883211D01*
X50580128Y-59037552D01*
X50526597Y-59202302D01*
X50499500Y-59373389D01*
X50100500Y-59373389D01*
X50100500Y-56833389D01*
X50499500Y-56833389D01*
X50499500Y-57006611D01*
X50507677Y-57058239D01*
X50524238Y-57162805D01*
X50526598Y-57177701D01*
X50580127Y-57342445D01*
X50658768Y-57496788D01*
X50760586Y-57636928D01*
X50883072Y-57759414D01*
X51023212Y-57861232D01*
X51177555Y-57939873D01*
X51342299Y-57993402D01*
X51513389Y-58020500D01*
X51513390Y-58020500D01*
X52486610Y-58020500D01*
X52486611Y-58020500D01*
X52657701Y-57993402D01*
X52822445Y-57939873D01*
X52976788Y-57861232D01*
X53116928Y-57759414D01*
X53239414Y-57636928D01*
X53341232Y-57496788D01*
X53419873Y-57342445D01*
X53473402Y-57177701D01*
X53500500Y-57006611D01*
X53500500Y-56833389D01*
X53473402Y-56662299D01*
X53419873Y-56497555D01*
X53341232Y-56343212D01*
X53239414Y-56203072D01*
X53116928Y-56080586D01*
X52976788Y-55978768D01*
X52822445Y-55900127D01*
X52657701Y-55846598D01*
X52657699Y-55846597D01*
X52657698Y-55846597D01*
X52526271Y-55825781D01*
X52486611Y-55819500D01*
X51513389Y-55819500D01*
X51473728Y-55825781D01*
X51342302Y-55846597D01*
X51177552Y-55900128D01*
X51023211Y-55978768D01*
X50943256Y-56036859D01*
X50883072Y-56080586D01*
X50883070Y-56080588D01*
X50883069Y-56080588D01*
X50760588Y-56203069D01*
X50760588Y-56203070D01*
X50760586Y-56203072D01*
X50722830Y-56255038D01*
X50658768Y-56343211D01*
X50580128Y-56497552D01*
X50526597Y-56662302D01*
X50510236Y-56765606D01*
X50499500Y-56833389D01*
X50100500Y-56833389D01*
X50100500Y-54293389D01*
X50499500Y-54293389D01*
X50499500Y-54466611D01*
X50526598Y-54637701D01*
X50580127Y-54802445D01*
X50658768Y-54956788D01*
X50760586Y-55096928D01*
X50883072Y-55219414D01*
X51023212Y-55321232D01*
X51177555Y-55399873D01*
X51342299Y-55453402D01*
X51513389Y-55480500D01*
X51513390Y-55480500D01*
X52486610Y-55480500D01*
X52486611Y-55480500D01*
X52657701Y-55453402D01*
X52822445Y-55399873D01*
X52976788Y-55321232D01*
X53116928Y-55219414D01*
X53239414Y-55096928D01*
X53341232Y-54956788D01*
X53419873Y-54802445D01*
X53473402Y-54637701D01*
X53500500Y-54466611D01*
X53500500Y-54293389D01*
X53473402Y-54122299D01*
X53419873Y-53957555D01*
X53341232Y-53803212D01*
X53239414Y-53663072D01*
X53116928Y-53540586D01*
X52976788Y-53438768D01*
X52822445Y-53360127D01*
X52657701Y-53306598D01*
X52657699Y-53306597D01*
X52657698Y-53306597D01*
X52526271Y-53285781D01*
X52486611Y-53279500D01*
X51513389Y-53279500D01*
X51473728Y-53285781D01*
X51342302Y-53306597D01*
X51177552Y-53360128D01*
X51023211Y-53438768D01*
X50959113Y-53485339D01*
X50883072Y-53540586D01*
X50883070Y-53540588D01*
X50883069Y-53540588D01*
X50760588Y-53663069D01*
X50760588Y-53663070D01*
X50760586Y-53663072D01*
X50716859Y-53723256D01*
X50658768Y-53803211D01*
X50580128Y-53957552D01*
X50526597Y-54122302D01*
X50502719Y-54273067D01*
X50499500Y-54293389D01*
X50100500Y-54293389D01*
X50100500Y-51753389D01*
X50499500Y-51753389D01*
X50499500Y-51926610D01*
X50522514Y-52071920D01*
X50526598Y-52097701D01*
X50572115Y-52237788D01*
X50580128Y-52262447D01*
X50592349Y-52286433D01*
X50658768Y-52416788D01*
X50760586Y-52556928D01*
X50883072Y-52679414D01*
X51023212Y-52781232D01*
X51177555Y-52859873D01*
X51342299Y-52913402D01*
X51513389Y-52940500D01*
X51513390Y-52940500D01*
X52486610Y-52940500D01*
X52486611Y-52940500D01*
X52657701Y-52913402D01*
X52822445Y-52859873D01*
X52976788Y-52781232D01*
X53116928Y-52679414D01*
X53239414Y-52556928D01*
X53341232Y-52416788D01*
X53419873Y-52262445D01*
X53473402Y-52097701D01*
X53500500Y-51926611D01*
X53500500Y-51753389D01*
X53473402Y-51582299D01*
X53419873Y-51417555D01*
X53341232Y-51263212D01*
X53239414Y-51123072D01*
X53116928Y-51000586D01*
X52976788Y-50898768D01*
X52822445Y-50820127D01*
X52657701Y-50766598D01*
X52657699Y-50766597D01*
X52657698Y-50766597D01*
X52514265Y-50743880D01*
X52486611Y-50739500D01*
X51513389Y-50739500D01*
X51485735Y-50743880D01*
X51342302Y-50766597D01*
X51342299Y-50766598D01*
X51246849Y-50797612D01*
X51177552Y-50820128D01*
X51023211Y-50898768D01*
X50943256Y-50956859D01*
X50883072Y-51000586D01*
X50883070Y-51000588D01*
X50883069Y-51000588D01*
X50760588Y-51123069D01*
X50760588Y-51123070D01*
X50760586Y-51123072D01*
X50716859Y-51183256D01*
X50658768Y-51263211D01*
X50580128Y-51417552D01*
X50526597Y-51582302D01*
X50499500Y-51753389D01*
X50100500Y-51753389D01*
X50100500Y-49213389D01*
X50499500Y-49213389D01*
X50499500Y-49386610D01*
X50517696Y-49501500D01*
X50526598Y-49557701D01*
X50580127Y-49722445D01*
X50658768Y-49876788D01*
X50760586Y-50016928D01*
X50883072Y-50139414D01*
X51023212Y-50241232D01*
X51177555Y-50319873D01*
X51342299Y-50373402D01*
X51513389Y-50400500D01*
X51513390Y-50400500D01*
X52486610Y-50400500D01*
X52486611Y-50400500D01*
X52657701Y-50373402D01*
X52822445Y-50319873D01*
X52976788Y-50241232D01*
X53116928Y-50139414D01*
X53239414Y-50016928D01*
X53341232Y-49876788D01*
X53419873Y-49722445D01*
X53473402Y-49557701D01*
X53500500Y-49386611D01*
X53500500Y-49213389D01*
X53473402Y-49042299D01*
X53419873Y-48877555D01*
X53341232Y-48723212D01*
X53239414Y-48583072D01*
X53116928Y-48460586D01*
X52976788Y-48358768D01*
X52822445Y-48280127D01*
X52657701Y-48226598D01*
X52657699Y-48226597D01*
X52657698Y-48226597D01*
X52526271Y-48205781D01*
X52486611Y-48199500D01*
X51513389Y-48199500D01*
X51473728Y-48205781D01*
X51342302Y-48226597D01*
X51177552Y-48280128D01*
X51023211Y-48358768D01*
X50943256Y-48416859D01*
X50883072Y-48460586D01*
X50883070Y-48460588D01*
X50883069Y-48460588D01*
X50760588Y-48583069D01*
X50760588Y-48583070D01*
X50760586Y-48583072D01*
X50746256Y-48602796D01*
X50658768Y-48723211D01*
X50580128Y-48877552D01*
X50526597Y-49042302D01*
X50499500Y-49213389D01*
X50100500Y-49213389D01*
X50100500Y-48420945D01*
X50100500Y-48420943D01*
X50059577Y-48268216D01*
X50035549Y-48226598D01*
X49980524Y-48131290D01*
X49980518Y-48131282D01*
X49868717Y-48019481D01*
X49868709Y-48019475D01*
X49731790Y-47940426D01*
X49731786Y-47940424D01*
X49731784Y-47940423D01*
X49579057Y-47899500D01*
X49579056Y-47899500D01*
X39844500Y-47899500D01*
X39777461Y-47879815D01*
X39731706Y-47827011D01*
X39720500Y-47775500D01*
X39720500Y-46673389D01*
X50499500Y-46673389D01*
X50499500Y-46846611D01*
X50526598Y-47017701D01*
X50580127Y-47182445D01*
X50658768Y-47336788D01*
X50760586Y-47476928D01*
X50883072Y-47599414D01*
X51023212Y-47701232D01*
X51177555Y-47779873D01*
X51342299Y-47833402D01*
X51513389Y-47860500D01*
X51513390Y-47860500D01*
X52486610Y-47860500D01*
X52486611Y-47860500D01*
X52657701Y-47833402D01*
X52822445Y-47779873D01*
X52976788Y-47701232D01*
X53116928Y-47599414D01*
X53239414Y-47476928D01*
X53341232Y-47336788D01*
X53419873Y-47182445D01*
X53473402Y-47017701D01*
X53500500Y-46846611D01*
X53500500Y-46673389D01*
X53473402Y-46502299D01*
X53419873Y-46337555D01*
X53341232Y-46183212D01*
X53239414Y-46043072D01*
X53116928Y-45920586D01*
X52976788Y-45818768D01*
X52822445Y-45740127D01*
X52657701Y-45686598D01*
X52657699Y-45686597D01*
X52657698Y-45686597D01*
X52526271Y-45665781D01*
X52486611Y-45659500D01*
X51513389Y-45659500D01*
X51473728Y-45665781D01*
X51342302Y-45686597D01*
X51177552Y-45740128D01*
X51023211Y-45818768D01*
X50967441Y-45859288D01*
X50883072Y-45920586D01*
X50883070Y-45920588D01*
X50883069Y-45920588D01*
X50760588Y-46043069D01*
X50760588Y-46043070D01*
X50760586Y-46043072D01*
X50732780Y-46081344D01*
X50658768Y-46183211D01*
X50580128Y-46337552D01*
X50526597Y-46502302D01*
X50499500Y-46673389D01*
X39720500Y-46673389D01*
X39720500Y-45845776D01*
X39740185Y-45778737D01*
X39788204Y-45735291D01*
X39840919Y-45708433D01*
X40016078Y-45581172D01*
X40169172Y-45428078D01*
X40289683Y-45262208D01*
X40345012Y-45219545D01*
X40414625Y-45213566D01*
X40476420Y-45246172D01*
X40490313Y-45262205D01*
X40610828Y-45428078D01*
X40763922Y-45581172D01*
X40939081Y-45708433D01*
X41001284Y-45740127D01*
X41131990Y-45806726D01*
X41131993Y-45806727D01*
X41200695Y-45829049D01*
X41337903Y-45873630D01*
X41551746Y-45907500D01*
X41551747Y-45907500D01*
X41768253Y-45907500D01*
X41768254Y-45907500D01*
X41982097Y-45873630D01*
X42188009Y-45806726D01*
X42380919Y-45708433D01*
X42556078Y-45581172D01*
X42709172Y-45428078D01*
X42829683Y-45262208D01*
X42885012Y-45219545D01*
X42954625Y-45213566D01*
X43016420Y-45246172D01*
X43030313Y-45262205D01*
X43150828Y-45428078D01*
X43303922Y-45581172D01*
X43479081Y-45708433D01*
X43541284Y-45740127D01*
X43671990Y-45806726D01*
X43671993Y-45806727D01*
X43740695Y-45829049D01*
X43877903Y-45873630D01*
X44091746Y-45907500D01*
X44091747Y-45907500D01*
X44308253Y-45907500D01*
X44308254Y-45907500D01*
X44522097Y-45873630D01*
X44728009Y-45806726D01*
X44920919Y-45708433D01*
X45096078Y-45581172D01*
X45249172Y-45428078D01*
X45369683Y-45262208D01*
X45425012Y-45219545D01*
X45494625Y-45213566D01*
X45556420Y-45246172D01*
X45570313Y-45262205D01*
X45690828Y-45428078D01*
X45843922Y-45581172D01*
X46019081Y-45708433D01*
X46081284Y-45740127D01*
X46211990Y-45806726D01*
X46211993Y-45806727D01*
X46280695Y-45829049D01*
X46417903Y-45873630D01*
X46631746Y-45907500D01*
X46631747Y-45907500D01*
X46848253Y-45907500D01*
X46848254Y-45907500D01*
X47062097Y-45873630D01*
X47268009Y-45806726D01*
X47460919Y-45708433D01*
X47636078Y-45581172D01*
X47789172Y-45428078D01*
X47916433Y-45252919D01*
X48014726Y-45060009D01*
X48081630Y-44854097D01*
X48115500Y-44640254D01*
X48115500Y-44133389D01*
X50499500Y-44133389D01*
X50499500Y-44306611D01*
X50526598Y-44477701D01*
X50580127Y-44642445D01*
X50658768Y-44796788D01*
X50760586Y-44936928D01*
X50883072Y-45059414D01*
X51023212Y-45161232D01*
X51177555Y-45239873D01*
X51342299Y-45293402D01*
X51513389Y-45320500D01*
X51513390Y-45320500D01*
X52486610Y-45320500D01*
X52486611Y-45320500D01*
X52657701Y-45293402D01*
X52822445Y-45239873D01*
X52976788Y-45161232D01*
X53116928Y-45059414D01*
X53239414Y-44936928D01*
X53341232Y-44796788D01*
X53419873Y-44642445D01*
X53473402Y-44477701D01*
X53500500Y-44306611D01*
X53500500Y-44133389D01*
X53473402Y-43962299D01*
X53419873Y-43797555D01*
X53341232Y-43643212D01*
X53239414Y-43503072D01*
X53116928Y-43380586D01*
X52976788Y-43278768D01*
X52913452Y-43246497D01*
X52822447Y-43200128D01*
X52822446Y-43200127D01*
X52822445Y-43200127D01*
X52657701Y-43146598D01*
X52657699Y-43146597D01*
X52657698Y-43146597D01*
X52526271Y-43125781D01*
X52486611Y-43119500D01*
X51513389Y-43119500D01*
X51473728Y-43125781D01*
X51342302Y-43146597D01*
X51177552Y-43200128D01*
X51023211Y-43278768D01*
X50943256Y-43336859D01*
X50883072Y-43380586D01*
X50883070Y-43380588D01*
X50883069Y-43380588D01*
X50760588Y-43503069D01*
X50760588Y-43503070D01*
X50760586Y-43503072D01*
X50748374Y-43519881D01*
X50658768Y-43643211D01*
X50580128Y-43797552D01*
X50526597Y-43962302D01*
X50515717Y-44031000D01*
X50499500Y-44133389D01*
X48115500Y-44133389D01*
X48115500Y-43173746D01*
X48081630Y-42959903D01*
X48014726Y-42753991D01*
X48014726Y-42753990D01*
X47953608Y-42634040D01*
X47916433Y-42561081D01*
X47789172Y-42385922D01*
X47636078Y-42232828D01*
X47460919Y-42105567D01*
X47430846Y-42090244D01*
X47268009Y-42007273D01*
X47268006Y-42007272D01*
X47062098Y-41940370D01*
X46955175Y-41923435D01*
X46848254Y-41906500D01*
X46631746Y-41906500D01*
X46560465Y-41917790D01*
X46417901Y-41940370D01*
X46211993Y-42007272D01*
X46211990Y-42007273D01*
X46019080Y-42105567D01*
X45919145Y-42178174D01*
X45843922Y-42232828D01*
X45843920Y-42232830D01*
X45843919Y-42232830D01*
X45690830Y-42385919D01*
X45690830Y-42385920D01*
X45690828Y-42385922D01*
X45628256Y-42472045D01*
X45570318Y-42551789D01*
X45514988Y-42594454D01*
X45445374Y-42600433D01*
X45383579Y-42567827D01*
X45369682Y-42551789D01*
X45346158Y-42519411D01*
X45249172Y-42385922D01*
X45096078Y-42232828D01*
X44920919Y-42105567D01*
X44890846Y-42090244D01*
X44728009Y-42007273D01*
X44728006Y-42007272D01*
X44522098Y-41940370D01*
X44415175Y-41923435D01*
X44308254Y-41906500D01*
X44091746Y-41906500D01*
X44020465Y-41917790D01*
X43877901Y-41940370D01*
X43671993Y-42007272D01*
X43671990Y-42007273D01*
X43479080Y-42105567D01*
X43379145Y-42178174D01*
X43303922Y-42232828D01*
X43303920Y-42232830D01*
X43303919Y-42232830D01*
X43150830Y-42385919D01*
X43150830Y-42385920D01*
X43150828Y-42385922D01*
X43088256Y-42472045D01*
X43030318Y-42551789D01*
X42974988Y-42594454D01*
X42905374Y-42600433D01*
X42843579Y-42567827D01*
X42829682Y-42551789D01*
X42806158Y-42519411D01*
X42709172Y-42385922D01*
X42556078Y-42232828D01*
X42380919Y-42105567D01*
X42350846Y-42090244D01*
X42188009Y-42007273D01*
X42188006Y-42007272D01*
X41982098Y-41940370D01*
X41875175Y-41923435D01*
X41768254Y-41906500D01*
X41551746Y-41906500D01*
X41480465Y-41917790D01*
X41337901Y-41940370D01*
X41131993Y-42007272D01*
X41131990Y-42007273D01*
X40939080Y-42105567D01*
X40839145Y-42178174D01*
X40763922Y-42232828D01*
X40763920Y-42232830D01*
X40763919Y-42232830D01*
X40610830Y-42385919D01*
X40610830Y-42385920D01*
X40610828Y-42385922D01*
X40548256Y-42472045D01*
X40490318Y-42551789D01*
X40434988Y-42594454D01*
X40365374Y-42600433D01*
X40303579Y-42567827D01*
X40289682Y-42551789D01*
X40266158Y-42519411D01*
X40169172Y-42385922D01*
X40016078Y-42232828D01*
X39840919Y-42105567D01*
X39810846Y-42090244D01*
X39648009Y-42007273D01*
X39648006Y-42007272D01*
X39442098Y-41940370D01*
X39335175Y-41923435D01*
X39228254Y-41906500D01*
X39011746Y-41906500D01*
X38940465Y-41917790D01*
X38797901Y-41940370D01*
X38591993Y-42007272D01*
X38591990Y-42007273D01*
X38399080Y-42105567D01*
X38299145Y-42178174D01*
X38223922Y-42232828D01*
X38223920Y-42232830D01*
X38223919Y-42232830D01*
X38070830Y-42385919D01*
X38070830Y-42385920D01*
X38070828Y-42385922D01*
X38008256Y-42472045D01*
X37950318Y-42551789D01*
X37894988Y-42594454D01*
X37825374Y-42600433D01*
X37763579Y-42567827D01*
X37749682Y-42551789D01*
X37726158Y-42519411D01*
X37629172Y-42385922D01*
X37476078Y-42232828D01*
X37300919Y-42105567D01*
X37270846Y-42090244D01*
X37108009Y-42007273D01*
X37108006Y-42007272D01*
X36902098Y-41940370D01*
X36795175Y-41923435D01*
X36688254Y-41906500D01*
X36471746Y-41906500D01*
X36400465Y-41917790D01*
X36257901Y-41940370D01*
X36051993Y-42007272D01*
X36051990Y-42007273D01*
X35859080Y-42105567D01*
X35759145Y-42178174D01*
X35683922Y-42232828D01*
X35683920Y-42232830D01*
X35683919Y-42232830D01*
X35530829Y-42385920D01*
X35410009Y-42552214D01*
X35354678Y-42594879D01*
X35285065Y-42600858D01*
X35223270Y-42568252D01*
X35209373Y-42552214D01*
X35088788Y-42386245D01*
X35088788Y-42386244D01*
X34935755Y-42233211D01*
X34760657Y-42105994D01*
X34675212Y-42062458D01*
X34624416Y-42014484D01*
X34607621Y-41946663D01*
X34630158Y-41880528D01*
X34643815Y-41864304D01*
X34914730Y-41593389D01*
X50499500Y-41593389D01*
X50499500Y-41766610D01*
X50517542Y-41880528D01*
X50526598Y-41937701D01*
X50580127Y-42102445D01*
X50658768Y-42256788D01*
X50760586Y-42396928D01*
X50883072Y-42519414D01*
X51023212Y-42621232D01*
X51177555Y-42699873D01*
X51342299Y-42753402D01*
X51513389Y-42780500D01*
X51513390Y-42780500D01*
X52486610Y-42780500D01*
X52486611Y-42780500D01*
X52657701Y-42753402D01*
X52822445Y-42699873D01*
X52976788Y-42621232D01*
X53116928Y-42519414D01*
X53239414Y-42396928D01*
X53341232Y-42256788D01*
X53419873Y-42102445D01*
X53473402Y-41937701D01*
X53500500Y-41766611D01*
X53500500Y-41593389D01*
X53473402Y-41422299D01*
X53419873Y-41257555D01*
X53341232Y-41103212D01*
X53239414Y-40963072D01*
X53116928Y-40840586D01*
X52976788Y-40738768D01*
X52822445Y-40660127D01*
X52657701Y-40606598D01*
X52657699Y-40606597D01*
X52657698Y-40606597D01*
X52526271Y-40585781D01*
X52486611Y-40579500D01*
X51513389Y-40579500D01*
X51473728Y-40585781D01*
X51342302Y-40606597D01*
X51177552Y-40660128D01*
X51023211Y-40738768D01*
X50943256Y-40796859D01*
X50883072Y-40840586D01*
X50883070Y-40840588D01*
X50883069Y-40840588D01*
X50760588Y-40963069D01*
X50760588Y-40963070D01*
X50760586Y-40963072D01*
X50716859Y-41023256D01*
X50658768Y-41103211D01*
X50580128Y-41257552D01*
X50526597Y-41422302D01*
X50499500Y-41593389D01*
X34914730Y-41593389D01*
X38070301Y-38437819D01*
X38131624Y-38404334D01*
X38157982Y-38401500D01*
X50539377Y-38401500D01*
X50606416Y-38421185D01*
X50652171Y-38473989D01*
X50662115Y-38543147D01*
X50649861Y-38581796D01*
X50580591Y-38717742D01*
X50527085Y-38882415D01*
X50525884Y-38889999D01*
X50525885Y-38890000D01*
X51684314Y-38890000D01*
X51679920Y-38894394D01*
X51627259Y-38985606D01*
X51600000Y-39087339D01*
X51600000Y-39192661D01*
X51627259Y-39294394D01*
X51679920Y-39385606D01*
X51684314Y-39390000D01*
X50525885Y-39390000D01*
X50527085Y-39397584D01*
X50580591Y-39562255D01*
X50659195Y-39716524D01*
X50760967Y-39856602D01*
X50883397Y-39979032D01*
X51023475Y-40080804D01*
X51177742Y-40159408D01*
X51342415Y-40212914D01*
X51513429Y-40240000D01*
X51750000Y-40240000D01*
X51750000Y-39455686D01*
X51754394Y-39460080D01*
X51845606Y-39512741D01*
X51947339Y-39540000D01*
X52052661Y-39540000D01*
X52154394Y-39512741D01*
X52245606Y-39460080D01*
X52250000Y-39455686D01*
X52250000Y-40240000D01*
X52486571Y-40240000D01*
X52657584Y-40212914D01*
X52822257Y-40159408D01*
X52976524Y-40080804D01*
X53116602Y-39979032D01*
X53239032Y-39856602D01*
X53340804Y-39716524D01*
X53419408Y-39562255D01*
X53472914Y-39397584D01*
X53474115Y-39390000D01*
X52315686Y-39390000D01*
X52320080Y-39385606D01*
X52372741Y-39294394D01*
X52400000Y-39192661D01*
X52400000Y-39087339D01*
X52372741Y-38985606D01*
X52320080Y-38894394D01*
X52315686Y-38890000D01*
X53474115Y-38890000D01*
X53474115Y-38889999D01*
X53472914Y-38882415D01*
X53419408Y-38717742D01*
X53350139Y-38581796D01*
X53337242Y-38513126D01*
X53363518Y-38448386D01*
X53420624Y-38408128D01*
X53460623Y-38401500D01*
X57422920Y-38401500D01*
X57520462Y-38382096D01*
X57567913Y-38372658D01*
X57704495Y-38316084D01*
X57767320Y-38274106D01*
X57827416Y-38233952D01*
X58087820Y-37973546D01*
X58149141Y-37940063D01*
X58218833Y-37945047D01*
G37*
%TD.AperFunction*%
%TA.AperFunction,Conductor*%
G36*
X48441539Y-49521185D02*
G01*
X48487294Y-49573989D01*
X48498500Y-49625500D01*
X48498500Y-52263049D01*
X48478815Y-52330088D01*
X48426011Y-52375843D01*
X48356853Y-52385787D01*
X48327052Y-52377612D01*
X48311916Y-52371343D01*
X48311907Y-52371340D01*
X48166920Y-52342500D01*
X48166918Y-52342500D01*
X47801039Y-52342500D01*
X47734000Y-52322815D01*
X47690554Y-52274795D01*
X47684261Y-52262445D01*
X47676433Y-52247081D01*
X47549172Y-52071922D01*
X47396078Y-51918828D01*
X47220919Y-51791567D01*
X47184613Y-51773068D01*
X47028009Y-51693273D01*
X47028006Y-51693272D01*
X46822098Y-51626370D01*
X46715175Y-51609435D01*
X46608254Y-51592500D01*
X46391746Y-51592500D01*
X46320465Y-51603790D01*
X46177901Y-51626370D01*
X45971993Y-51693272D01*
X45971990Y-51693273D01*
X45779080Y-51791567D01*
X45728386Y-51828399D01*
X45603922Y-51918828D01*
X45603920Y-51918830D01*
X45603919Y-51918830D01*
X45450829Y-52071920D01*
X45330009Y-52238214D01*
X45274678Y-52280879D01*
X45205065Y-52286858D01*
X45143270Y-52254252D01*
X45129373Y-52238214D01*
X45008788Y-52072245D01*
X45008788Y-52072244D01*
X44855755Y-51919211D01*
X44680657Y-51791994D01*
X44487817Y-51693736D01*
X44487814Y-51693735D01*
X44281983Y-51626857D01*
X44210000Y-51615456D01*
X44210000Y-52659988D01*
X44152993Y-52627075D01*
X44025826Y-52593000D01*
X43894174Y-52593000D01*
X43767007Y-52627075D01*
X43710000Y-52659988D01*
X43710000Y-51615456D01*
X43709999Y-51615456D01*
X43638016Y-51626857D01*
X43638015Y-51626857D01*
X43432185Y-51693735D01*
X43432182Y-51693736D01*
X43239342Y-51791994D01*
X43064245Y-51919211D01*
X43064244Y-51919211D01*
X42911210Y-52072245D01*
X42790626Y-52238214D01*
X42735295Y-52280879D01*
X42665682Y-52286858D01*
X42603887Y-52254252D01*
X42589994Y-52238219D01*
X42469172Y-52071922D01*
X42316078Y-51918828D01*
X42140919Y-51791567D01*
X42104613Y-51773068D01*
X41948009Y-51693273D01*
X41948006Y-51693272D01*
X41742098Y-51626370D01*
X41635175Y-51609435D01*
X41528254Y-51592500D01*
X41311746Y-51592500D01*
X41240465Y-51603790D01*
X41097901Y-51626370D01*
X40891993Y-51693272D01*
X40891990Y-51693273D01*
X40699080Y-51791567D01*
X40648386Y-51828399D01*
X40523922Y-51918828D01*
X40523920Y-51918830D01*
X40523919Y-51918830D01*
X40370830Y-52071919D01*
X40370830Y-52071920D01*
X40370828Y-52071922D01*
X40301375Y-52167516D01*
X40250318Y-52237789D01*
X40194988Y-52280454D01*
X40125374Y-52286433D01*
X40063579Y-52253827D01*
X40049682Y-52237789D01*
X39998625Y-52167516D01*
X39929172Y-52071922D01*
X39776078Y-51918828D01*
X39651614Y-51828399D01*
X39608949Y-51773068D01*
X39600500Y-51728081D01*
X39600500Y-49625500D01*
X39620185Y-49558461D01*
X39672989Y-49512706D01*
X39724500Y-49501500D01*
X48374500Y-49501500D01*
X48441539Y-49521185D01*
G37*
%TD.AperFunction*%
%TA.AperFunction,Conductor*%
G36*
X33847007Y-43941075D02*
G01*
X33814312Y-43959951D01*
X33862489Y-43918206D01*
X33914000Y-43907000D01*
X33974174Y-43907000D01*
X33847007Y-43941075D01*
G37*
%TD.AperFunction*%
%TA.AperFunction,Conductor*%
G36*
X34233039Y-43926685D02*
G01*
X34258036Y-43955534D01*
X34232993Y-43941075D01*
X34105826Y-43907000D01*
X34166000Y-43907000D01*
X34233039Y-43926685D01*
G37*
%TD.AperFunction*%
%TA.AperFunction,Conductor*%
G36*
X65442539Y-16020185D02*
G01*
X65488294Y-16072989D01*
X65499500Y-16124500D01*
X65499500Y-74375500D01*
X65479815Y-74442539D01*
X65427011Y-74488294D01*
X65375500Y-74499500D01*
X24624500Y-74499500D01*
X24557461Y-74479815D01*
X24511706Y-74427011D01*
X24500500Y-74375500D01*
X24500500Y-66993389D01*
X25099500Y-66993389D01*
X25099500Y-67166610D01*
X25126166Y-67334977D01*
X25126598Y-67337701D01*
X25180127Y-67502445D01*
X25258768Y-67656788D01*
X25360586Y-67796928D01*
X25483072Y-67919414D01*
X25623212Y-68021232D01*
X25777555Y-68099873D01*
X25942299Y-68153402D01*
X26113389Y-68180500D01*
X26113390Y-68180500D01*
X27086610Y-68180500D01*
X27086611Y-68180500D01*
X27257701Y-68153402D01*
X27422445Y-68099873D01*
X27576788Y-68021232D01*
X27716928Y-67919414D01*
X27839414Y-67796928D01*
X27941232Y-67656788D01*
X28019873Y-67502445D01*
X28073402Y-67337701D01*
X28100500Y-67166611D01*
X28100500Y-66993389D01*
X28073402Y-66822299D01*
X28019873Y-66657555D01*
X27941232Y-66503212D01*
X27839414Y-66363072D01*
X27716928Y-66240586D01*
X27576788Y-66138768D01*
X27422445Y-66060127D01*
X27257701Y-66006598D01*
X27257699Y-66006597D01*
X27257698Y-66006597D01*
X27126271Y-65985781D01*
X27086611Y-65979500D01*
X26113389Y-65979500D01*
X26073728Y-65985781D01*
X25942302Y-66006597D01*
X25777552Y-66060128D01*
X25623211Y-66138768D01*
X25543256Y-66196859D01*
X25483072Y-66240586D01*
X25483070Y-66240588D01*
X25483069Y-66240588D01*
X25360588Y-66363069D01*
X25360588Y-66363070D01*
X25360586Y-66363072D01*
X25316859Y-66423256D01*
X25258768Y-66503211D01*
X25180128Y-66657552D01*
X25126597Y-66822302D01*
X25099500Y-66993389D01*
X24500500Y-66993389D01*
X24500500Y-46673389D01*
X25099500Y-46673389D01*
X25099500Y-46846611D01*
X25126598Y-47017701D01*
X25180127Y-47182445D01*
X25258768Y-47336788D01*
X25360586Y-47476928D01*
X25483072Y-47599414D01*
X25623212Y-47701232D01*
X25777555Y-47779873D01*
X25942299Y-47833402D01*
X26113389Y-47860500D01*
X26113390Y-47860500D01*
X27086610Y-47860500D01*
X27086611Y-47860500D01*
X27257701Y-47833402D01*
X27422445Y-47779873D01*
X27576788Y-47701232D01*
X27716928Y-47599414D01*
X27839414Y-47476928D01*
X27886868Y-47411613D01*
X27942197Y-47368949D01*
X27987185Y-47360500D01*
X35153331Y-47360500D01*
X35153347Y-47360501D01*
X35160943Y-47360501D01*
X35319054Y-47360501D01*
X35319057Y-47360501D01*
X35471785Y-47319577D01*
X35521904Y-47290639D01*
X35608716Y-47240520D01*
X35720520Y-47128716D01*
X35720520Y-47128714D01*
X35730728Y-47118507D01*
X35730730Y-47118504D01*
X36948713Y-45900521D01*
X36948716Y-45900520D01*
X36989939Y-45859296D01*
X36989953Y-45859288D01*
X37039297Y-45829050D01*
X37108009Y-45806726D01*
X37300919Y-45708433D01*
X37476078Y-45581172D01*
X37629172Y-45428078D01*
X37749683Y-45262208D01*
X37805012Y-45219545D01*
X37874625Y-45213566D01*
X37936420Y-45246172D01*
X37950313Y-45262205D01*
X38070828Y-45428078D01*
X38223922Y-45581172D01*
X38399081Y-45708433D01*
X38451794Y-45735291D01*
X38502590Y-45783264D01*
X38519500Y-45845776D01*
X38519500Y-48098023D01*
X38515350Y-48113511D01*
X38516005Y-48127255D01*
X38502888Y-48160021D01*
X38480097Y-48199498D01*
X38480096Y-48199500D01*
X38440423Y-48268215D01*
X38399499Y-48420943D01*
X38399499Y-48579057D01*
X38400575Y-48583072D01*
X38436704Y-48717907D01*
X38436704Y-48782093D01*
X38399499Y-48920943D01*
X38399499Y-49089046D01*
X38399500Y-49089059D01*
X38399500Y-51593080D01*
X38379815Y-51660119D01*
X38331796Y-51703563D01*
X38283679Y-51728081D01*
X38159080Y-51791567D01*
X38108386Y-51828399D01*
X37983922Y-51918828D01*
X37983920Y-51918830D01*
X37983919Y-51918830D01*
X37830830Y-52071919D01*
X37830830Y-52071920D01*
X37830828Y-52071922D01*
X37761375Y-52167516D01*
X37710318Y-52237789D01*
X37654988Y-52280454D01*
X37585374Y-52286433D01*
X37523579Y-52253827D01*
X37509682Y-52237789D01*
X37458625Y-52167516D01*
X37389172Y-52071922D01*
X37236078Y-51918828D01*
X37060919Y-51791567D01*
X37024613Y-51773068D01*
X36868009Y-51693273D01*
X36868006Y-51693272D01*
X36662098Y-51626370D01*
X36480302Y-51597576D01*
X36417167Y-51567647D01*
X36412019Y-51562784D01*
X34987590Y-50138355D01*
X34987588Y-50138352D01*
X34868717Y-50019481D01*
X34868716Y-50019480D01*
X34781904Y-49969360D01*
X34781904Y-49969359D01*
X34781900Y-49969358D01*
X34731785Y-49940423D01*
X34579057Y-49899499D01*
X34420943Y-49899499D01*
X34413347Y-49899499D01*
X34413331Y-49899500D01*
X34413100Y-49899500D01*
X34346061Y-49879815D01*
X34300306Y-49827011D01*
X34289100Y-49775500D01*
X34289100Y-49657211D01*
X34269304Y-49557701D01*
X34256795Y-49494818D01*
X34193428Y-49341848D01*
X34101433Y-49204180D01*
X34101432Y-49204179D01*
X34101429Y-49204175D01*
X33984348Y-49087108D01*
X33984343Y-49087104D01*
X33846671Y-48995129D01*
X33846666Y-48995127D01*
X33693691Y-48931777D01*
X33531289Y-48899490D01*
X33448514Y-48899499D01*
X33448505Y-48899500D01*
X33409086Y-48899500D01*
X33408939Y-48899491D01*
X33379898Y-48899494D01*
X33379806Y-48899467D01*
X33245726Y-48899482D01*
X33245725Y-48899482D01*
X33083351Y-48931796D01*
X32930399Y-48995167D01*
X32857472Y-49043903D01*
X32790796Y-49064785D01*
X32723415Y-49046305D01*
X32719692Y-49043913D01*
X32646670Y-48995129D01*
X32646669Y-48995128D01*
X32493691Y-48931777D01*
X32331289Y-48899490D01*
X32248514Y-48899499D01*
X32248505Y-48899500D01*
X32209086Y-48899500D01*
X32208939Y-48899491D01*
X32179898Y-48899494D01*
X32179806Y-48899467D01*
X32045726Y-48899482D01*
X32045725Y-48899482D01*
X31883351Y-48931796D01*
X31730399Y-48995167D01*
X31657472Y-49043903D01*
X31590796Y-49064785D01*
X31523415Y-49046305D01*
X31519692Y-49043913D01*
X31446670Y-48995129D01*
X31446669Y-48995128D01*
X31293691Y-48931777D01*
X31131289Y-48899490D01*
X31048514Y-48899499D01*
X31048505Y-48899500D01*
X31009086Y-48899500D01*
X31008939Y-48899491D01*
X30979898Y-48899494D01*
X30979806Y-48899467D01*
X30845726Y-48899482D01*
X30845725Y-48899482D01*
X30683351Y-48931796D01*
X30530398Y-48995167D01*
X30392759Y-49087149D01*
X30392751Y-49087156D01*
X30275698Y-49204222D01*
X30275692Y-49204229D01*
X30183725Y-49341880D01*
X30183719Y-49341891D01*
X30120370Y-49494840D01*
X30120369Y-49494843D01*
X30120369Y-49494844D01*
X30088074Y-49657211D01*
X30088072Y-49657222D01*
X30088073Y-49700423D01*
X30088073Y-49775500D01*
X30068388Y-49842539D01*
X30015584Y-49888294D01*
X29964073Y-49899500D01*
X28579057Y-49899500D01*
X28420943Y-49899500D01*
X28268215Y-49940423D01*
X28268214Y-49940423D01*
X28268212Y-49940424D01*
X28268209Y-49940425D01*
X28218475Y-49969140D01*
X28218375Y-49969197D01*
X28218095Y-49969360D01*
X28131284Y-50019480D01*
X28130005Y-50020758D01*
X28121608Y-50025658D01*
X28094987Y-50032244D01*
X28069405Y-50042128D01*
X28061557Y-50040516D01*
X28053784Y-50042440D01*
X28027831Y-50033590D01*
X28000964Y-50028073D01*
X27995233Y-50022475D01*
X27987653Y-50019890D01*
X27970602Y-49998411D01*
X27950986Y-49979247D01*
X27949192Y-49971440D01*
X27944212Y-49965167D01*
X27941480Y-49937880D01*
X27935339Y-49911152D01*
X27937872Y-49901834D01*
X27937253Y-49895644D01*
X27942187Y-49885963D01*
X27948631Y-49862265D01*
X28019873Y-49722445D01*
X28073402Y-49557701D01*
X28100500Y-49386611D01*
X28100500Y-49213389D01*
X28073402Y-49042299D01*
X28019873Y-48877555D01*
X27941232Y-48723212D01*
X27839414Y-48583072D01*
X27716928Y-48460586D01*
X27576788Y-48358768D01*
X27422445Y-48280127D01*
X27257701Y-48226598D01*
X27257699Y-48226597D01*
X27257698Y-48226597D01*
X27126271Y-48205781D01*
X27086611Y-48199500D01*
X26113389Y-48199500D01*
X26073728Y-48205781D01*
X25942302Y-48226597D01*
X25777552Y-48280128D01*
X25623211Y-48358768D01*
X25543256Y-48416859D01*
X25483072Y-48460586D01*
X25483070Y-48460588D01*
X25483069Y-48460588D01*
X25360588Y-48583069D01*
X25360588Y-48583070D01*
X25360586Y-48583072D01*
X25346256Y-48602796D01*
X25258768Y-48723211D01*
X25180128Y-48877552D01*
X25126597Y-49042302D01*
X25099500Y-49213389D01*
X25099500Y-49386610D01*
X25117696Y-49501500D01*
X25126598Y-49557701D01*
X25180127Y-49722445D01*
X25258768Y-49876788D01*
X25360586Y-50016928D01*
X25483072Y-50139414D01*
X25623212Y-50241232D01*
X25777555Y-50319873D01*
X25942299Y-50373402D01*
X26113389Y-50400500D01*
X26113390Y-50400500D01*
X27086610Y-50400500D01*
X27086611Y-50400500D01*
X27257701Y-50373402D01*
X27422445Y-50319873D01*
X27557629Y-50250993D01*
X27626296Y-50238098D01*
X27691037Y-50264374D01*
X27731294Y-50321480D01*
X27734286Y-50391286D01*
X27701603Y-50449160D01*
X27406883Y-50743880D01*
X27345560Y-50777365D01*
X27280884Y-50774130D01*
X27257704Y-50766598D01*
X27114265Y-50743880D01*
X27086611Y-50739500D01*
X26113389Y-50739500D01*
X26085735Y-50743880D01*
X25942302Y-50766597D01*
X25942299Y-50766598D01*
X25846849Y-50797612D01*
X25777552Y-50820128D01*
X25623211Y-50898768D01*
X25543256Y-50956859D01*
X25483072Y-51000586D01*
X25483070Y-51000588D01*
X25483069Y-51000588D01*
X25360588Y-51123069D01*
X25360588Y-51123070D01*
X25360586Y-51123072D01*
X25316859Y-51183256D01*
X25258768Y-51263211D01*
X25180128Y-51417552D01*
X25126597Y-51582302D01*
X25099500Y-51753389D01*
X25099500Y-51926610D01*
X25122514Y-52071920D01*
X25126598Y-52097701D01*
X25172115Y-52237788D01*
X25180128Y-52262447D01*
X25192349Y-52286433D01*
X25258768Y-52416788D01*
X25360586Y-52556928D01*
X25483072Y-52679414D01*
X25623212Y-52781232D01*
X25777555Y-52859873D01*
X25942299Y-52913402D01*
X26113389Y-52940500D01*
X26113390Y-52940500D01*
X27086610Y-52940500D01*
X27086611Y-52940500D01*
X27257701Y-52913402D01*
X27422445Y-52859873D01*
X27576788Y-52781232D01*
X27716928Y-52679414D01*
X27839414Y-52556928D01*
X27941232Y-52416788D01*
X28019873Y-52262445D01*
X28073402Y-52097701D01*
X28100500Y-51926611D01*
X28100500Y-51800096D01*
X28120185Y-51733057D01*
X28136819Y-51712415D01*
X28712416Y-51136819D01*
X28773739Y-51103334D01*
X28800097Y-51100500D01*
X30527038Y-51100500D01*
X30527630Y-51100500D01*
X30527698Y-51100481D01*
X30531291Y-51100482D01*
X30542965Y-51098161D01*
X30546057Y-51097707D01*
X30577666Y-51102154D01*
X30609479Y-51105003D01*
X30612037Y-51106990D01*
X30615245Y-51107442D01*
X30639437Y-51128278D01*
X30664654Y-51147869D01*
X30665731Y-51150924D01*
X30668186Y-51153038D01*
X30677271Y-51183638D01*
X30687896Y-51213760D01*
X30688062Y-51219984D01*
X30688072Y-51220018D01*
X30688063Y-51220046D01*
X30688073Y-51220391D01*
X30688073Y-51342513D01*
X30688098Y-51342771D01*
X30688099Y-51342776D01*
X30708293Y-51444306D01*
X30720395Y-51505146D01*
X30720394Y-51505146D01*
X30742895Y-51559472D01*
X30750361Y-51628942D01*
X30719084Y-51691420D01*
X30684628Y-51717405D01*
X30539083Y-51791565D01*
X30488386Y-51828399D01*
X30363922Y-51918828D01*
X30363920Y-51918830D01*
X30363919Y-51918830D01*
X30210830Y-52071919D01*
X30210830Y-52071920D01*
X30210828Y-52071922D01*
X30190065Y-52100500D01*
X30083567Y-52247080D01*
X29985273Y-52439990D01*
X29985272Y-52439993D01*
X29918369Y-52645904D01*
X29917234Y-52650634D01*
X29915030Y-52650105D01*
X29889069Y-52704773D01*
X29829732Y-52741664D01*
X29759870Y-52740618D01*
X29749130Y-52736738D01*
X29733501Y-52730264D01*
X29733489Y-52730261D01*
X29578845Y-52699500D01*
X29578842Y-52699500D01*
X29421158Y-52699500D01*
X29421155Y-52699500D01*
X29266510Y-52730261D01*
X29266498Y-52730264D01*
X29120827Y-52790602D01*
X29120814Y-52790609D01*
X28989711Y-52878210D01*
X28989707Y-52878213D01*
X28878213Y-52989707D01*
X28878210Y-52989711D01*
X28790609Y-53120814D01*
X28790602Y-53120827D01*
X28730264Y-53266498D01*
X28730261Y-53266508D01*
X28699361Y-53421850D01*
X28666976Y-53483761D01*
X28665425Y-53485339D01*
X28407584Y-53743181D01*
X28346261Y-53776666D01*
X28319903Y-53779500D01*
X27987185Y-53779500D01*
X27920146Y-53759815D01*
X27886867Y-53728386D01*
X27839414Y-53663072D01*
X27716928Y-53540586D01*
X27576788Y-53438768D01*
X27422445Y-53360127D01*
X27257701Y-53306598D01*
X27257699Y-53306597D01*
X27257698Y-53306597D01*
X27126271Y-53285781D01*
X27086611Y-53279500D01*
X26113389Y-53279500D01*
X26073728Y-53285781D01*
X25942302Y-53306597D01*
X25777552Y-53360128D01*
X25623211Y-53438768D01*
X25559113Y-53485339D01*
X25483072Y-53540586D01*
X25483070Y-53540588D01*
X25483069Y-53540588D01*
X25360588Y-53663069D01*
X25360588Y-53663070D01*
X25360586Y-53663072D01*
X25316859Y-53723256D01*
X25258768Y-53803211D01*
X25180128Y-53957552D01*
X25126597Y-54122302D01*
X25102719Y-54273067D01*
X25099500Y-54293389D01*
X25099500Y-54466611D01*
X25126598Y-54637701D01*
X25180127Y-54802445D01*
X25258768Y-54956788D01*
X25360586Y-55096928D01*
X25483072Y-55219414D01*
X25623212Y-55321232D01*
X25777555Y-55399873D01*
X25942299Y-55453402D01*
X26113389Y-55480500D01*
X26113390Y-55480500D01*
X27086610Y-55480500D01*
X27086611Y-55480500D01*
X27257701Y-55453402D01*
X27422445Y-55399873D01*
X27576788Y-55321232D01*
X27702616Y-55229812D01*
X27768420Y-55206333D01*
X27836474Y-55222158D01*
X27885169Y-55272264D01*
X27899500Y-55330131D01*
X27899500Y-55970485D01*
X27879815Y-56037524D01*
X27827011Y-56083279D01*
X27757853Y-56093223D01*
X27702616Y-56070804D01*
X27576527Y-55979197D01*
X27422257Y-55900591D01*
X27257584Y-55847085D01*
X27086571Y-55820000D01*
X26850000Y-55820000D01*
X26850000Y-56604314D01*
X26845606Y-56599920D01*
X26754394Y-56547259D01*
X26652661Y-56520000D01*
X26547339Y-56520000D01*
X26445606Y-56547259D01*
X26354394Y-56599920D01*
X26350000Y-56604314D01*
X26350000Y-55820000D01*
X26113429Y-55820000D01*
X25942415Y-55847085D01*
X25777742Y-55900591D01*
X25623475Y-55979195D01*
X25483397Y-56080967D01*
X25360967Y-56203397D01*
X25259195Y-56343475D01*
X25180591Y-56497744D01*
X25127085Y-56662415D01*
X25125884Y-56669999D01*
X25125885Y-56670000D01*
X26284314Y-56670000D01*
X26279920Y-56674394D01*
X26227259Y-56765606D01*
X26200000Y-56867339D01*
X26200000Y-56972661D01*
X26227259Y-57074394D01*
X26279920Y-57165606D01*
X26284314Y-57170000D01*
X25125885Y-57170000D01*
X25127085Y-57177584D01*
X25180591Y-57342255D01*
X25259195Y-57496524D01*
X25360967Y-57636602D01*
X25483397Y-57759032D01*
X25623475Y-57860804D01*
X25777742Y-57939408D01*
X25942415Y-57992914D01*
X26113429Y-58020000D01*
X26350000Y-58020000D01*
X26350000Y-57235686D01*
X26354394Y-57240080D01*
X26445606Y-57292741D01*
X26547339Y-57320000D01*
X26652661Y-57320000D01*
X26754394Y-57292741D01*
X26845606Y-57240080D01*
X26850000Y-57235686D01*
X26850000Y-58020000D01*
X27086571Y-58020000D01*
X27257584Y-57992914D01*
X27422257Y-57939408D01*
X27576528Y-57860801D01*
X27702615Y-57769196D01*
X27768422Y-57745716D01*
X27836475Y-57761542D01*
X27885170Y-57811648D01*
X27899500Y-57869514D01*
X27899500Y-58509868D01*
X27879815Y-58576907D01*
X27827011Y-58622662D01*
X27757853Y-58632606D01*
X27702615Y-58610186D01*
X27576791Y-58518770D01*
X27576790Y-58518769D01*
X27576788Y-58518768D01*
X27422445Y-58440127D01*
X27257701Y-58386598D01*
X27257699Y-58386597D01*
X27257698Y-58386597D01*
X27126271Y-58365781D01*
X27086611Y-58359500D01*
X26113389Y-58359500D01*
X26073728Y-58365781D01*
X25942302Y-58386597D01*
X25777552Y-58440128D01*
X25623211Y-58518768D01*
X25609313Y-58528866D01*
X25483072Y-58620586D01*
X25483070Y-58620588D01*
X25483069Y-58620588D01*
X25360588Y-58743069D01*
X25360588Y-58743070D01*
X25360586Y-58743072D01*
X25337607Y-58774700D01*
X25258768Y-58883211D01*
X25180128Y-59037552D01*
X25126597Y-59202302D01*
X25099500Y-59373389D01*
X25099500Y-59546610D01*
X25120432Y-59678774D01*
X25126598Y-59717701D01*
X25180127Y-59882445D01*
X25258768Y-60036788D01*
X25360586Y-60176928D01*
X25483072Y-60299414D01*
X25623212Y-60401232D01*
X25777555Y-60479873D01*
X25942299Y-60533402D01*
X26113389Y-60560500D01*
X26113390Y-60560500D01*
X27086608Y-60560500D01*
X27086611Y-60560500D01*
X27131819Y-60553339D01*
X27137242Y-60554040D01*
X27142369Y-60552128D01*
X27171521Y-60558469D01*
X27201109Y-60562293D01*
X27206713Y-60566125D01*
X27210642Y-60566980D01*
X27238896Y-60588131D01*
X27363181Y-60712416D01*
X27396666Y-60773739D01*
X27399500Y-60800097D01*
X27399500Y-60803871D01*
X27392904Y-60826331D01*
X27391682Y-60843431D01*
X27385432Y-60851779D01*
X27379815Y-60870910D01*
X27355040Y-60892377D01*
X27349810Y-60899364D01*
X27344836Y-60901218D01*
X27327011Y-60916665D01*
X27288627Y-60922184D01*
X27284346Y-60923781D01*
X27281630Y-60923190D01*
X27257853Y-60926609D01*
X27256103Y-60926344D01*
X27086611Y-60899500D01*
X26113389Y-60899500D01*
X26073728Y-60905781D01*
X25942302Y-60926597D01*
X25777552Y-60980128D01*
X25623211Y-61058768D01*
X25543256Y-61116859D01*
X25483072Y-61160586D01*
X25483070Y-61160588D01*
X25483069Y-61160588D01*
X25360588Y-61283069D01*
X25360588Y-61283070D01*
X25360586Y-61283072D01*
X25316859Y-61343256D01*
X25258768Y-61423211D01*
X25180128Y-61577552D01*
X25126597Y-61742302D01*
X25104697Y-61880577D01*
X25099500Y-61913389D01*
X25099500Y-62086611D01*
X25126598Y-62257701D01*
X25180127Y-62422445D01*
X25258768Y-62576788D01*
X25360586Y-62716928D01*
X25483072Y-62839414D01*
X25623212Y-62941232D01*
X25777555Y-63019873D01*
X25942299Y-63073402D01*
X26113389Y-63100500D01*
X26113390Y-63100500D01*
X27086610Y-63100500D01*
X27086611Y-63100500D01*
X27257701Y-63073402D01*
X27262471Y-63071851D01*
X27269204Y-63071659D01*
X27275138Y-63068464D01*
X27303688Y-63070672D01*
X27332311Y-63069853D01*
X27338081Y-63073332D01*
X27344799Y-63073852D01*
X27367621Y-63091144D01*
X27392145Y-63105931D01*
X27396433Y-63112973D01*
X27400489Y-63116047D01*
X27408807Y-63133297D01*
X27417224Y-63147122D01*
X27419134Y-63152335D01*
X27440423Y-63231785D01*
X27456469Y-63259577D01*
X27461826Y-63268855D01*
X27487974Y-63314146D01*
X27504445Y-63382047D01*
X27481593Y-63448073D01*
X27426671Y-63491263D01*
X27357117Y-63497904D01*
X27342272Y-63494077D01*
X27257701Y-63466598D01*
X27257699Y-63466597D01*
X27257698Y-63466597D01*
X27126271Y-63445781D01*
X27086611Y-63439500D01*
X26113389Y-63439500D01*
X26073728Y-63445781D01*
X25942302Y-63466597D01*
X25777552Y-63520128D01*
X25623211Y-63598768D01*
X25572184Y-63635842D01*
X25483072Y-63700586D01*
X25483070Y-63700588D01*
X25483069Y-63700588D01*
X25360588Y-63823069D01*
X25360588Y-63823070D01*
X25360586Y-63823072D01*
X25334845Y-63858501D01*
X25258768Y-63963211D01*
X25180128Y-64117552D01*
X25126597Y-64282302D01*
X25099500Y-64453389D01*
X25099500Y-64626610D01*
X25118645Y-64747491D01*
X25126598Y-64797701D01*
X25180127Y-64962445D01*
X25258768Y-65116788D01*
X25360586Y-65256928D01*
X25483072Y-65379414D01*
X25623212Y-65481232D01*
X25777555Y-65559873D01*
X25942299Y-65613402D01*
X26113389Y-65640500D01*
X26113390Y-65640500D01*
X27086610Y-65640500D01*
X27086611Y-65640500D01*
X27257701Y-65613402D01*
X27422445Y-65559873D01*
X27576788Y-65481232D01*
X27716928Y-65379414D01*
X27839414Y-65256928D01*
X27893665Y-65182258D01*
X35329500Y-65182258D01*
X35329500Y-66911741D01*
X35339892Y-66990669D01*
X35359452Y-67139238D01*
X35411900Y-67334977D01*
X35418842Y-67360887D01*
X35506650Y-67572876D01*
X35506657Y-67572890D01*
X35621392Y-67771617D01*
X35761081Y-67953661D01*
X35761089Y-67953670D01*
X35923330Y-68115911D01*
X35923338Y-68115918D01*
X36105382Y-68255607D01*
X36105385Y-68255608D01*
X36105388Y-68255611D01*
X36304112Y-68370344D01*
X36304117Y-68370346D01*
X36304123Y-68370349D01*
X36346044Y-68387713D01*
X36516113Y-68458158D01*
X36737762Y-68517548D01*
X36965266Y-68547500D01*
X36965273Y-68547500D01*
X37194727Y-68547500D01*
X37194734Y-68547500D01*
X37422238Y-68517548D01*
X37643887Y-68458158D01*
X37855888Y-68370344D01*
X38054612Y-68255611D01*
X38236661Y-68115919D01*
X38236665Y-68115914D01*
X38236670Y-68115911D01*
X38398911Y-67953670D01*
X38398914Y-67953665D01*
X38398919Y-67953661D01*
X38538611Y-67771612D01*
X38653344Y-67572888D01*
X38715439Y-67422976D01*
X38759279Y-67368573D01*
X38825574Y-67346508D01*
X38893273Y-67363787D01*
X38940884Y-67414924D01*
X38944561Y-67422977D01*
X39006650Y-67572876D01*
X39006657Y-67572890D01*
X39121392Y-67771617D01*
X39261081Y-67953661D01*
X39261089Y-67953670D01*
X39423330Y-68115911D01*
X39423338Y-68115918D01*
X39605382Y-68255607D01*
X39605385Y-68255608D01*
X39605388Y-68255611D01*
X39804112Y-68370344D01*
X39804117Y-68370346D01*
X39804123Y-68370349D01*
X39846044Y-68387713D01*
X40016113Y-68458158D01*
X40237762Y-68517548D01*
X40465266Y-68547500D01*
X40465273Y-68547500D01*
X40694727Y-68547500D01*
X40694734Y-68547500D01*
X40922238Y-68517548D01*
X41143887Y-68458158D01*
X41355888Y-68370344D01*
X41554612Y-68255611D01*
X41736661Y-68115919D01*
X41736665Y-68115914D01*
X41736670Y-68115911D01*
X41898911Y-67953670D01*
X41898914Y-67953665D01*
X41898919Y-67953661D01*
X42038611Y-67771612D01*
X42153344Y-67572888D01*
X42241158Y-67360887D01*
X42300548Y-67139238D01*
X42330500Y-66911734D01*
X42330500Y-65182266D01*
X42300548Y-64954762D01*
X42241158Y-64733113D01*
X42153344Y-64521112D01*
X42038611Y-64322388D01*
X42038608Y-64322385D01*
X42038607Y-64322382D01*
X41937764Y-64190962D01*
X41898919Y-64140339D01*
X41898918Y-64140338D01*
X41898911Y-64140330D01*
X41736670Y-63978089D01*
X41736661Y-63978081D01*
X41554617Y-63838392D01*
X41528078Y-63823070D01*
X41355888Y-63723656D01*
X41355876Y-63723650D01*
X41143887Y-63635842D01*
X40922238Y-63576452D01*
X40884215Y-63571446D01*
X40694741Y-63546500D01*
X40694734Y-63546500D01*
X40465266Y-63546500D01*
X40465258Y-63546500D01*
X40248715Y-63575009D01*
X40237762Y-63576452D01*
X40154477Y-63598768D01*
X40016112Y-63635842D01*
X39804123Y-63723650D01*
X39804109Y-63723657D01*
X39605382Y-63838392D01*
X39423338Y-63978081D01*
X39261081Y-64140338D01*
X39121392Y-64322382D01*
X39006657Y-64521109D01*
X39006650Y-64521123D01*
X38944561Y-64671022D01*
X38900720Y-64725426D01*
X38834426Y-64747491D01*
X38766727Y-64730212D01*
X38719116Y-64679075D01*
X38715439Y-64671022D01*
X38653349Y-64521123D01*
X38653346Y-64521117D01*
X38653344Y-64521112D01*
X38538611Y-64322388D01*
X38538608Y-64322385D01*
X38538607Y-64322382D01*
X38437764Y-64190962D01*
X38398919Y-64140339D01*
X38398918Y-64140338D01*
X38398911Y-64140330D01*
X38236670Y-63978089D01*
X38236661Y-63978081D01*
X38054617Y-63838392D01*
X38028078Y-63823070D01*
X37855888Y-63723656D01*
X37855876Y-63723650D01*
X37643887Y-63635842D01*
X37422238Y-63576452D01*
X37384215Y-63571446D01*
X37194741Y-63546500D01*
X37194734Y-63546500D01*
X36965266Y-63546500D01*
X36965258Y-63546500D01*
X36748715Y-63575009D01*
X36737762Y-63576452D01*
X36654477Y-63598768D01*
X36516112Y-63635842D01*
X36304123Y-63723650D01*
X36304109Y-63723657D01*
X36105382Y-63838392D01*
X35923338Y-63978081D01*
X35761081Y-64140338D01*
X35621392Y-64322382D01*
X35506657Y-64521109D01*
X35506650Y-64521123D01*
X35418842Y-64733112D01*
X35418842Y-64733113D01*
X35359452Y-64954762D01*
X35358440Y-64962447D01*
X35329500Y-65182258D01*
X27893665Y-65182258D01*
X27941232Y-65116788D01*
X28019873Y-64962445D01*
X28073402Y-64797701D01*
X28100500Y-64626611D01*
X28100500Y-64453389D01*
X28073402Y-64282299D01*
X28039161Y-64176919D01*
X28037167Y-64107080D01*
X28073247Y-64047247D01*
X28135948Y-64016419D01*
X28205362Y-64024384D01*
X28219091Y-64031215D01*
X28268216Y-64059577D01*
X28420943Y-64100501D01*
X28420945Y-64100501D01*
X28586654Y-64100501D01*
X28586670Y-64100500D01*
X32913331Y-64100500D01*
X32913347Y-64100501D01*
X32920943Y-64100501D01*
X33079054Y-64100501D01*
X33079057Y-64100501D01*
X33231785Y-64059577D01*
X33281904Y-64030639D01*
X33368716Y-63980520D01*
X33480520Y-63868716D01*
X33480520Y-63868714D01*
X33490728Y-63858507D01*
X33490730Y-63858504D01*
X34158506Y-63190728D01*
X34158511Y-63190724D01*
X34168714Y-63180520D01*
X34168716Y-63180520D01*
X34280520Y-63068716D01*
X34331440Y-62980519D01*
X34359577Y-62931785D01*
X34400501Y-62779057D01*
X34400501Y-62620943D01*
X34400501Y-62613348D01*
X34400500Y-62613330D01*
X34400500Y-59729520D01*
X34400500Y-59728866D01*
X34400484Y-59728808D01*
X34400485Y-59725196D01*
X34398156Y-59713486D01*
X34397699Y-59710354D01*
X34402165Y-59678774D01*
X34405011Y-59647011D01*
X34407023Y-59644420D01*
X34407483Y-59641173D01*
X34428314Y-59617018D01*
X34447880Y-59591838D01*
X34450972Y-59590747D01*
X34453115Y-59588263D01*
X34483700Y-59579205D01*
X34513772Y-59568600D01*
X34520080Y-59568431D01*
X34520109Y-59568423D01*
X34520133Y-59568430D01*
X34520396Y-59568423D01*
X34642554Y-59568423D01*
X34642776Y-59568401D01*
X34642776Y-59568400D01*
X34642777Y-59568401D01*
X34805150Y-59536105D01*
X34958104Y-59472754D01*
X35095760Y-59380782D01*
X35212830Y-59263723D01*
X35304815Y-59126075D01*
X35368181Y-58973128D01*
X35400493Y-58810758D01*
X35400493Y-58807004D01*
X35400500Y-58806980D01*
X35400500Y-58723013D01*
X35400507Y-58655067D01*
X35400506Y-58655064D01*
X35400507Y-58647794D01*
X35400500Y-58647658D01*
X35400500Y-58525345D01*
X35400485Y-58525198D01*
X35383571Y-58440128D01*
X35368197Y-58362805D01*
X35304848Y-58209834D01*
X35266215Y-58152009D01*
X35256058Y-58136805D01*
X35235184Y-58070126D01*
X35253672Y-58002747D01*
X35256051Y-57999046D01*
X35304815Y-57926075D01*
X35368181Y-57773128D01*
X35400493Y-57610758D01*
X35400493Y-57607004D01*
X35400500Y-57606980D01*
X35400500Y-57523013D01*
X35400507Y-57455067D01*
X35400506Y-57455064D01*
X35400507Y-57447794D01*
X35400500Y-57447658D01*
X35400500Y-57325345D01*
X35400485Y-57325198D01*
X35400485Y-57325196D01*
X35368197Y-57162805D01*
X35304848Y-57009834D01*
X35256058Y-56936805D01*
X35235184Y-56870126D01*
X35253672Y-56802747D01*
X35256051Y-56799046D01*
X35304815Y-56726075D01*
X35368181Y-56573128D01*
X35400493Y-56410758D01*
X35400493Y-56407004D01*
X35400500Y-56406980D01*
X35400500Y-56323013D01*
X35400507Y-56255067D01*
X35400506Y-56255064D01*
X35400507Y-56247794D01*
X35400500Y-56247658D01*
X35400500Y-56125345D01*
X35400485Y-56125198D01*
X35400485Y-56125196D01*
X35368197Y-55962805D01*
X35304848Y-55809834D01*
X35292119Y-55790782D01*
X35245626Y-55721191D01*
X35212870Y-55672162D01*
X35188503Y-55647793D01*
X35095802Y-55555082D01*
X35095799Y-55555080D01*
X34958138Y-55463091D01*
X34805750Y-55399965D01*
X34751348Y-55356122D01*
X34729285Y-55289827D01*
X34746566Y-55222128D01*
X34765518Y-55197731D01*
X34849172Y-55114078D01*
X34969683Y-54948208D01*
X35025012Y-54905545D01*
X35094625Y-54899566D01*
X35156420Y-54932172D01*
X35170313Y-54948205D01*
X35290828Y-55114078D01*
X35443922Y-55267172D01*
X35619081Y-55394433D01*
X35671791Y-55421290D01*
X35811990Y-55492726D01*
X35811993Y-55492727D01*
X35914947Y-55526178D01*
X36017903Y-55559630D01*
X36231746Y-55593500D01*
X36231747Y-55593500D01*
X36448253Y-55593500D01*
X36448254Y-55593500D01*
X36662097Y-55559630D01*
X36868009Y-55492726D01*
X37060919Y-55394433D01*
X37236078Y-55267172D01*
X37389172Y-55114078D01*
X37509683Y-54948208D01*
X37565012Y-54905545D01*
X37634625Y-54899566D01*
X37696420Y-54932172D01*
X37710313Y-54948205D01*
X37830828Y-55114078D01*
X37983922Y-55267172D01*
X38159081Y-55394433D01*
X38211791Y-55421290D01*
X38351990Y-55492726D01*
X38351993Y-55492727D01*
X38454947Y-55526178D01*
X38557903Y-55559630D01*
X38771746Y-55593500D01*
X38771747Y-55593500D01*
X38988253Y-55593500D01*
X38988254Y-55593500D01*
X39202097Y-55559630D01*
X39408009Y-55492726D01*
X39600919Y-55394433D01*
X39776078Y-55267172D01*
X39929172Y-55114078D01*
X40049683Y-54948208D01*
X40105012Y-54905545D01*
X40174625Y-54899566D01*
X40236420Y-54932172D01*
X40250313Y-54948205D01*
X40370828Y-55114078D01*
X40523922Y-55267172D01*
X40699081Y-55394433D01*
X40751791Y-55421290D01*
X40891990Y-55492726D01*
X40891993Y-55492727D01*
X40994947Y-55526178D01*
X41097903Y-55559630D01*
X41311746Y-55593500D01*
X41311747Y-55593500D01*
X41528253Y-55593500D01*
X41528254Y-55593500D01*
X41742097Y-55559630D01*
X41948009Y-55492726D01*
X42140919Y-55394433D01*
X42316078Y-55267172D01*
X42469172Y-55114078D01*
X42589991Y-54947784D01*
X42645320Y-54905120D01*
X42714933Y-54899141D01*
X42776728Y-54931747D01*
X42790626Y-54947785D01*
X42911211Y-55113754D01*
X42911211Y-55113755D01*
X43064244Y-55266788D01*
X43239342Y-55394005D01*
X43432182Y-55492263D01*
X43432185Y-55492264D01*
X43638017Y-55559142D01*
X43710000Y-55570543D01*
X43710000Y-53526012D01*
X43767007Y-53558925D01*
X43894174Y-53593000D01*
X44025826Y-53593000D01*
X44152993Y-53558925D01*
X44210000Y-53526012D01*
X44210000Y-55570542D01*
X44281980Y-55559142D01*
X44281983Y-55559142D01*
X44487814Y-55492264D01*
X44487817Y-55492263D01*
X44680657Y-55394005D01*
X44855754Y-55266788D01*
X44855755Y-55266788D01*
X45008788Y-55113755D01*
X45008793Y-55113749D01*
X45129373Y-54947786D01*
X45184703Y-54905120D01*
X45254316Y-54899141D01*
X45316111Y-54931747D01*
X45330006Y-54947781D01*
X45450828Y-55114078D01*
X45603922Y-55267172D01*
X45779081Y-55394433D01*
X45831791Y-55421290D01*
X45971990Y-55492726D01*
X45971993Y-55492727D01*
X46074947Y-55526178D01*
X46177903Y-55559630D01*
X46391746Y-55593500D01*
X46391747Y-55593500D01*
X46608253Y-55593500D01*
X46608254Y-55593500D01*
X46822097Y-55559630D01*
X47028009Y-55492726D01*
X47220919Y-55394433D01*
X47396078Y-55267172D01*
X47486819Y-55176431D01*
X47548142Y-55142946D01*
X47617834Y-55147930D01*
X47673767Y-55189802D01*
X47698184Y-55255266D01*
X47698500Y-55264112D01*
X47698500Y-68974500D01*
X47678815Y-69041539D01*
X47626011Y-69087294D01*
X47574500Y-69098500D01*
X29352651Y-69098500D01*
X29285612Y-69078815D01*
X29264974Y-69062185D01*
X29162162Y-68959373D01*
X29162161Y-68959372D01*
X29162160Y-68959371D01*
X29022866Y-68866297D01*
X29022863Y-68866296D01*
X28907207Y-68818390D01*
X28907205Y-68818389D01*
X28868086Y-68802185D01*
X28868074Y-68802182D01*
X28703771Y-68769500D01*
X28703767Y-68769500D01*
X27741960Y-68769500D01*
X27674921Y-68749815D01*
X27669074Y-68745818D01*
X27576788Y-68678768D01*
X27422447Y-68600128D01*
X27422446Y-68600127D01*
X27422445Y-68600127D01*
X27257701Y-68546598D01*
X27257699Y-68546597D01*
X27257698Y-68546597D01*
X27126271Y-68525781D01*
X27086611Y-68519500D01*
X26113389Y-68519500D01*
X26073728Y-68525781D01*
X25942302Y-68546597D01*
X25777552Y-68600128D01*
X25623211Y-68678768D01*
X25548870Y-68732781D01*
X25483072Y-68780586D01*
X25483070Y-68780588D01*
X25483069Y-68780588D01*
X25360588Y-68903069D01*
X25360588Y-68903070D01*
X25360586Y-68903072D01*
X25319682Y-68959371D01*
X25258768Y-69043211D01*
X25180128Y-69197552D01*
X25126597Y-69362302D01*
X25099500Y-69533389D01*
X25099500Y-69706610D01*
X25126166Y-69874977D01*
X25126598Y-69877701D01*
X25180127Y-70042445D01*
X25258768Y-70196788D01*
X25360586Y-70336928D01*
X25483072Y-70459414D01*
X25623212Y-70561232D01*
X25777555Y-70639873D01*
X25942299Y-70693402D01*
X26113389Y-70720500D01*
X26113390Y-70720500D01*
X27086610Y-70720500D01*
X27086611Y-70720500D01*
X27257701Y-70693402D01*
X27422445Y-70639873D01*
X27576788Y-70561232D01*
X27669074Y-70494182D01*
X27734881Y-70470702D01*
X27741960Y-70470500D01*
X28216350Y-70470500D01*
X28245790Y-70479144D01*
X28275777Y-70485668D01*
X28280792Y-70489422D01*
X28283389Y-70490185D01*
X28304031Y-70506819D01*
X28335032Y-70537820D01*
X28335053Y-70537843D01*
X28457834Y-70660624D01*
X28457838Y-70660627D01*
X28597133Y-70753702D01*
X28597135Y-70753702D01*
X28597137Y-70753704D01*
X28751919Y-70817816D01*
X28751921Y-70817816D01*
X28751926Y-70817818D01*
X28916228Y-70850499D01*
X28916232Y-70850500D01*
X28916233Y-70850500D01*
X29083768Y-70850500D01*
X29083769Y-70850499D01*
X29248081Y-70817816D01*
X29258367Y-70813555D01*
X29269513Y-70808939D01*
X29316965Y-70799500D01*
X48045349Y-70799500D01*
X48112388Y-70819185D01*
X48133030Y-70835819D01*
X48839374Y-71542162D01*
X48957838Y-71660626D01*
X48992729Y-71683939D01*
X48999915Y-71690589D01*
X49000489Y-71691550D01*
X49003378Y-71693921D01*
X49306074Y-71996616D01*
X49321495Y-72015407D01*
X49339369Y-72042157D01*
X49339375Y-72042165D01*
X50457834Y-73160624D01*
X50457842Y-73160630D01*
X50597127Y-73253697D01*
X50597130Y-73253698D01*
X50597138Y-73253704D01*
X50687806Y-73291259D01*
X50751918Y-73317816D01*
X50916228Y-73350499D01*
X50916232Y-73350500D01*
X50916233Y-73350500D01*
X60083768Y-73350500D01*
X60083769Y-73350499D01*
X60138538Y-73339605D01*
X60248074Y-73317818D01*
X60248078Y-73317816D01*
X60248082Y-73317816D01*
X60293415Y-73299037D01*
X60402863Y-73253704D01*
X60542162Y-73160627D01*
X63160627Y-70542162D01*
X63253704Y-70402863D01*
X63317816Y-70248081D01*
X63327487Y-70199464D01*
X63350500Y-70083767D01*
X63350500Y-49403650D01*
X63370185Y-49336611D01*
X63386819Y-49315969D01*
X64660626Y-48042162D01*
X64675785Y-48019475D01*
X64753703Y-47902863D01*
X64787851Y-47820423D01*
X64817816Y-47748082D01*
X64850500Y-47583767D01*
X64850500Y-37916233D01*
X64817816Y-37751918D01*
X64809013Y-37730666D01*
X64796518Y-37700499D01*
X64753707Y-37597143D01*
X64753700Y-37597130D01*
X64660627Y-37457838D01*
X64660624Y-37457834D01*
X62042165Y-34839375D01*
X62042161Y-34839372D01*
X61902866Y-34746297D01*
X61902863Y-34746296D01*
X61793416Y-34700962D01*
X61793414Y-34700961D01*
X61748086Y-34682185D01*
X61748074Y-34682182D01*
X61583771Y-34649500D01*
X61583767Y-34649500D01*
X61544123Y-34649500D01*
X61477084Y-34629815D01*
X61436736Y-34587500D01*
X61416951Y-34553232D01*
X61416948Y-34553226D01*
X61281247Y-34376376D01*
X61281242Y-34376370D01*
X61123629Y-34218757D01*
X61123622Y-34218751D01*
X60946782Y-34083058D01*
X60946780Y-34083057D01*
X60946774Y-34083052D01*
X60753726Y-33971595D01*
X60753722Y-33971593D01*
X60547790Y-33886293D01*
X60547783Y-33886291D01*
X60547781Y-33886290D01*
X60332463Y-33828596D01*
X60332457Y-33828595D01*
X60332452Y-33828594D01*
X60111466Y-33799501D01*
X60111463Y-33799500D01*
X60111457Y-33799500D01*
X59888543Y-33799500D01*
X59888537Y-33799500D01*
X59888533Y-33799501D01*
X59667547Y-33828594D01*
X59667540Y-33828595D01*
X59667537Y-33828596D01*
X59572892Y-33853956D01*
X59452219Y-33886290D01*
X59452209Y-33886293D01*
X59246277Y-33971593D01*
X59246273Y-33971595D01*
X59053226Y-34083052D01*
X59053217Y-34083058D01*
X58876377Y-34218751D01*
X58876370Y-34218757D01*
X58718757Y-34376370D01*
X58718751Y-34376377D01*
X58583058Y-34553217D01*
X58583052Y-34553226D01*
X58471595Y-34746273D01*
X58471593Y-34746277D01*
X58386293Y-34952209D01*
X58386290Y-34952219D01*
X58337743Y-35133402D01*
X58328597Y-35167534D01*
X58328594Y-35167547D01*
X58299501Y-35388533D01*
X58299500Y-35388549D01*
X58299500Y-35587769D01*
X58279815Y-35654808D01*
X58263181Y-35675450D01*
X57074451Y-36864181D01*
X57013128Y-36897666D01*
X56986770Y-36900500D01*
X53611808Y-36900500D01*
X53544769Y-36880815D01*
X53499014Y-36828011D01*
X53489070Y-36758853D01*
X53489335Y-36757102D01*
X53500500Y-36686610D01*
X53500500Y-36513389D01*
X53473402Y-36342302D01*
X53473402Y-36342299D01*
X53419873Y-36177555D01*
X53341232Y-36023212D01*
X53239414Y-35883072D01*
X53116928Y-35760586D01*
X52976788Y-35658768D01*
X52822445Y-35580127D01*
X52657701Y-35526598D01*
X52657699Y-35526597D01*
X52657698Y-35526597D01*
X52526271Y-35505781D01*
X52486611Y-35499500D01*
X51513389Y-35499500D01*
X51473728Y-35505781D01*
X51342302Y-35526597D01*
X51177552Y-35580128D01*
X51023211Y-35658768D01*
X51000251Y-35675450D01*
X50883072Y-35760586D01*
X50883070Y-35760588D01*
X50883069Y-35760588D01*
X50760588Y-35883069D01*
X50760588Y-35883070D01*
X50760586Y-35883072D01*
X50716859Y-35943256D01*
X50658768Y-36023211D01*
X50580128Y-36177552D01*
X50526597Y-36342302D01*
X50499500Y-36513389D01*
X50499500Y-36686610D01*
X50510665Y-36757102D01*
X50501711Y-36826395D01*
X50456714Y-36879847D01*
X50389963Y-36900487D01*
X50388192Y-36900500D01*
X37721833Y-36900500D01*
X37576845Y-36929340D01*
X37576835Y-36929343D01*
X37440264Y-36985912D01*
X37440251Y-36985919D01*
X37317337Y-37068048D01*
X37317333Y-37068051D01*
X32323640Y-42061743D01*
X32262317Y-42095228D01*
X32192625Y-42090244D01*
X32179672Y-42084550D01*
X32098301Y-42043090D01*
X32028008Y-42007273D01*
X32028006Y-42007272D01*
X31822098Y-41940370D01*
X31715175Y-41923435D01*
X31608254Y-41906500D01*
X31391746Y-41906500D01*
X31320465Y-41917790D01*
X31177901Y-41940370D01*
X30971993Y-42007272D01*
X30971990Y-42007273D01*
X30779080Y-42105567D01*
X30679145Y-42178174D01*
X30603922Y-42232828D01*
X30603920Y-42232830D01*
X30603919Y-42232830D01*
X30450830Y-42385919D01*
X30450830Y-42385920D01*
X30450828Y-42385922D01*
X30396174Y-42461145D01*
X30323567Y-42561080D01*
X30225273Y-42753990D01*
X30225272Y-42753993D01*
X30158370Y-42959901D01*
X30124500Y-43173746D01*
X30124500Y-44640253D01*
X30158370Y-44854098D01*
X30225272Y-45060006D01*
X30225273Y-45060009D01*
X30303654Y-45213838D01*
X30323567Y-45252919D01*
X30450828Y-45428078D01*
X30603922Y-45581172D01*
X30779081Y-45708433D01*
X30841284Y-45740127D01*
X30971990Y-45806726D01*
X30971993Y-45806727D01*
X31040695Y-45829049D01*
X31177903Y-45873630D01*
X31391746Y-45907500D01*
X31391747Y-45907500D01*
X31608253Y-45907500D01*
X31608254Y-45907500D01*
X31822097Y-45873630D01*
X32028009Y-45806726D01*
X32220919Y-45708433D01*
X32396078Y-45581172D01*
X32549172Y-45428078D01*
X32669991Y-45261784D01*
X32725320Y-45219120D01*
X32794933Y-45213141D01*
X32856728Y-45245747D01*
X32870626Y-45261785D01*
X32991211Y-45427754D01*
X32991211Y-45427755D01*
X33144244Y-45580788D01*
X33319342Y-45708005D01*
X33512182Y-45806263D01*
X33512185Y-45806264D01*
X33718017Y-45873142D01*
X33790000Y-45884543D01*
X33790000Y-44840012D01*
X33847007Y-44872925D01*
X33974174Y-44907000D01*
X34105826Y-44907000D01*
X34232993Y-44872925D01*
X34290000Y-44840012D01*
X34290000Y-45884542D01*
X34361980Y-45873142D01*
X34361983Y-45873142D01*
X34567814Y-45806264D01*
X34567817Y-45806263D01*
X34760657Y-45708005D01*
X34935754Y-45580788D01*
X34935755Y-45580788D01*
X35088788Y-45427755D01*
X35088793Y-45427749D01*
X35209373Y-45261786D01*
X35230981Y-45245123D01*
X35250276Y-45225833D01*
X35258244Y-45224100D01*
X35264703Y-45219120D01*
X35291888Y-45216785D01*
X35318550Y-45210988D01*
X35326190Y-45213838D01*
X35334316Y-45213141D01*
X35358446Y-45225873D01*
X35384012Y-45235412D01*
X35392127Y-45243645D01*
X35396111Y-45245747D01*
X35408966Y-45260371D01*
X35409486Y-45261066D01*
X35530828Y-45428078D01*
X35545353Y-45442603D01*
X35550670Y-45449707D01*
X35559900Y-45474463D01*
X35572561Y-45497649D01*
X35571914Y-45506684D01*
X35575080Y-45515174D01*
X35569461Y-45540988D01*
X35567577Y-45567341D01*
X35561754Y-45576401D01*
X35560221Y-45583445D01*
X35551845Y-45591818D01*
X35539076Y-45611688D01*
X35027584Y-46123181D01*
X34966261Y-46156666D01*
X34939903Y-46159500D01*
X27987185Y-46159500D01*
X27920146Y-46139815D01*
X27886867Y-46108386D01*
X27839414Y-46043072D01*
X27716928Y-45920586D01*
X27576788Y-45818768D01*
X27422445Y-45740127D01*
X27257701Y-45686598D01*
X27257699Y-45686597D01*
X27257698Y-45686597D01*
X27126271Y-45665781D01*
X27086611Y-45659500D01*
X26113389Y-45659500D01*
X26073728Y-45665781D01*
X25942302Y-45686597D01*
X25777552Y-45740128D01*
X25623211Y-45818768D01*
X25567441Y-45859288D01*
X25483072Y-45920586D01*
X25483070Y-45920588D01*
X25483069Y-45920588D01*
X25360588Y-46043069D01*
X25360588Y-46043070D01*
X25360586Y-46043072D01*
X25332780Y-46081344D01*
X25258768Y-46183211D01*
X25180128Y-46337552D01*
X25126597Y-46502302D01*
X25099500Y-46673389D01*
X24500500Y-46673389D01*
X24500500Y-44133389D01*
X25099500Y-44133389D01*
X25099500Y-44306611D01*
X25126598Y-44477701D01*
X25180127Y-44642445D01*
X25258768Y-44796788D01*
X25360586Y-44936928D01*
X25483072Y-45059414D01*
X25623212Y-45161232D01*
X25777555Y-45239873D01*
X25942299Y-45293402D01*
X26113389Y-45320500D01*
X26113390Y-45320500D01*
X27086610Y-45320500D01*
X27086611Y-45320500D01*
X27257701Y-45293402D01*
X27422445Y-45239873D01*
X27576788Y-45161232D01*
X27716928Y-45059414D01*
X27839414Y-44936928D01*
X27941232Y-44796788D01*
X28019873Y-44642445D01*
X28073402Y-44477701D01*
X28100500Y-44306611D01*
X28100500Y-44133389D01*
X28073402Y-43962299D01*
X28019873Y-43797555D01*
X27941232Y-43643212D01*
X27839414Y-43503072D01*
X27716928Y-43380586D01*
X27576788Y-43278768D01*
X27513452Y-43246497D01*
X27422447Y-43200128D01*
X27422446Y-43200127D01*
X27422445Y-43200127D01*
X27257701Y-43146598D01*
X27257699Y-43146597D01*
X27257698Y-43146597D01*
X27126271Y-43125781D01*
X27086611Y-43119500D01*
X26113389Y-43119500D01*
X26073728Y-43125781D01*
X25942302Y-43146597D01*
X25777552Y-43200128D01*
X25623211Y-43278768D01*
X25543256Y-43336859D01*
X25483072Y-43380586D01*
X25483070Y-43380588D01*
X25483069Y-43380588D01*
X25360588Y-43503069D01*
X25360588Y-43503070D01*
X25360586Y-43503072D01*
X25348374Y-43519881D01*
X25258768Y-43643211D01*
X25180128Y-43797552D01*
X25126597Y-43962302D01*
X25115717Y-44031000D01*
X25099500Y-44133389D01*
X24500500Y-44133389D01*
X24500500Y-41593389D01*
X25099500Y-41593389D01*
X25099500Y-41766610D01*
X25117542Y-41880528D01*
X25126598Y-41937701D01*
X25180127Y-42102445D01*
X25258768Y-42256788D01*
X25360586Y-42396928D01*
X25483072Y-42519414D01*
X25623212Y-42621232D01*
X25777555Y-42699873D01*
X25942299Y-42753402D01*
X26113389Y-42780500D01*
X26113390Y-42780500D01*
X27086610Y-42780500D01*
X27086611Y-42780500D01*
X27257701Y-42753402D01*
X27422445Y-42699873D01*
X27576788Y-42621232D01*
X27716928Y-42519414D01*
X27839414Y-42396928D01*
X27941232Y-42256788D01*
X28019873Y-42102445D01*
X28073402Y-41937701D01*
X28100500Y-41766611D01*
X28100500Y-41593389D01*
X28073402Y-41422299D01*
X28019873Y-41257555D01*
X27941232Y-41103212D01*
X27839414Y-40963072D01*
X27716928Y-40840586D01*
X27576788Y-40738768D01*
X27422445Y-40660127D01*
X27257701Y-40606598D01*
X27257699Y-40606597D01*
X27257698Y-40606597D01*
X27126271Y-40585781D01*
X27086611Y-40579500D01*
X26113389Y-40579500D01*
X26073728Y-40585781D01*
X25942302Y-40606597D01*
X25777552Y-40660128D01*
X25623211Y-40738768D01*
X25543256Y-40796859D01*
X25483072Y-40840586D01*
X25483070Y-40840588D01*
X25483069Y-40840588D01*
X25360588Y-40963069D01*
X25360588Y-40963070D01*
X25360586Y-40963072D01*
X25316859Y-41023256D01*
X25258768Y-41103211D01*
X25180128Y-41257552D01*
X25126597Y-41422302D01*
X25099500Y-41593389D01*
X24500500Y-41593389D01*
X24500500Y-39053389D01*
X25099500Y-39053389D01*
X25099500Y-39226611D01*
X25126598Y-39397701D01*
X25180127Y-39562445D01*
X25258768Y-39716788D01*
X25360586Y-39856928D01*
X25483072Y-39979414D01*
X25623212Y-40081232D01*
X25777555Y-40159873D01*
X25942299Y-40213402D01*
X26113389Y-40240500D01*
X26113390Y-40240500D01*
X27086610Y-40240500D01*
X27086611Y-40240500D01*
X27257701Y-40213402D01*
X27422445Y-40159873D01*
X27576788Y-40081232D01*
X27716928Y-39979414D01*
X27839414Y-39856928D01*
X27941232Y-39716788D01*
X28019873Y-39562445D01*
X28073402Y-39397701D01*
X28100500Y-39226611D01*
X28100500Y-39053389D01*
X28073402Y-38882299D01*
X28019873Y-38717555D01*
X27941232Y-38563212D01*
X27839414Y-38423072D01*
X27716928Y-38300586D01*
X27576788Y-38198768D01*
X27422445Y-38120127D01*
X27257701Y-38066598D01*
X27257699Y-38066597D01*
X27257698Y-38066597D01*
X27126271Y-38045781D01*
X27086611Y-38039500D01*
X26113389Y-38039500D01*
X26073728Y-38045781D01*
X25942302Y-38066597D01*
X25777552Y-38120128D01*
X25623211Y-38198768D01*
X25557791Y-38246299D01*
X25483072Y-38300586D01*
X25483070Y-38300588D01*
X25483069Y-38300588D01*
X25360588Y-38423069D01*
X25360588Y-38423070D01*
X25360586Y-38423072D01*
X25323593Y-38473989D01*
X25258768Y-38563211D01*
X25180128Y-38717552D01*
X25126597Y-38882302D01*
X25125378Y-38889999D01*
X25099500Y-39053389D01*
X24500500Y-39053389D01*
X24500500Y-36513389D01*
X25099500Y-36513389D01*
X25099500Y-36686610D01*
X25121895Y-36828011D01*
X25126598Y-36857701D01*
X25156694Y-36950327D01*
X25180128Y-37022447D01*
X25203363Y-37068048D01*
X25258768Y-37176788D01*
X25360586Y-37316928D01*
X25483072Y-37439414D01*
X25623212Y-37541232D01*
X25777555Y-37619873D01*
X25942299Y-37673402D01*
X26113389Y-37700500D01*
X26113390Y-37700500D01*
X27086610Y-37700500D01*
X27086611Y-37700500D01*
X27257701Y-37673402D01*
X27422445Y-37619873D01*
X27576788Y-37541232D01*
X27716928Y-37439414D01*
X27839414Y-37316928D01*
X27941232Y-37176788D01*
X28019873Y-37022445D01*
X28073402Y-36857701D01*
X28100500Y-36686611D01*
X28100500Y-36513389D01*
X28073402Y-36342299D01*
X28019873Y-36177555D01*
X27941232Y-36023212D01*
X27839414Y-35883072D01*
X27716928Y-35760586D01*
X27576788Y-35658768D01*
X27422445Y-35580127D01*
X27257701Y-35526598D01*
X27257699Y-35526597D01*
X27257698Y-35526597D01*
X27126271Y-35505781D01*
X27086611Y-35499500D01*
X26113389Y-35499500D01*
X26073728Y-35505781D01*
X25942302Y-35526597D01*
X25777552Y-35580128D01*
X25623211Y-35658768D01*
X25600251Y-35675450D01*
X25483072Y-35760586D01*
X25483070Y-35760588D01*
X25483069Y-35760588D01*
X25360588Y-35883069D01*
X25360588Y-35883070D01*
X25360586Y-35883072D01*
X25316859Y-35943256D01*
X25258768Y-36023211D01*
X25180128Y-36177552D01*
X25126597Y-36342302D01*
X25099500Y-36513389D01*
X24500500Y-36513389D01*
X24500500Y-33973389D01*
X25099500Y-33973389D01*
X25099500Y-34146611D01*
X25126598Y-34317701D01*
X25180127Y-34482445D01*
X25258768Y-34636788D01*
X25360586Y-34776928D01*
X25483072Y-34899414D01*
X25623212Y-35001232D01*
X25777555Y-35079873D01*
X25942299Y-35133402D01*
X26113389Y-35160500D01*
X26113390Y-35160500D01*
X27086610Y-35160500D01*
X27086611Y-35160500D01*
X27257701Y-35133402D01*
X27422445Y-35079873D01*
X27576788Y-35001232D01*
X27716928Y-34899414D01*
X27839414Y-34776928D01*
X27941232Y-34636788D01*
X28019873Y-34482445D01*
X28073402Y-34317701D01*
X28100500Y-34146611D01*
X28100500Y-33973389D01*
X50499500Y-33973389D01*
X50499500Y-34146611D01*
X50526598Y-34317701D01*
X50580127Y-34482445D01*
X50658768Y-34636788D01*
X50760586Y-34776928D01*
X50883072Y-34899414D01*
X51023212Y-35001232D01*
X51177555Y-35079873D01*
X51342299Y-35133402D01*
X51513389Y-35160500D01*
X51513390Y-35160500D01*
X52486610Y-35160500D01*
X52486611Y-35160500D01*
X52657701Y-35133402D01*
X52822445Y-35079873D01*
X52976788Y-35001232D01*
X53116928Y-34899414D01*
X53239414Y-34776928D01*
X53341232Y-34636788D01*
X53419873Y-34482445D01*
X53473402Y-34317701D01*
X53500500Y-34146611D01*
X53500500Y-33973389D01*
X53473402Y-33802299D01*
X53419873Y-33637555D01*
X53341232Y-33483212D01*
X53239414Y-33343072D01*
X53116928Y-33220586D01*
X52976788Y-33118768D01*
X52822445Y-33040127D01*
X52657701Y-32986598D01*
X52657699Y-32986597D01*
X52657698Y-32986597D01*
X52526271Y-32965781D01*
X52486611Y-32959500D01*
X51513389Y-32959500D01*
X51473728Y-32965781D01*
X51342302Y-32986597D01*
X51177552Y-33040128D01*
X51023211Y-33118768D01*
X50943256Y-33176859D01*
X50883072Y-33220586D01*
X50883070Y-33220588D01*
X50883069Y-33220588D01*
X50760588Y-33343069D01*
X50760588Y-33343070D01*
X50760586Y-33343072D01*
X50748527Y-33359670D01*
X50658768Y-33483211D01*
X50580128Y-33637552D01*
X50526597Y-33802302D01*
X50507394Y-33923546D01*
X50499500Y-33973389D01*
X28100500Y-33973389D01*
X28073402Y-33802299D01*
X28019873Y-33637555D01*
X27941232Y-33483212D01*
X27839414Y-33343072D01*
X27716928Y-33220586D01*
X27576788Y-33118768D01*
X27422445Y-33040127D01*
X27257701Y-32986598D01*
X27257699Y-32986597D01*
X27257698Y-32986597D01*
X27126271Y-32965781D01*
X27086611Y-32959500D01*
X26113389Y-32959500D01*
X26073728Y-32965781D01*
X25942302Y-32986597D01*
X25777552Y-33040128D01*
X25623211Y-33118768D01*
X25543256Y-33176859D01*
X25483072Y-33220586D01*
X25483070Y-33220588D01*
X25483069Y-33220588D01*
X25360588Y-33343069D01*
X25360588Y-33343070D01*
X25360586Y-33343072D01*
X25348527Y-33359670D01*
X25258768Y-33483211D01*
X25180128Y-33637552D01*
X25126597Y-33802302D01*
X25107394Y-33923546D01*
X25099500Y-33973389D01*
X24500500Y-33973389D01*
X24500500Y-31433389D01*
X25099500Y-31433389D01*
X25099500Y-31606610D01*
X25125272Y-31769334D01*
X25126598Y-31777701D01*
X25180127Y-31942445D01*
X25258768Y-32096788D01*
X25360586Y-32236928D01*
X25483072Y-32359414D01*
X25623212Y-32461232D01*
X25777555Y-32539873D01*
X25942299Y-32593402D01*
X26113389Y-32620500D01*
X26113390Y-32620500D01*
X27086610Y-32620500D01*
X27086611Y-32620500D01*
X27257701Y-32593402D01*
X27422445Y-32539873D01*
X27576788Y-32461232D01*
X27716928Y-32359414D01*
X27839414Y-32236928D01*
X27941232Y-32096788D01*
X28019873Y-31942445D01*
X28073402Y-31777701D01*
X28100500Y-31606611D01*
X28100500Y-31433389D01*
X28073402Y-31262299D01*
X28019873Y-31097555D01*
X27941232Y-30943212D01*
X27839414Y-30803072D01*
X27716928Y-30680586D01*
X27589850Y-30588258D01*
X35669500Y-30588258D01*
X35669500Y-32317741D01*
X35674987Y-32359414D01*
X35699452Y-32545238D01*
X35719618Y-32620500D01*
X35758842Y-32766887D01*
X35846650Y-32978876D01*
X35846657Y-32978890D01*
X35961392Y-33177617D01*
X36101081Y-33359661D01*
X36101089Y-33359670D01*
X36263330Y-33521911D01*
X36263338Y-33521918D01*
X36445382Y-33661607D01*
X36445385Y-33661608D01*
X36445388Y-33661611D01*
X36644112Y-33776344D01*
X36644117Y-33776346D01*
X36644123Y-33776349D01*
X36706780Y-33802302D01*
X36856113Y-33864158D01*
X37077762Y-33923548D01*
X37305266Y-33953500D01*
X37305273Y-33953500D01*
X37534727Y-33953500D01*
X37534734Y-33953500D01*
X37762238Y-33923548D01*
X37983887Y-33864158D01*
X38195888Y-33776344D01*
X38394612Y-33661611D01*
X38576661Y-33521919D01*
X38576665Y-33521914D01*
X38576670Y-33521911D01*
X38738911Y-33359670D01*
X38738914Y-33359665D01*
X38738919Y-33359661D01*
X38878611Y-33177612D01*
X38993344Y-32978888D01*
X39055439Y-32828976D01*
X39099279Y-32774573D01*
X39165574Y-32752508D01*
X39233273Y-32769787D01*
X39280884Y-32820924D01*
X39284561Y-32828977D01*
X39346650Y-32978876D01*
X39346657Y-32978890D01*
X39461392Y-33177617D01*
X39601081Y-33359661D01*
X39601089Y-33359670D01*
X39763330Y-33521911D01*
X39763338Y-33521918D01*
X39945382Y-33661607D01*
X39945385Y-33661608D01*
X39945388Y-33661611D01*
X40144112Y-33776344D01*
X40144117Y-33776346D01*
X40144123Y-33776349D01*
X40206780Y-33802302D01*
X40356113Y-33864158D01*
X40577762Y-33923548D01*
X40805266Y-33953500D01*
X40805273Y-33953500D01*
X41034727Y-33953500D01*
X41034734Y-33953500D01*
X41262238Y-33923548D01*
X41483887Y-33864158D01*
X41695888Y-33776344D01*
X41894612Y-33661611D01*
X42076661Y-33521919D01*
X42076665Y-33521914D01*
X42076670Y-33521911D01*
X42238911Y-33359670D01*
X42238914Y-33359665D01*
X42238919Y-33359661D01*
X42378611Y-33177612D01*
X42493344Y-32978888D01*
X42581158Y-32766887D01*
X42640548Y-32545238D01*
X42670500Y-32317734D01*
X42670500Y-31433389D01*
X50499500Y-31433389D01*
X50499500Y-31606610D01*
X50525272Y-31769334D01*
X50526598Y-31777701D01*
X50580127Y-31942445D01*
X50658768Y-32096788D01*
X50760586Y-32236928D01*
X50883072Y-32359414D01*
X51023212Y-32461232D01*
X51177555Y-32539873D01*
X51342299Y-32593402D01*
X51513389Y-32620500D01*
X51513390Y-32620500D01*
X52486610Y-32620500D01*
X52486611Y-32620500D01*
X52657701Y-32593402D01*
X52822445Y-32539873D01*
X52976788Y-32461232D01*
X53116928Y-32359414D01*
X53239414Y-32236928D01*
X53341232Y-32096788D01*
X53419873Y-31942445D01*
X53473402Y-31777701D01*
X53500500Y-31606611D01*
X53500500Y-31433389D01*
X53473402Y-31262299D01*
X53419873Y-31097555D01*
X53341232Y-30943212D01*
X53239414Y-30803072D01*
X53116928Y-30680586D01*
X52976788Y-30578768D01*
X52822445Y-30500127D01*
X52657701Y-30446598D01*
X52657699Y-30446597D01*
X52657698Y-30446597D01*
X52526271Y-30425781D01*
X52486611Y-30419500D01*
X51513389Y-30419500D01*
X51473728Y-30425781D01*
X51342302Y-30446597D01*
X51177552Y-30500128D01*
X51023211Y-30578768D01*
X50943256Y-30636859D01*
X50883072Y-30680586D01*
X50883070Y-30680588D01*
X50883069Y-30680588D01*
X50760588Y-30803069D01*
X50760588Y-30803070D01*
X50760586Y-30803072D01*
X50716859Y-30863256D01*
X50658768Y-30943211D01*
X50580128Y-31097552D01*
X50526597Y-31262302D01*
X50499500Y-31433389D01*
X42670500Y-31433389D01*
X42670500Y-30588266D01*
X42640548Y-30360762D01*
X42581158Y-30139113D01*
X42493344Y-29927112D01*
X42378611Y-29728388D01*
X42378608Y-29728385D01*
X42378607Y-29728382D01*
X42238918Y-29546338D01*
X42238911Y-29546330D01*
X42076670Y-29384089D01*
X42076661Y-29384081D01*
X41894617Y-29244392D01*
X41870839Y-29230664D01*
X41695888Y-29129656D01*
X41695876Y-29129650D01*
X41483887Y-29041842D01*
X41262238Y-28982452D01*
X41224215Y-28977446D01*
X41034741Y-28952500D01*
X41034734Y-28952500D01*
X40805266Y-28952500D01*
X40805258Y-28952500D01*
X40588715Y-28981009D01*
X40577762Y-28982452D01*
X40484076Y-29007554D01*
X40356112Y-29041842D01*
X40144123Y-29129650D01*
X40144109Y-29129657D01*
X39945382Y-29244392D01*
X39763338Y-29384081D01*
X39601081Y-29546338D01*
X39461392Y-29728382D01*
X39346657Y-29927109D01*
X39346650Y-29927123D01*
X39284561Y-30077022D01*
X39240720Y-30131426D01*
X39174426Y-30153491D01*
X39106727Y-30136212D01*
X39059116Y-30085075D01*
X39055439Y-30077022D01*
X38993349Y-29927123D01*
X38993346Y-29927117D01*
X38993344Y-29927112D01*
X38878611Y-29728388D01*
X38878608Y-29728385D01*
X38878607Y-29728382D01*
X38738918Y-29546338D01*
X38738911Y-29546330D01*
X38576670Y-29384089D01*
X38576661Y-29384081D01*
X38394617Y-29244392D01*
X38370839Y-29230664D01*
X38195888Y-29129656D01*
X38195876Y-29129650D01*
X37983887Y-29041842D01*
X37762238Y-28982452D01*
X37724215Y-28977446D01*
X37534741Y-28952500D01*
X37534734Y-28952500D01*
X37305266Y-28952500D01*
X37305258Y-28952500D01*
X37088715Y-28981009D01*
X37077762Y-28982452D01*
X36984076Y-29007554D01*
X36856112Y-29041842D01*
X36644123Y-29129650D01*
X36644109Y-29129657D01*
X36445382Y-29244392D01*
X36263338Y-29384081D01*
X36101081Y-29546338D01*
X35961392Y-29728382D01*
X35846657Y-29927109D01*
X35846650Y-29927123D01*
X35758842Y-30139112D01*
X35699453Y-30360759D01*
X35699451Y-30360770D01*
X35669500Y-30588258D01*
X27589850Y-30588258D01*
X27576788Y-30578768D01*
X27422445Y-30500127D01*
X27257701Y-30446598D01*
X27257699Y-30446597D01*
X27257698Y-30446597D01*
X27126271Y-30425781D01*
X27086611Y-30419500D01*
X26113389Y-30419500D01*
X26073728Y-30425781D01*
X25942302Y-30446597D01*
X25777552Y-30500128D01*
X25623211Y-30578768D01*
X25543256Y-30636859D01*
X25483072Y-30680586D01*
X25483070Y-30680588D01*
X25483069Y-30680588D01*
X25360588Y-30803069D01*
X25360588Y-30803070D01*
X25360586Y-30803072D01*
X25316859Y-30863256D01*
X25258768Y-30943211D01*
X25180128Y-31097552D01*
X25126597Y-31262302D01*
X25099500Y-31433389D01*
X24500500Y-31433389D01*
X24500500Y-28893389D01*
X25099500Y-28893389D01*
X25099500Y-29066611D01*
X25101834Y-29081345D01*
X25125483Y-29230666D01*
X25126598Y-29237701D01*
X25180127Y-29402445D01*
X25258768Y-29556788D01*
X25360586Y-29696928D01*
X25483072Y-29819414D01*
X25623212Y-29921232D01*
X25777555Y-29999873D01*
X25942299Y-30053402D01*
X26113389Y-30080500D01*
X26113390Y-30080500D01*
X27086610Y-30080500D01*
X27086611Y-30080500D01*
X27257701Y-30053402D01*
X27422445Y-29999873D01*
X27576788Y-29921232D01*
X27716928Y-29819414D01*
X27839414Y-29696928D01*
X27941232Y-29556788D01*
X28019873Y-29402445D01*
X28073402Y-29237701D01*
X28100500Y-29066611D01*
X28100500Y-28893389D01*
X50499500Y-28893389D01*
X50499500Y-29066611D01*
X50501834Y-29081345D01*
X50525483Y-29230666D01*
X50526598Y-29237701D01*
X50580127Y-29402445D01*
X50658768Y-29556788D01*
X50760586Y-29696928D01*
X50883072Y-29819414D01*
X51023212Y-29921232D01*
X51177555Y-29999873D01*
X51342299Y-30053402D01*
X51513389Y-30080500D01*
X51513390Y-30080500D01*
X52486610Y-30080500D01*
X52486611Y-30080500D01*
X52657701Y-30053402D01*
X52822445Y-29999873D01*
X52976788Y-29921232D01*
X53116928Y-29819414D01*
X53239414Y-29696928D01*
X53341232Y-29556788D01*
X53419873Y-29402445D01*
X53473402Y-29237701D01*
X53500500Y-29066611D01*
X53500500Y-28893389D01*
X53473402Y-28722299D01*
X53419873Y-28557555D01*
X53341232Y-28403212D01*
X53239414Y-28263072D01*
X53116928Y-28140586D01*
X52976788Y-28038768D01*
X52822445Y-27960127D01*
X52657701Y-27906598D01*
X52657699Y-27906597D01*
X52657698Y-27906597D01*
X52526271Y-27885781D01*
X52486611Y-27879500D01*
X51513389Y-27879500D01*
X51473728Y-27885781D01*
X51342302Y-27906597D01*
X51177552Y-27960128D01*
X51023211Y-28038768D01*
X50943256Y-28096859D01*
X50883072Y-28140586D01*
X50883070Y-28140588D01*
X50883069Y-28140588D01*
X50760588Y-28263069D01*
X50760588Y-28263070D01*
X50760586Y-28263072D01*
X50716859Y-28323256D01*
X50658768Y-28403211D01*
X50580128Y-28557552D01*
X50526597Y-28722302D01*
X50512707Y-28810001D01*
X50499500Y-28893389D01*
X28100500Y-28893389D01*
X28073402Y-28722299D01*
X28019873Y-28557555D01*
X27941232Y-28403212D01*
X27839414Y-28263072D01*
X27716928Y-28140586D01*
X27576788Y-28038768D01*
X27422445Y-27960127D01*
X27257701Y-27906598D01*
X27257699Y-27906597D01*
X27257698Y-27906597D01*
X27126271Y-27885781D01*
X27086611Y-27879500D01*
X26113389Y-27879500D01*
X26073728Y-27885781D01*
X25942302Y-27906597D01*
X25777552Y-27960128D01*
X25623211Y-28038768D01*
X25543256Y-28096859D01*
X25483072Y-28140586D01*
X25483070Y-28140588D01*
X25483069Y-28140588D01*
X25360588Y-28263069D01*
X25360588Y-28263070D01*
X25360586Y-28263072D01*
X25316859Y-28323256D01*
X25258768Y-28403211D01*
X25180128Y-28557552D01*
X25126597Y-28722302D01*
X25112707Y-28810001D01*
X25099500Y-28893389D01*
X24500500Y-28893389D01*
X24500500Y-26353389D01*
X25099500Y-26353389D01*
X25099500Y-26526611D01*
X25126598Y-26697701D01*
X25180127Y-26862445D01*
X25258768Y-27016788D01*
X25360586Y-27156928D01*
X25483072Y-27279414D01*
X25623212Y-27381232D01*
X25777555Y-27459873D01*
X25942299Y-27513402D01*
X26113389Y-27540500D01*
X26113390Y-27540500D01*
X27086610Y-27540500D01*
X27086611Y-27540500D01*
X27257701Y-27513402D01*
X27422445Y-27459873D01*
X27576788Y-27381232D01*
X27716928Y-27279414D01*
X27839414Y-27156928D01*
X27941232Y-27016788D01*
X28019873Y-26862445D01*
X28073402Y-26697701D01*
X28100500Y-26526611D01*
X28100500Y-26353389D01*
X50499500Y-26353389D01*
X50499500Y-26526611D01*
X50526598Y-26697701D01*
X50580127Y-26862445D01*
X50658768Y-27016788D01*
X50760586Y-27156928D01*
X50883072Y-27279414D01*
X51023212Y-27381232D01*
X51177555Y-27459873D01*
X51342299Y-27513402D01*
X51513389Y-27540500D01*
X51513390Y-27540500D01*
X52486610Y-27540500D01*
X52486611Y-27540500D01*
X52657701Y-27513402D01*
X52822445Y-27459873D01*
X52976788Y-27381232D01*
X53116928Y-27279414D01*
X53239414Y-27156928D01*
X53341232Y-27016788D01*
X53406572Y-26888549D01*
X58299500Y-26888549D01*
X58299500Y-27111450D01*
X58299501Y-27111466D01*
X58328594Y-27332452D01*
X58328595Y-27332457D01*
X58328596Y-27332463D01*
X58384339Y-27540500D01*
X58386290Y-27547780D01*
X58386293Y-27547790D01*
X58471593Y-27753722D01*
X58471595Y-27753726D01*
X58583052Y-27946774D01*
X58583057Y-27946780D01*
X58583058Y-27946782D01*
X58718751Y-28123622D01*
X58718757Y-28123629D01*
X58876370Y-28281242D01*
X58876376Y-28281247D01*
X59053226Y-28416948D01*
X59246274Y-28528405D01*
X59246277Y-28528406D01*
X59246282Y-28528409D01*
X59324817Y-28560939D01*
X59379221Y-28604780D01*
X59401286Y-28671074D01*
X59384007Y-28738773D01*
X59332870Y-28786384D01*
X59277365Y-28799500D01*
X58999984Y-28799500D01*
X58897204Y-28810000D01*
X58897203Y-28810001D01*
X58730664Y-28865186D01*
X58730662Y-28865187D01*
X58581348Y-28957286D01*
X58581344Y-28957289D01*
X58457289Y-29081344D01*
X58457286Y-29081348D01*
X58365187Y-29230662D01*
X58365186Y-29230664D01*
X58310001Y-29397203D01*
X58310000Y-29397204D01*
X58299500Y-29499984D01*
X58299500Y-31500015D01*
X58310000Y-31602795D01*
X58310001Y-31602796D01*
X58365186Y-31769335D01*
X58365187Y-31769337D01*
X58457286Y-31918651D01*
X58457289Y-31918655D01*
X58581344Y-32042710D01*
X58581348Y-32042713D01*
X58730662Y-32134812D01*
X58730664Y-32134813D01*
X58730666Y-32134814D01*
X58897203Y-32189999D01*
X58999992Y-32200500D01*
X58999997Y-32200500D01*
X61000003Y-32200500D01*
X61000008Y-32200500D01*
X61102797Y-32189999D01*
X61269334Y-32134814D01*
X61418655Y-32042711D01*
X61542711Y-31918655D01*
X61634814Y-31769334D01*
X61689999Y-31602797D01*
X61700500Y-31500008D01*
X61700500Y-29499992D01*
X61689999Y-29397203D01*
X61634814Y-29230666D01*
X61572510Y-29129657D01*
X61542713Y-29081348D01*
X61542710Y-29081344D01*
X61418655Y-28957289D01*
X61418651Y-28957286D01*
X61269337Y-28865187D01*
X61269335Y-28865186D01*
X61186065Y-28837593D01*
X61102797Y-28810001D01*
X61102795Y-28810000D01*
X61000015Y-28799500D01*
X61000008Y-28799500D01*
X60722635Y-28799500D01*
X60655596Y-28779815D01*
X60609841Y-28727011D01*
X60599897Y-28657853D01*
X60628922Y-28594297D01*
X60675183Y-28560939D01*
X60753717Y-28528409D01*
X60753718Y-28528407D01*
X60753726Y-28528405D01*
X60946774Y-28416948D01*
X61123624Y-28281247D01*
X61281247Y-28123624D01*
X61416948Y-27946774D01*
X61528405Y-27753726D01*
X61613710Y-27547781D01*
X61671404Y-27332463D01*
X61700500Y-27111457D01*
X61700500Y-26888543D01*
X61671404Y-26667537D01*
X61613710Y-26452219D01*
X61528405Y-26246274D01*
X61416948Y-26053226D01*
X61281247Y-25876376D01*
X61281242Y-25876370D01*
X61123629Y-25718757D01*
X61123622Y-25718751D01*
X60946782Y-25583058D01*
X60946780Y-25583057D01*
X60946774Y-25583052D01*
X60753726Y-25471595D01*
X60753722Y-25471593D01*
X60547790Y-25386293D01*
X60547783Y-25386291D01*
X60547781Y-25386290D01*
X60332463Y-25328596D01*
X60332457Y-25328595D01*
X60332452Y-25328594D01*
X60111466Y-25299501D01*
X60111463Y-25299500D01*
X60111457Y-25299500D01*
X59888543Y-25299500D01*
X59888537Y-25299500D01*
X59888533Y-25299501D01*
X59667547Y-25328594D01*
X59667540Y-25328595D01*
X59667537Y-25328596D01*
X59626843Y-25339500D01*
X59452219Y-25386290D01*
X59452209Y-25386293D01*
X59246277Y-25471593D01*
X59246273Y-25471595D01*
X59053226Y-25583052D01*
X59053217Y-25583058D01*
X58876377Y-25718751D01*
X58876370Y-25718757D01*
X58718757Y-25876370D01*
X58718751Y-25876377D01*
X58583058Y-26053217D01*
X58583052Y-26053226D01*
X58471595Y-26246273D01*
X58471593Y-26246277D01*
X58386293Y-26452209D01*
X58386290Y-26452219D01*
X58328597Y-26667534D01*
X58328594Y-26667547D01*
X58299501Y-26888533D01*
X58299500Y-26888549D01*
X53406572Y-26888549D01*
X53419873Y-26862445D01*
X53473402Y-26697701D01*
X53500500Y-26526611D01*
X53500500Y-26353389D01*
X53473402Y-26182299D01*
X53419873Y-26017555D01*
X53341232Y-25863212D01*
X53239414Y-25723072D01*
X53116928Y-25600586D01*
X52976788Y-25498768D01*
X52822445Y-25420127D01*
X52657701Y-25366598D01*
X52657699Y-25366597D01*
X52657698Y-25366597D01*
X52526271Y-25345781D01*
X52486611Y-25339500D01*
X51513389Y-25339500D01*
X51473728Y-25345781D01*
X51342302Y-25366597D01*
X51177552Y-25420128D01*
X51023211Y-25498768D01*
X50943256Y-25556859D01*
X50883072Y-25600586D01*
X50883070Y-25600588D01*
X50883069Y-25600588D01*
X50760588Y-25723069D01*
X50760588Y-25723070D01*
X50760586Y-25723072D01*
X50716859Y-25783256D01*
X50658768Y-25863211D01*
X50580128Y-26017552D01*
X50526597Y-26182302D01*
X50516465Y-26246274D01*
X50499500Y-26353389D01*
X28100500Y-26353389D01*
X28073402Y-26182299D01*
X28019873Y-26017555D01*
X27941232Y-25863212D01*
X27839414Y-25723072D01*
X27716928Y-25600586D01*
X27576788Y-25498768D01*
X27422445Y-25420127D01*
X27257701Y-25366598D01*
X27257699Y-25366597D01*
X27257698Y-25366597D01*
X27126271Y-25345781D01*
X27086611Y-25339500D01*
X26113389Y-25339500D01*
X26073728Y-25345781D01*
X25942302Y-25366597D01*
X25777552Y-25420128D01*
X25623211Y-25498768D01*
X25543256Y-25556859D01*
X25483072Y-25600586D01*
X25483070Y-25600588D01*
X25483069Y-25600588D01*
X25360588Y-25723069D01*
X25360588Y-25723070D01*
X25360586Y-25723072D01*
X25316859Y-25783256D01*
X25258768Y-25863211D01*
X25180128Y-26017552D01*
X25126597Y-26182302D01*
X25116465Y-26246274D01*
X25099500Y-26353389D01*
X24500500Y-26353389D01*
X24500500Y-23124000D01*
X24520185Y-23056961D01*
X24572989Y-23011206D01*
X24624500Y-23000000D01*
X24999120Y-23000000D01*
X25066159Y-23019685D01*
X25111914Y-23072489D01*
X25121858Y-23141647D01*
X25115302Y-23167334D01*
X25105908Y-23192518D01*
X25105439Y-23196885D01*
X25099501Y-23252123D01*
X25099500Y-23252135D01*
X25099500Y-24547870D01*
X25099501Y-24547876D01*
X25105908Y-24607483D01*
X25156202Y-24742328D01*
X25156206Y-24742335D01*
X25242452Y-24857544D01*
X25242455Y-24857547D01*
X25357664Y-24943793D01*
X25357671Y-24943797D01*
X25492517Y-24994091D01*
X25492516Y-24994091D01*
X25499444Y-24994835D01*
X25552127Y-25000500D01*
X27647872Y-25000499D01*
X27707483Y-24994091D01*
X27842331Y-24943796D01*
X27957546Y-24857546D01*
X28043796Y-24742331D01*
X28094091Y-24607483D01*
X28100500Y-24547873D01*
X28100499Y-23847339D01*
X28100499Y-23252129D01*
X28100498Y-23252123D01*
X28100497Y-23252116D01*
X28094091Y-23192517D01*
X28084697Y-23167332D01*
X28079714Y-23097642D01*
X28113199Y-23036319D01*
X28174522Y-23002834D01*
X28200880Y-23000000D01*
X50650849Y-23000000D01*
X50717888Y-23019685D01*
X50763643Y-23072489D01*
X50773587Y-23141647D01*
X50751168Y-23196885D01*
X50659195Y-23323475D01*
X50580591Y-23477744D01*
X50527085Y-23642415D01*
X50525884Y-23649999D01*
X50525885Y-23650000D01*
X51684314Y-23650000D01*
X51679920Y-23654394D01*
X51627259Y-23745606D01*
X51600000Y-23847339D01*
X51600000Y-23952661D01*
X51627259Y-24054394D01*
X51679920Y-24145606D01*
X51684314Y-24150000D01*
X50525885Y-24150000D01*
X50527085Y-24157584D01*
X50580591Y-24322255D01*
X50659195Y-24476524D01*
X50760967Y-24616602D01*
X50883397Y-24739032D01*
X51023475Y-24840804D01*
X51177742Y-24919408D01*
X51342415Y-24972914D01*
X51513429Y-25000000D01*
X51750000Y-25000000D01*
X51750000Y-24215686D01*
X51754394Y-24220080D01*
X51845606Y-24272741D01*
X51947339Y-24300000D01*
X52052661Y-24300000D01*
X52154394Y-24272741D01*
X52245606Y-24220080D01*
X52250000Y-24215686D01*
X52250000Y-25000000D01*
X52486571Y-25000000D01*
X52657584Y-24972914D01*
X52822257Y-24919408D01*
X52976524Y-24840804D01*
X53116602Y-24739032D01*
X53239032Y-24616602D01*
X53340804Y-24476524D01*
X53419408Y-24322255D01*
X53472914Y-24157584D01*
X53474115Y-24150000D01*
X52315686Y-24150000D01*
X52320080Y-24145606D01*
X52372741Y-24054394D01*
X52400000Y-23952661D01*
X52400000Y-23847339D01*
X52372741Y-23745606D01*
X52320080Y-23654394D01*
X52315686Y-23650000D01*
X53474115Y-23650000D01*
X53474115Y-23649999D01*
X53472914Y-23642415D01*
X53419408Y-23477744D01*
X53340804Y-23323475D01*
X53248832Y-23196885D01*
X53225353Y-23131078D01*
X53241179Y-23063024D01*
X53291285Y-23014330D01*
X53349151Y-23000000D01*
X55000000Y-23000000D01*
X55000000Y-18388549D01*
X58299500Y-18388549D01*
X58299500Y-18611450D01*
X58299501Y-18611466D01*
X58328594Y-18832452D01*
X58328595Y-18832457D01*
X58328596Y-18832463D01*
X58328597Y-18832465D01*
X58386290Y-19047780D01*
X58386293Y-19047790D01*
X58471593Y-19253722D01*
X58471595Y-19253726D01*
X58583052Y-19446774D01*
X58583057Y-19446780D01*
X58583058Y-19446782D01*
X58718751Y-19623622D01*
X58718757Y-19623629D01*
X58876370Y-19781242D01*
X58876376Y-19781247D01*
X59053226Y-19916948D01*
X59246274Y-20028405D01*
X59246277Y-20028406D01*
X59246282Y-20028409D01*
X59324817Y-20060939D01*
X59379221Y-20104780D01*
X59401286Y-20171074D01*
X59384007Y-20238773D01*
X59332870Y-20286384D01*
X59277365Y-20299500D01*
X58999984Y-20299500D01*
X58897204Y-20310000D01*
X58897203Y-20310001D01*
X58730664Y-20365186D01*
X58730662Y-20365187D01*
X58581348Y-20457286D01*
X58581344Y-20457289D01*
X58457289Y-20581344D01*
X58457286Y-20581348D01*
X58365187Y-20730662D01*
X58365186Y-20730664D01*
X58310001Y-20897203D01*
X58310000Y-20897204D01*
X58299500Y-20999984D01*
X58299500Y-23000015D01*
X58310000Y-23102795D01*
X58310001Y-23102797D01*
X58337593Y-23186065D01*
X58365186Y-23269335D01*
X58365187Y-23269337D01*
X58457286Y-23418651D01*
X58457289Y-23418655D01*
X58581344Y-23542710D01*
X58581348Y-23542713D01*
X58730662Y-23634812D01*
X58730664Y-23634813D01*
X58730666Y-23634814D01*
X58897203Y-23689999D01*
X58999992Y-23700500D01*
X58999997Y-23700500D01*
X61000003Y-23700500D01*
X61000008Y-23700500D01*
X61102797Y-23689999D01*
X61269334Y-23634814D01*
X61418655Y-23542711D01*
X61542711Y-23418655D01*
X61634814Y-23269334D01*
X61689999Y-23102797D01*
X61700500Y-23000008D01*
X61700500Y-20999992D01*
X61689999Y-20897203D01*
X61634814Y-20730666D01*
X61542711Y-20581345D01*
X61418655Y-20457289D01*
X61418651Y-20457286D01*
X61269337Y-20365187D01*
X61269335Y-20365186D01*
X61186065Y-20337593D01*
X61102797Y-20310001D01*
X61102795Y-20310000D01*
X61000015Y-20299500D01*
X61000008Y-20299500D01*
X60722635Y-20299500D01*
X60655596Y-20279815D01*
X60609841Y-20227011D01*
X60599897Y-20157853D01*
X60628922Y-20094297D01*
X60675183Y-20060939D01*
X60753717Y-20028409D01*
X60753718Y-20028407D01*
X60753726Y-20028405D01*
X60946774Y-19916948D01*
X61123624Y-19781247D01*
X61281247Y-19623624D01*
X61416948Y-19446774D01*
X61528405Y-19253726D01*
X61613710Y-19047781D01*
X61671404Y-18832463D01*
X61700500Y-18611457D01*
X61700500Y-18388543D01*
X61671404Y-18167537D01*
X61613710Y-17952219D01*
X61528405Y-17746274D01*
X61416948Y-17553226D01*
X61281247Y-17376376D01*
X61281242Y-17376370D01*
X61123629Y-17218757D01*
X61123622Y-17218751D01*
X60946782Y-17083058D01*
X60946780Y-17083057D01*
X60946774Y-17083052D01*
X60753726Y-16971595D01*
X60753722Y-16971593D01*
X60547790Y-16886293D01*
X60547783Y-16886291D01*
X60547781Y-16886290D01*
X60332463Y-16828596D01*
X60332457Y-16828595D01*
X60332452Y-16828594D01*
X60111466Y-16799501D01*
X60111463Y-16799500D01*
X60111457Y-16799500D01*
X59888543Y-16799500D01*
X59888537Y-16799500D01*
X59888533Y-16799501D01*
X59667547Y-16828594D01*
X59667540Y-16828595D01*
X59667537Y-16828596D01*
X59452219Y-16886290D01*
X59452209Y-16886293D01*
X59246277Y-16971593D01*
X59246273Y-16971595D01*
X59053226Y-17083052D01*
X59053217Y-17083058D01*
X58876377Y-17218751D01*
X58876370Y-17218757D01*
X58718757Y-17376370D01*
X58718751Y-17376377D01*
X58583058Y-17553217D01*
X58583052Y-17553226D01*
X58471595Y-17746273D01*
X58471593Y-17746277D01*
X58386293Y-17952209D01*
X58386290Y-17952219D01*
X58328597Y-18167534D01*
X58328594Y-18167547D01*
X58299501Y-18388533D01*
X58299500Y-18388549D01*
X55000000Y-18388549D01*
X55000000Y-16124500D01*
X55019685Y-16057461D01*
X55072489Y-16011706D01*
X55124000Y-16000500D01*
X65375500Y-16000500D01*
X65442539Y-16020185D01*
G37*
%TD.AperFunction*%
%TD*%
M02*
