%TF.GenerationSoftware,KiCad,Pcbnew,9.0.0*%
%TF.CreationDate,2025-03-25T17:14:42+01:00*%
%TF.ProjectId,ESP32_speaker_tiny,45535033-325f-4737-9065-616b65725f74,rev?*%
%TF.SameCoordinates,Original*%
%TF.FileFunction,Soldermask,Bot*%
%TF.FilePolarity,Negative*%
%FSLAX46Y46*%
G04 Gerber Fmt 4.6, Leading zero omitted, Abs format (unit mm)*
G04 Created by KiCad (PCBNEW 9.0.0) date 2025-03-25 17:14:42*
%MOMM*%
%LPD*%
G01*
G04 APERTURE LIST*
G04 Aperture macros list*
%AMRoundRect*
0 Rectangle with rounded corners*
0 $1 Rounding radius*
0 $2 $3 $4 $5 $6 $7 $8 $9 X,Y pos of 4 corners*
0 Add a 4 corners polygon primitive as box body*
4,1,4,$2,$3,$4,$5,$6,$7,$8,$9,$2,$3,0*
0 Add four circle primitives for the rounded corners*
1,1,$1+$1,$2,$3*
1,1,$1+$1,$4,$5*
1,1,$1+$1,$6,$7*
1,1,$1+$1,$8,$9*
0 Add four rect primitives between the rounded corners*
20,1,$1+$1,$2,$3,$4,$5,0*
20,1,$1+$1,$4,$5,$6,$7,0*
20,1,$1+$1,$6,$7,$8,$9,0*
20,1,$1+$1,$8,$9,$2,$3,0*%
G04 Aperture macros list end*
%ADD10RoundRect,0.250001X0.949999X-0.949999X0.949999X0.949999X-0.949999X0.949999X-0.949999X-0.949999X0*%
%ADD11C,2.400000*%
%ADD12C,1.600000*%
%ADD13O,1.600000X1.600000*%
%ADD14R,2.000000X1.200000*%
%ADD15O,2.000000X1.200000*%
%ADD16O,1.750000X3.000000*%
%ADD17O,2.500000X4.000000*%
G04 APERTURE END LIST*
D10*
%TO.C,SPEAKER_R*%
X60000000Y-22000000D03*
D11*
X60000000Y-18500000D03*
%TD*%
D10*
%TO.C,+ -*%
X60000000Y-47500000D03*
D11*
X60000000Y-44000000D03*
%TD*%
D12*
%TO.C,GAIN_L1*%
X60000000Y-59420000D03*
D13*
X60000000Y-69580000D03*
%TD*%
D10*
%TO.C,PWR_SWITCH*%
X60000000Y-39000000D03*
D11*
X60000000Y-35500000D03*
%TD*%
D14*
%TO.C,U1*%
X26600000Y-23900000D03*
D15*
X26600000Y-26440000D03*
X26600000Y-28980000D03*
X26600000Y-31520000D03*
X26600000Y-34060000D03*
X26600000Y-36600000D03*
X26600000Y-39140000D03*
X26600000Y-41680000D03*
X26600000Y-44220000D03*
X26600000Y-46760000D03*
X26600000Y-49300000D03*
X26600000Y-51840000D03*
X26600000Y-54380000D03*
X26600000Y-56920000D03*
X26600000Y-59460000D03*
X26600000Y-62000000D03*
X26600000Y-64540000D03*
X26600000Y-67080000D03*
X26600000Y-69620000D03*
X51996320Y-69617280D03*
X51996320Y-67077280D03*
X52000000Y-64540000D03*
X52000000Y-62000000D03*
X52000000Y-59460000D03*
X52000000Y-56920000D03*
X52000000Y-54380000D03*
X52000000Y-51840000D03*
X52000000Y-49300000D03*
X52000000Y-46760000D03*
X52000000Y-44220000D03*
X52000000Y-41680000D03*
X52000000Y-39140000D03*
X52000000Y-36600000D03*
X52000000Y-34060000D03*
X52000000Y-31520000D03*
X52000000Y-28980000D03*
X52000000Y-26440000D03*
X52000000Y-23900000D03*
%TD*%
D12*
%TO.C,GAIN_R1*%
X56000000Y-59340000D03*
D13*
X56000000Y-69500000D03*
%TD*%
D10*
%TO.C,SPEAKER_L*%
X60000000Y-30500000D03*
D11*
X60000000Y-27000000D03*
%TD*%
D16*
%TO.C,AMP_R1*%
X31500000Y-43907000D03*
X34040000Y-43907000D03*
X36580000Y-43907000D03*
X39120000Y-43907000D03*
X41660000Y-43907000D03*
X44200000Y-43907000D03*
X46740000Y-43907000D03*
D17*
X40920000Y-31453000D03*
X37420000Y-31453000D03*
%TD*%
D16*
%TO.C,AMP_L1*%
X46500000Y-53593000D03*
X43960000Y-53593000D03*
X41420000Y-53593000D03*
X38880000Y-53593000D03*
X36340000Y-53593000D03*
X33800000Y-53593000D03*
X31260000Y-53593000D03*
D17*
X37080000Y-66047000D03*
X40580000Y-66047000D03*
%TD*%
M02*
