M48
; DRILL file {KiCad 9.0.0} date 2025-03-25T17:14:49+0100
; FORMAT={-:-/ absolute / metric / decimal}
; #@! TF.CreationDate,2025-03-25T17:14:49+01:00
; #@! TF.GenerationSoftware,Kicad,Pcbnew,9.0.0
; #@! TF.FileFunction,Plated,1,2,PTH
FMAT,2
METRIC
; #@! TA.AperFunction,Plated,PTH,ViaDrill
T1C0.300
; #@! TA.AperFunction,Plated,PTH,ComponentDrill
T2C0.800
; #@! TA.AperFunction,Plated,PTH,ComponentDrill
T3C1.000
; #@! TA.AperFunction,Plated,PTH,ComponentDrill
T4C1.200
%
G90
G05
T1
X25.0Y-25.5
X25.0Y-28.0
X25.0Y-30.5
X25.0Y-33.0
X25.0Y-35.5
X25.0Y-38.0
X25.0Y-40.5
X25.0Y-43.0
X25.0Y-45.5
X25.0Y-48.0
X25.0Y-50.5
X25.0Y-53.0
X25.0Y-55.5
X25.0Y-57.0
X25.0Y-59.0
X25.0Y-61.0
X25.0Y-62.5
X25.0Y-64.5
X25.0Y-66.5
X25.0Y-68.5
X25.0Y-70.5
X25.0Y-72.0
X25.0Y-74.0
X27.0Y-74.0
X28.5Y-23.5
X28.5Y-46.0
X28.5Y-64.5
X28.5Y-65.5
X28.5Y-66.5
X28.5Y-67.5
X29.0Y-68.0
X29.0Y-74.0
X29.5Y-46.0
X29.5Y-53.5
X29.5Y-64.5
X30.0Y-68.5
X30.5Y-23.5
X30.5Y-46.0
X30.5Y-51.5
X30.5Y-64.5
X31.0Y-68.5
X31.0Y-74.0
X31.5Y-64.5
X32.0Y-68.5
X32.5Y-23.5
X32.5Y-46.0
X32.5Y-64.5
X33.0Y-68.5
X33.0Y-74.0
X33.5Y-64.5
X34.0Y-64.0
X34.0Y-68.5
X34.5Y-23.5
X34.5Y-49.0
X34.5Y-63.5
X35.0Y-49.5
X35.0Y-60.0
X35.0Y-61.0
X35.0Y-62.0
X35.0Y-63.0
X35.0Y-68.5
X35.0Y-74.0
X35.5Y-49.0
X35.5Y-50.0
X35.5Y-59.5
X36.0Y-50.5
X36.0Y-56.0
X36.0Y-57.0
X36.0Y-58.0
X36.0Y-59.0
X36.0Y-68.5
X36.5Y-23.5
X36.5Y-49.0
X36.5Y-51.0
X37.0Y-56.0
X37.0Y-74.0
X37.5Y-28.5
X37.5Y-49.0
X38.0Y-28.0
X38.0Y-56.0
X38.5Y-23.5
X38.5Y-27.5
X39.0Y-56.0
X39.0Y-74.0
X39.5Y-27.0
X40.0Y-50.0
X40.0Y-50.5
X40.0Y-51.5
X40.0Y-56.0
X40.5Y-23.5
X40.5Y-27.0
X41.0Y-50.0
X41.0Y-56.0
X41.0Y-74.0
X41.5Y-27.0
X42.0Y-50.0
X42.0Y-51.0
X42.0Y-56.0
X42.5Y-23.5
X42.5Y-27.0
X42.5Y-64.5
X43.0Y-31.0
X43.0Y-50.0
X43.0Y-56.0
X43.0Y-74.0
X43.5Y-27.0
X43.5Y-64.5
X44.0Y-31.0
X44.0Y-56.0
X44.5Y-23.5
X44.5Y-27.0
X44.5Y-64.5
X45.0Y-31.0
X45.0Y-51.0
X45.0Y-56.0
X45.0Y-74.0
X45.5Y-27.0
X45.5Y-50.5
X45.5Y-51.5
X45.5Y-65.0
X45.5Y-71.0
X46.0Y-24.5
X46.0Y-25.5
X46.0Y-26.5
X46.0Y-31.0
X46.0Y-50.0
X46.0Y-56.0
X46.0Y-65.5
X46.0Y-71.5
X46.5Y-23.5
X46.5Y-66.0
X46.5Y-72.0
X47.0Y-31.0
X47.0Y-50.0
X47.0Y-56.0
X47.0Y-57.0
X47.0Y-58.0
X47.0Y-59.0
X47.0Y-60.0
X47.0Y-61.0
X47.0Y-62.0
X47.0Y-63.0
X47.0Y-64.0
X47.0Y-65.0
X47.0Y-66.5
X47.0Y-72.5
X47.0Y-74.0
X47.5Y-30.5
X47.5Y-51.5
X47.5Y-67.0
X47.5Y-73.0
X48.0Y-30.0
X48.0Y-50.0
X48.0Y-51.0
X48.0Y-52.0
X48.0Y-73.5
X48.5Y-29.5
X48.5Y-74.0
X49.0Y-29.0
X49.0Y-74.0
X49.5Y-28.5
X50.0Y-23.5
X50.0Y-24.0
X50.0Y-25.0
X50.0Y-26.0
X50.0Y-27.0
X50.0Y-28.0
X54.0Y-28.0
X54.0Y-51.5
X54.5Y-23.5
X54.5Y-27.5
X54.5Y-52.0
X55.0Y-27.0
X55.0Y-52.5
X55.5Y-16.5
X55.5Y-17.0
X55.5Y-21.0
X55.5Y-22.5
X55.5Y-26.5
X55.5Y-53.0
X56.0Y-26.0
X56.0Y-53.5
X56.5Y-54.0
X57.0Y-25.5
X57.0Y-33.5
X57.0Y-34.0
X57.0Y-35.0
X57.0Y-36.0
X57.0Y-39.0
X57.0Y-40.0
X57.0Y-41.0
X57.0Y-42.0
X57.0Y-43.0
X57.0Y-44.0
X57.0Y-45.0
X57.0Y-46.0
X57.0Y-47.0
X57.0Y-48.0
X57.0Y-48.0
X57.0Y-49.0
X57.0Y-54.5
X57.5Y-16.5
X57.5Y-25.5
X57.5Y-33.0
X57.5Y-49.5
X57.5Y-55.0
X58.0Y-32.5
X58.0Y-50.0
X58.0Y-55.5
X58.5Y-50.5
X58.5Y-56.0
X59.0Y-51.0
X59.0Y-56.5
X59.5Y-16.5
X59.5Y-51.5
X59.5Y-57.0
X60.0Y-52.0
X60.0Y-57.5
X60.5Y-52.5
X60.5Y-58.0
X61.0Y-53.0
X61.0Y-61.0
X61.0Y-62.0
X61.0Y-63.0
X61.0Y-64.0
X61.0Y-65.0
X61.0Y-66.0
X61.0Y-67.0
X61.0Y-68.0
X61.5Y-16.5
X62.5Y-74.0
X63.0Y-73.5
X63.5Y-16.5
X63.5Y-73.0
X63.5Y-74.0
X64.0Y-55.5
X64.0Y-72.5
X64.5Y-56.0
X64.5Y-72.0
X65.0Y-16.5
X65.0Y-18.0
X65.0Y-19.5
X65.0Y-21.0
X65.0Y-22.5
X65.0Y-24.0
X65.0Y-25.5
X65.0Y-27.0
X65.0Y-28.5
X65.0Y-30.0
X65.0Y-31.5
X65.0Y-33.0
X65.0Y-34.5
X65.0Y-36.0
X65.0Y-37.5
X65.0Y-39.0
X65.0Y-40.5
X65.0Y-42.0
X65.0Y-43.5
X65.0Y-45.0
X65.0Y-46.5
X65.0Y-48.5
X65.0Y-50.0
X65.0Y-51.5
X65.0Y-53.5
X65.0Y-55.0
X65.0Y-56.5
X65.0Y-57.5
X65.0Y-58.5
X65.0Y-59.5
X65.0Y-60.5
X65.0Y-61.5
X65.0Y-62.5
X65.0Y-63.5
X65.0Y-64.5
X65.0Y-65.5
X65.0Y-66.5
X65.0Y-67.5
X65.0Y-68.5
X65.0Y-69.5
X65.0Y-70.5
X65.0Y-71.5
X65.0Y-74.0
T2
X26.6Y-23.9
X26.6Y-26.44
X26.6Y-28.98
X26.6Y-31.52
X26.6Y-34.06
X26.6Y-36.6
X26.6Y-39.14
X26.6Y-41.68
X26.6Y-44.22
X26.6Y-46.76
X26.6Y-49.3
X26.6Y-51.84
X26.6Y-54.38
X26.6Y-56.92
X26.6Y-59.46
X26.6Y-62.0
X26.6Y-64.54
X26.6Y-67.08
X26.6Y-69.62
X51.996Y-67.077
X51.996Y-69.617
X52.0Y-23.9
X52.0Y-26.44
X52.0Y-28.98
X52.0Y-31.52
X52.0Y-34.06
X52.0Y-36.6
X52.0Y-39.14
X52.0Y-41.68
X52.0Y-44.22
X52.0Y-46.76
X52.0Y-49.3
X52.0Y-51.84
X52.0Y-54.38
X52.0Y-56.92
X52.0Y-59.46
X52.0Y-62.0
X52.0Y-64.54
X56.0Y-59.34
X56.0Y-69.5
X60.0Y-59.42
X60.0Y-69.58
T3
X31.26Y-53.093
X31.5Y-44.407
X33.8Y-53.093
X34.04Y-44.407
X36.34Y-53.093
X36.58Y-44.407
X37.08Y-66.047
X37.42Y-31.453
X38.88Y-53.093
X39.12Y-44.407
X40.58Y-66.047
X40.92Y-31.453
X41.42Y-53.093
X41.66Y-44.407
X43.96Y-53.093
X44.2Y-44.407
X46.5Y-53.093
X46.74Y-44.407
T4
X60.0Y-18.5
X60.0Y-22.0
X60.0Y-27.0
X60.0Y-30.5
X60.0Y-35.5
X60.0Y-39.0
X60.0Y-44.0
X60.0Y-47.5
M30
