%TF.GenerationSoftware,KiCad,Pcbnew,9.0.0*%
%TF.CreationDate,2025-03-25T17:14:42+01:00*%
%TF.ProjectId,ESP32_speaker_tiny,45535033-325f-4737-9065-616b65725f74,rev?*%
%TF.SameCoordinates,Original*%
%TF.FileFunction,Legend,Bot*%
%TF.FilePolarity,Positive*%
%FSLAX46Y46*%
G04 Gerber Fmt 4.6, Leading zero omitted, Abs format (unit mm)*
G04 Created by KiCad (PCBNEW 9.0.0) date 2025-03-25 17:14:42*
%MOMM*%
%LPD*%
G01*
G04 APERTURE LIST*
%ADD10C,0.100000*%
%ADD11C,0.150000*%
%ADD12C,0.152400*%
%ADD13C,0.050000*%
%ADD14C,0.203200*%
G04 APERTURE END LIST*
D10*
X35446742Y-17128721D02*
X35303885Y-17176340D01*
X35303885Y-17176340D02*
X35256266Y-17223959D01*
X35256266Y-17223959D02*
X35208647Y-17319197D01*
X35208647Y-17319197D02*
X35208647Y-17462054D01*
X35208647Y-17462054D02*
X35256266Y-17557292D01*
X35256266Y-17557292D02*
X35303885Y-17604912D01*
X35303885Y-17604912D02*
X35399123Y-17652531D01*
X35399123Y-17652531D02*
X35780075Y-17652531D01*
X35780075Y-17652531D02*
X35780075Y-16652531D01*
X35780075Y-16652531D02*
X35446742Y-16652531D01*
X35446742Y-16652531D02*
X35351504Y-16700150D01*
X35351504Y-16700150D02*
X35303885Y-16747769D01*
X35303885Y-16747769D02*
X35256266Y-16843007D01*
X35256266Y-16843007D02*
X35256266Y-16938245D01*
X35256266Y-16938245D02*
X35303885Y-17033483D01*
X35303885Y-17033483D02*
X35351504Y-17081102D01*
X35351504Y-17081102D02*
X35446742Y-17128721D01*
X35446742Y-17128721D02*
X35780075Y-17128721D01*
X34922932Y-16652531D02*
X34351504Y-16652531D01*
X34637218Y-17652531D02*
X34637218Y-16652531D01*
X34065789Y-17604912D02*
X33922932Y-17652531D01*
X33922932Y-17652531D02*
X33684837Y-17652531D01*
X33684837Y-17652531D02*
X33589599Y-17604912D01*
X33589599Y-17604912D02*
X33541980Y-17557292D01*
X33541980Y-17557292D02*
X33494361Y-17462054D01*
X33494361Y-17462054D02*
X33494361Y-17366816D01*
X33494361Y-17366816D02*
X33541980Y-17271578D01*
X33541980Y-17271578D02*
X33589599Y-17223959D01*
X33589599Y-17223959D02*
X33684837Y-17176340D01*
X33684837Y-17176340D02*
X33875313Y-17128721D01*
X33875313Y-17128721D02*
X33970551Y-17081102D01*
X33970551Y-17081102D02*
X34018170Y-17033483D01*
X34018170Y-17033483D02*
X34065789Y-16938245D01*
X34065789Y-16938245D02*
X34065789Y-16843007D01*
X34065789Y-16843007D02*
X34018170Y-16747769D01*
X34018170Y-16747769D02*
X33970551Y-16700150D01*
X33970551Y-16700150D02*
X33875313Y-16652531D01*
X33875313Y-16652531D02*
X33637218Y-16652531D01*
X33637218Y-16652531D02*
X33494361Y-16700150D01*
X33065789Y-17652531D02*
X33065789Y-16652531D01*
X33065789Y-16652531D02*
X32684837Y-16652531D01*
X32684837Y-16652531D02*
X32589599Y-16700150D01*
X32589599Y-16700150D02*
X32541980Y-16747769D01*
X32541980Y-16747769D02*
X32494361Y-16843007D01*
X32494361Y-16843007D02*
X32494361Y-16985864D01*
X32494361Y-16985864D02*
X32541980Y-17081102D01*
X32541980Y-17081102D02*
X32589599Y-17128721D01*
X32589599Y-17128721D02*
X32684837Y-17176340D01*
X32684837Y-17176340D02*
X33065789Y-17176340D01*
X32065789Y-17128721D02*
X31732456Y-17128721D01*
X31589599Y-17652531D02*
X32065789Y-17652531D01*
X32065789Y-17652531D02*
X32065789Y-16652531D01*
X32065789Y-16652531D02*
X31589599Y-16652531D01*
X31208646Y-17366816D02*
X30732456Y-17366816D01*
X31303884Y-17652531D02*
X30970551Y-16652531D01*
X30970551Y-16652531D02*
X30637218Y-17652531D01*
X30303884Y-17652531D02*
X30303884Y-16652531D01*
X29732456Y-17652531D02*
X30161027Y-17081102D01*
X29732456Y-16652531D02*
X30303884Y-17223959D01*
X29303884Y-17128721D02*
X28970551Y-17128721D01*
X28827694Y-17652531D02*
X29303884Y-17652531D01*
X29303884Y-17652531D02*
X29303884Y-16652531D01*
X29303884Y-16652531D02*
X28827694Y-16652531D01*
X27827694Y-17652531D02*
X28161027Y-17176340D01*
X28399122Y-17652531D02*
X28399122Y-16652531D01*
X28399122Y-16652531D02*
X28018170Y-16652531D01*
X28018170Y-16652531D02*
X27922932Y-16700150D01*
X27922932Y-16700150D02*
X27875313Y-16747769D01*
X27875313Y-16747769D02*
X27827694Y-16843007D01*
X27827694Y-16843007D02*
X27827694Y-16985864D01*
X27827694Y-16985864D02*
X27875313Y-17081102D01*
X27875313Y-17081102D02*
X27922932Y-17128721D01*
X27922932Y-17128721D02*
X28018170Y-17176340D01*
X28018170Y-17176340D02*
X28399122Y-17176340D01*
X27637218Y-17747769D02*
X26875313Y-17747769D01*
X26780074Y-16652531D02*
X26446741Y-17652531D01*
X26446741Y-17652531D02*
X26113408Y-16652531D01*
X25256265Y-17652531D02*
X25827693Y-17652531D01*
X25541979Y-17652531D02*
X25541979Y-16652531D01*
X25541979Y-16652531D02*
X25637217Y-16795388D01*
X25637217Y-16795388D02*
X25732455Y-16890626D01*
X25732455Y-16890626D02*
X25827693Y-16938245D01*
X34399122Y-18595808D02*
X34018170Y-18595808D01*
X34256265Y-19262475D02*
X34256265Y-18405332D01*
X34256265Y-18405332D02*
X34208646Y-18310094D01*
X34208646Y-18310094D02*
X34113408Y-18262475D01*
X34113408Y-18262475D02*
X34018170Y-18262475D01*
X33256265Y-19262475D02*
X33256265Y-18738665D01*
X33256265Y-18738665D02*
X33303884Y-18643427D01*
X33303884Y-18643427D02*
X33399122Y-18595808D01*
X33399122Y-18595808D02*
X33589598Y-18595808D01*
X33589598Y-18595808D02*
X33684836Y-18643427D01*
X33256265Y-19214856D02*
X33351503Y-19262475D01*
X33351503Y-19262475D02*
X33589598Y-19262475D01*
X33589598Y-19262475D02*
X33684836Y-19214856D01*
X33684836Y-19214856D02*
X33732455Y-19119617D01*
X33732455Y-19119617D02*
X33732455Y-19024379D01*
X33732455Y-19024379D02*
X33684836Y-18929141D01*
X33684836Y-18929141D02*
X33589598Y-18881522D01*
X33589598Y-18881522D02*
X33351503Y-18881522D01*
X33351503Y-18881522D02*
X33256265Y-18833903D01*
X32780074Y-19262475D02*
X32780074Y-18262475D01*
X32780074Y-18643427D02*
X32684836Y-18595808D01*
X32684836Y-18595808D02*
X32494360Y-18595808D01*
X32494360Y-18595808D02*
X32399122Y-18643427D01*
X32399122Y-18643427D02*
X32351503Y-18691046D01*
X32351503Y-18691046D02*
X32303884Y-18786284D01*
X32303884Y-18786284D02*
X32303884Y-19071998D01*
X32303884Y-19071998D02*
X32351503Y-19167236D01*
X32351503Y-19167236D02*
X32399122Y-19214856D01*
X32399122Y-19214856D02*
X32494360Y-19262475D01*
X32494360Y-19262475D02*
X32684836Y-19262475D01*
X32684836Y-19262475D02*
X32780074Y-19214856D01*
X31875312Y-19262475D02*
X31875312Y-18595808D01*
X31875312Y-18262475D02*
X31922931Y-18310094D01*
X31922931Y-18310094D02*
X31875312Y-18357713D01*
X31875312Y-18357713D02*
X31827693Y-18310094D01*
X31827693Y-18310094D02*
X31875312Y-18262475D01*
X31875312Y-18262475D02*
X31875312Y-18357713D01*
X31256265Y-19262475D02*
X31351503Y-19214856D01*
X31351503Y-19214856D02*
X31399122Y-19167236D01*
X31399122Y-19167236D02*
X31446741Y-19071998D01*
X31446741Y-19071998D02*
X31446741Y-18786284D01*
X31446741Y-18786284D02*
X31399122Y-18691046D01*
X31399122Y-18691046D02*
X31351503Y-18643427D01*
X31351503Y-18643427D02*
X31256265Y-18595808D01*
X31256265Y-18595808D02*
X31113408Y-18595808D01*
X31113408Y-18595808D02*
X31018170Y-18643427D01*
X31018170Y-18643427D02*
X30970551Y-18691046D01*
X30970551Y-18691046D02*
X30922932Y-18786284D01*
X30922932Y-18786284D02*
X30922932Y-19071998D01*
X30922932Y-19071998D02*
X30970551Y-19167236D01*
X30970551Y-19167236D02*
X31018170Y-19214856D01*
X31018170Y-19214856D02*
X31113408Y-19262475D01*
X31113408Y-19262475D02*
X31256265Y-19262475D01*
X30494360Y-19167236D02*
X30446741Y-19214856D01*
X30446741Y-19214856D02*
X30494360Y-19262475D01*
X30494360Y-19262475D02*
X30541979Y-19214856D01*
X30541979Y-19214856D02*
X30494360Y-19167236D01*
X30494360Y-19167236D02*
X30494360Y-19262475D01*
X29589599Y-19214856D02*
X29684837Y-19262475D01*
X29684837Y-19262475D02*
X29875313Y-19262475D01*
X29875313Y-19262475D02*
X29970551Y-19214856D01*
X29970551Y-19214856D02*
X30018170Y-19167236D01*
X30018170Y-19167236D02*
X30065789Y-19071998D01*
X30065789Y-19071998D02*
X30065789Y-18786284D01*
X30065789Y-18786284D02*
X30018170Y-18691046D01*
X30018170Y-18691046D02*
X29970551Y-18643427D01*
X29970551Y-18643427D02*
X29875313Y-18595808D01*
X29875313Y-18595808D02*
X29684837Y-18595808D01*
X29684837Y-18595808D02*
X29589599Y-18643427D01*
X29161027Y-19262475D02*
X29161027Y-18595808D01*
X29161027Y-18786284D02*
X29113408Y-18691046D01*
X29113408Y-18691046D02*
X29065789Y-18643427D01*
X29065789Y-18643427D02*
X28970551Y-18595808D01*
X28970551Y-18595808D02*
X28875313Y-18595808D01*
X28541979Y-19262475D02*
X28541979Y-18595808D01*
X28541979Y-18262475D02*
X28589598Y-18310094D01*
X28589598Y-18310094D02*
X28541979Y-18357713D01*
X28541979Y-18357713D02*
X28494360Y-18310094D01*
X28494360Y-18310094D02*
X28541979Y-18262475D01*
X28541979Y-18262475D02*
X28541979Y-18357713D01*
X28208646Y-18595808D02*
X27827694Y-18595808D01*
X28065789Y-18262475D02*
X28065789Y-19119617D01*
X28065789Y-19119617D02*
X28018170Y-19214856D01*
X28018170Y-19214856D02*
X27922932Y-19262475D01*
X27922932Y-19262475D02*
X27827694Y-19262475D01*
X27351503Y-19262475D02*
X27446741Y-19214856D01*
X27446741Y-19214856D02*
X27494360Y-19167236D01*
X27494360Y-19167236D02*
X27541979Y-19071998D01*
X27541979Y-19071998D02*
X27541979Y-18786284D01*
X27541979Y-18786284D02*
X27494360Y-18691046D01*
X27494360Y-18691046D02*
X27446741Y-18643427D01*
X27446741Y-18643427D02*
X27351503Y-18595808D01*
X27351503Y-18595808D02*
X27208646Y-18595808D01*
X27208646Y-18595808D02*
X27113408Y-18643427D01*
X27113408Y-18643427D02*
X27065789Y-18691046D01*
X27065789Y-18691046D02*
X27018170Y-18786284D01*
X27018170Y-18786284D02*
X27018170Y-19071998D01*
X27018170Y-19071998D02*
X27065789Y-19167236D01*
X27065789Y-19167236D02*
X27113408Y-19214856D01*
X27113408Y-19214856D02*
X27208646Y-19262475D01*
X27208646Y-19262475D02*
X27351503Y-19262475D01*
X26589598Y-18595808D02*
X26589598Y-19262475D01*
X26589598Y-18691046D02*
X26541979Y-18643427D01*
X26541979Y-18643427D02*
X26446741Y-18595808D01*
X26446741Y-18595808D02*
X26303884Y-18595808D01*
X26303884Y-18595808D02*
X26208646Y-18643427D01*
X26208646Y-18643427D02*
X26161027Y-18738665D01*
X26161027Y-18738665D02*
X26161027Y-19262475D01*
X25303884Y-19214856D02*
X25399122Y-19262475D01*
X25399122Y-19262475D02*
X25589598Y-19262475D01*
X25589598Y-19262475D02*
X25684836Y-19214856D01*
X25684836Y-19214856D02*
X25732455Y-19119617D01*
X25732455Y-19119617D02*
X25732455Y-18738665D01*
X25732455Y-18738665D02*
X25684836Y-18643427D01*
X25684836Y-18643427D02*
X25589598Y-18595808D01*
X25589598Y-18595808D02*
X25399122Y-18595808D01*
X25399122Y-18595808D02*
X25303884Y-18643427D01*
X25303884Y-18643427D02*
X25256265Y-18738665D01*
X25256265Y-18738665D02*
X25256265Y-18833903D01*
X25256265Y-18833903D02*
X25732455Y-18929141D01*
X25970550Y-20777180D02*
X25922931Y-20824800D01*
X25922931Y-20824800D02*
X25970550Y-20872419D01*
X25970550Y-20872419D02*
X26018169Y-20824800D01*
X26018169Y-20824800D02*
X25970550Y-20777180D01*
X25970550Y-20777180D02*
X25970550Y-20872419D01*
X25970550Y-20253371D02*
X25922931Y-20300990D01*
X25922931Y-20300990D02*
X25970550Y-20348609D01*
X25970550Y-20348609D02*
X26018169Y-20300990D01*
X26018169Y-20300990D02*
X25970550Y-20253371D01*
X25970550Y-20253371D02*
X25970550Y-20348609D01*
X25589598Y-21253371D02*
X25541979Y-21205752D01*
X25541979Y-21205752D02*
X25446741Y-21062895D01*
X25446741Y-21062895D02*
X25399122Y-20967657D01*
X25399122Y-20967657D02*
X25351503Y-20824800D01*
X25351503Y-20824800D02*
X25303884Y-20586704D01*
X25303884Y-20586704D02*
X25303884Y-20396228D01*
X25303884Y-20396228D02*
X25351503Y-20158133D01*
X25351503Y-20158133D02*
X25399122Y-20015276D01*
X25399122Y-20015276D02*
X25446741Y-19920038D01*
X25446741Y-19920038D02*
X25541979Y-19777180D01*
X25541979Y-19777180D02*
X25589598Y-19729561D01*
D11*
X41666666Y-37169104D02*
X41190476Y-37169104D01*
X41761904Y-37454819D02*
X41428571Y-36454819D01*
X41428571Y-36454819D02*
X41095238Y-37454819D01*
X40761904Y-37454819D02*
X40761904Y-36454819D01*
X40761904Y-36454819D02*
X40428571Y-37169104D01*
X40428571Y-37169104D02*
X40095238Y-36454819D01*
X40095238Y-36454819D02*
X40095238Y-37454819D01*
X39619047Y-37454819D02*
X39619047Y-36454819D01*
X39619047Y-36454819D02*
X39238095Y-36454819D01*
X39238095Y-36454819D02*
X39142857Y-36502438D01*
X39142857Y-36502438D02*
X39095238Y-36550057D01*
X39095238Y-36550057D02*
X39047619Y-36645295D01*
X39047619Y-36645295D02*
X39047619Y-36788152D01*
X39047619Y-36788152D02*
X39095238Y-36883390D01*
X39095238Y-36883390D02*
X39142857Y-36931009D01*
X39142857Y-36931009D02*
X39238095Y-36978628D01*
X39238095Y-36978628D02*
X39619047Y-36978628D01*
X38857143Y-37550057D02*
X38095238Y-37550057D01*
X37285714Y-37454819D02*
X37619047Y-36978628D01*
X37857142Y-37454819D02*
X37857142Y-36454819D01*
X37857142Y-36454819D02*
X37476190Y-36454819D01*
X37476190Y-36454819D02*
X37380952Y-36502438D01*
X37380952Y-36502438D02*
X37333333Y-36550057D01*
X37333333Y-36550057D02*
X37285714Y-36645295D01*
X37285714Y-36645295D02*
X37285714Y-36788152D01*
X37285714Y-36788152D02*
X37333333Y-36883390D01*
X37333333Y-36883390D02*
X37380952Y-36931009D01*
X37380952Y-36931009D02*
X37476190Y-36978628D01*
X37476190Y-36978628D02*
X37857142Y-36978628D01*
X36333333Y-37454819D02*
X36904761Y-37454819D01*
X36619047Y-37454819D02*
X36619047Y-36454819D01*
X36619047Y-36454819D02*
X36714285Y-36597676D01*
X36714285Y-36597676D02*
X36809523Y-36692914D01*
X36809523Y-36692914D02*
X36904761Y-36740533D01*
D12*
X45351466Y-46124231D02*
X45228094Y-46165355D01*
X45228094Y-46165355D02*
X45186971Y-46206479D01*
X45186971Y-46206479D02*
X45145847Y-46288727D01*
X45145847Y-46288727D02*
X45145847Y-46412098D01*
X45145847Y-46412098D02*
X45186971Y-46494346D01*
X45186971Y-46494346D02*
X45228094Y-46535470D01*
X45228094Y-46535470D02*
X45310342Y-46576593D01*
X45310342Y-46576593D02*
X45639332Y-46576593D01*
X45639332Y-46576593D02*
X45639332Y-45712993D01*
X45639332Y-45712993D02*
X45351466Y-45712993D01*
X45351466Y-45712993D02*
X45269218Y-45754117D01*
X45269218Y-45754117D02*
X45228094Y-45795241D01*
X45228094Y-45795241D02*
X45186971Y-45877489D01*
X45186971Y-45877489D02*
X45186971Y-45959736D01*
X45186971Y-45959736D02*
X45228094Y-46041984D01*
X45228094Y-46041984D02*
X45269218Y-46083108D01*
X45269218Y-46083108D02*
X45351466Y-46124231D01*
X45351466Y-46124231D02*
X45639332Y-46124231D01*
X44282247Y-46494346D02*
X44323371Y-46535470D01*
X44323371Y-46535470D02*
X44446742Y-46576593D01*
X44446742Y-46576593D02*
X44528990Y-46576593D01*
X44528990Y-46576593D02*
X44652361Y-46535470D01*
X44652361Y-46535470D02*
X44734609Y-46453222D01*
X44734609Y-46453222D02*
X44775732Y-46370974D01*
X44775732Y-46370974D02*
X44816856Y-46206479D01*
X44816856Y-46206479D02*
X44816856Y-46083108D01*
X44816856Y-46083108D02*
X44775732Y-45918612D01*
X44775732Y-45918612D02*
X44734609Y-45836365D01*
X44734609Y-45836365D02*
X44652361Y-45754117D01*
X44652361Y-45754117D02*
X44528990Y-45712993D01*
X44528990Y-45712993D02*
X44446742Y-45712993D01*
X44446742Y-45712993D02*
X44323371Y-45754117D01*
X44323371Y-45754117D02*
X44282247Y-45795241D01*
X43500894Y-46576593D02*
X43912132Y-46576593D01*
X43912132Y-46576593D02*
X43912132Y-45712993D01*
X43213027Y-46576593D02*
X43213027Y-45712993D01*
X42719542Y-46576593D02*
X43089656Y-46083108D01*
X42719542Y-45712993D02*
X43213027Y-46206479D01*
X42417161Y-42076593D02*
X42417161Y-41212993D01*
X42417161Y-41212993D02*
X42211542Y-41212993D01*
X42211542Y-41212993D02*
X42088171Y-41254117D01*
X42088171Y-41254117D02*
X42005923Y-41336365D01*
X42005923Y-41336365D02*
X41964800Y-41418612D01*
X41964800Y-41418612D02*
X41923676Y-41583108D01*
X41923676Y-41583108D02*
X41923676Y-41706479D01*
X41923676Y-41706479D02*
X41964800Y-41870974D01*
X41964800Y-41870974D02*
X42005923Y-41953222D01*
X42005923Y-41953222D02*
X42088171Y-42035470D01*
X42088171Y-42035470D02*
X42211542Y-42076593D01*
X42211542Y-42076593D02*
X42417161Y-42076593D01*
X41553561Y-42076593D02*
X41553561Y-41212993D01*
X41142323Y-42076593D02*
X41142323Y-41212993D01*
X41142323Y-41212993D02*
X40648838Y-42076593D01*
X40648838Y-42076593D02*
X40648838Y-41212993D01*
X39921914Y-45754117D02*
X40004161Y-45712993D01*
X40004161Y-45712993D02*
X40127533Y-45712993D01*
X40127533Y-45712993D02*
X40250904Y-45754117D01*
X40250904Y-45754117D02*
X40333152Y-45836365D01*
X40333152Y-45836365D02*
X40374275Y-45918612D01*
X40374275Y-45918612D02*
X40415399Y-46083108D01*
X40415399Y-46083108D02*
X40415399Y-46206479D01*
X40415399Y-46206479D02*
X40374275Y-46370974D01*
X40374275Y-46370974D02*
X40333152Y-46453222D01*
X40333152Y-46453222D02*
X40250904Y-46535470D01*
X40250904Y-46535470D02*
X40127533Y-46576593D01*
X40127533Y-46576593D02*
X40045285Y-46576593D01*
X40045285Y-46576593D02*
X39921914Y-46535470D01*
X39921914Y-46535470D02*
X39880790Y-46494346D01*
X39880790Y-46494346D02*
X39880790Y-46206479D01*
X39880790Y-46206479D02*
X40045285Y-46206479D01*
X39551799Y-46329850D02*
X39140561Y-46329850D01*
X39634047Y-46576593D02*
X39346180Y-45712993D01*
X39346180Y-45712993D02*
X39058314Y-46576593D01*
X38770446Y-46576593D02*
X38770446Y-45712993D01*
X38359208Y-46576593D02*
X38359208Y-45712993D01*
X38359208Y-45712993D02*
X37865723Y-46576593D01*
X37865723Y-46576593D02*
X37865723Y-45712993D01*
X32257161Y-41212993D02*
X31969294Y-42076593D01*
X31969294Y-42076593D02*
X31681428Y-41212993D01*
X31393560Y-42076593D02*
X31393560Y-41500860D01*
X31393560Y-41212993D02*
X31434684Y-41254117D01*
X31434684Y-41254117D02*
X31393560Y-41295241D01*
X31393560Y-41295241D02*
X31352437Y-41254117D01*
X31352437Y-41254117D02*
X31393560Y-41212993D01*
X31393560Y-41212993D02*
X31393560Y-41295241D01*
X30982322Y-41500860D02*
X30982322Y-42076593D01*
X30982322Y-41583108D02*
X30941199Y-41541984D01*
X30941199Y-41541984D02*
X30858951Y-41500860D01*
X30858951Y-41500860D02*
X30735580Y-41500860D01*
X30735580Y-41500860D02*
X30653332Y-41541984D01*
X30653332Y-41541984D02*
X30612208Y-41624231D01*
X30612208Y-41624231D02*
X30612208Y-42076593D01*
X34697981Y-45754117D02*
X34780228Y-45712993D01*
X34780228Y-45712993D02*
X34903600Y-45712993D01*
X34903600Y-45712993D02*
X35026971Y-45754117D01*
X35026971Y-45754117D02*
X35109219Y-45836365D01*
X35109219Y-45836365D02*
X35150342Y-45918612D01*
X35150342Y-45918612D02*
X35191466Y-46083108D01*
X35191466Y-46083108D02*
X35191466Y-46206479D01*
X35191466Y-46206479D02*
X35150342Y-46370974D01*
X35150342Y-46370974D02*
X35109219Y-46453222D01*
X35109219Y-46453222D02*
X35026971Y-46535470D01*
X35026971Y-46535470D02*
X34903600Y-46576593D01*
X34903600Y-46576593D02*
X34821352Y-46576593D01*
X34821352Y-46576593D02*
X34697981Y-46535470D01*
X34697981Y-46535470D02*
X34656857Y-46494346D01*
X34656857Y-46494346D02*
X34656857Y-46206479D01*
X34656857Y-46206479D02*
X34821352Y-46206479D01*
X34286742Y-46576593D02*
X34286742Y-45712993D01*
X34286742Y-45712993D02*
X33793257Y-46576593D01*
X33793257Y-46576593D02*
X33793257Y-45712993D01*
X33382018Y-46576593D02*
X33382018Y-45712993D01*
X33382018Y-45712993D02*
X33176399Y-45712993D01*
X33176399Y-45712993D02*
X33053028Y-45754117D01*
X33053028Y-45754117D02*
X32970780Y-45836365D01*
X32970780Y-45836365D02*
X32929657Y-45918612D01*
X32929657Y-45918612D02*
X32888533Y-46083108D01*
X32888533Y-46083108D02*
X32888533Y-46206479D01*
X32888533Y-46206479D02*
X32929657Y-46370974D01*
X32929657Y-46370974D02*
X32970780Y-46453222D01*
X32970780Y-46453222D02*
X33053028Y-46535470D01*
X33053028Y-46535470D02*
X33176399Y-46576593D01*
X33176399Y-46576593D02*
X33382018Y-46576593D01*
X37385542Y-42035470D02*
X37262171Y-42076593D01*
X37262171Y-42076593D02*
X37056552Y-42076593D01*
X37056552Y-42076593D02*
X36974304Y-42035470D01*
X36974304Y-42035470D02*
X36933180Y-41994346D01*
X36933180Y-41994346D02*
X36892057Y-41912098D01*
X36892057Y-41912098D02*
X36892057Y-41829850D01*
X36892057Y-41829850D02*
X36933180Y-41747603D01*
X36933180Y-41747603D02*
X36974304Y-41706479D01*
X36974304Y-41706479D02*
X37056552Y-41665355D01*
X37056552Y-41665355D02*
X37221047Y-41624231D01*
X37221047Y-41624231D02*
X37303295Y-41583108D01*
X37303295Y-41583108D02*
X37344418Y-41541984D01*
X37344418Y-41541984D02*
X37385542Y-41459736D01*
X37385542Y-41459736D02*
X37385542Y-41377489D01*
X37385542Y-41377489D02*
X37344418Y-41295241D01*
X37344418Y-41295241D02*
X37303295Y-41254117D01*
X37303295Y-41254117D02*
X37221047Y-41212993D01*
X37221047Y-41212993D02*
X37015428Y-41212993D01*
X37015428Y-41212993D02*
X36892057Y-41254117D01*
X36521942Y-42076593D02*
X36521942Y-41212993D01*
X36521942Y-41212993D02*
X36316323Y-41212993D01*
X36316323Y-41212993D02*
X36192952Y-41254117D01*
X36192952Y-41254117D02*
X36110704Y-41336365D01*
X36110704Y-41336365D02*
X36069581Y-41418612D01*
X36069581Y-41418612D02*
X36028457Y-41583108D01*
X36028457Y-41583108D02*
X36028457Y-41706479D01*
X36028457Y-41706479D02*
X36069581Y-41870974D01*
X36069581Y-41870974D02*
X36110704Y-41953222D01*
X36110704Y-41953222D02*
X36192952Y-42035470D01*
X36192952Y-42035470D02*
X36316323Y-42076593D01*
X36316323Y-42076593D02*
X36521942Y-42076593D01*
X46828294Y-42076593D02*
X47239532Y-42076593D01*
X47239532Y-42076593D02*
X47239532Y-41212993D01*
X46046942Y-42076593D02*
X46334808Y-41665355D01*
X46540427Y-42076593D02*
X46540427Y-41212993D01*
X46540427Y-41212993D02*
X46211437Y-41212993D01*
X46211437Y-41212993D02*
X46129189Y-41254117D01*
X46129189Y-41254117D02*
X46088066Y-41295241D01*
X46088066Y-41295241D02*
X46046942Y-41377489D01*
X46046942Y-41377489D02*
X46046942Y-41500860D01*
X46046942Y-41500860D02*
X46088066Y-41583108D01*
X46088066Y-41583108D02*
X46129189Y-41624231D01*
X46129189Y-41624231D02*
X46211437Y-41665355D01*
X46211437Y-41665355D02*
X46540427Y-41665355D01*
X45183342Y-41994346D02*
X45224466Y-42035470D01*
X45224466Y-42035470D02*
X45347837Y-42076593D01*
X45347837Y-42076593D02*
X45430085Y-42076593D01*
X45430085Y-42076593D02*
X45553456Y-42035470D01*
X45553456Y-42035470D02*
X45635704Y-41953222D01*
X45635704Y-41953222D02*
X45676827Y-41870974D01*
X45676827Y-41870974D02*
X45717951Y-41706479D01*
X45717951Y-41706479D02*
X45717951Y-41583108D01*
X45717951Y-41583108D02*
X45676827Y-41418612D01*
X45676827Y-41418612D02*
X45635704Y-41336365D01*
X45635704Y-41336365D02*
X45553456Y-41254117D01*
X45553456Y-41254117D02*
X45430085Y-41212993D01*
X45430085Y-41212993D02*
X45347837Y-41212993D01*
X45347837Y-41212993D02*
X45224466Y-41254117D01*
X45224466Y-41254117D02*
X45183342Y-41295241D01*
D11*
X36428571Y-60330895D02*
X36904761Y-60330895D01*
X36333333Y-60045180D02*
X36666666Y-61045180D01*
X36666666Y-61045180D02*
X36999999Y-60045180D01*
X37333333Y-60045180D02*
X37333333Y-61045180D01*
X37333333Y-61045180D02*
X37666666Y-60330895D01*
X37666666Y-60330895D02*
X37999999Y-61045180D01*
X37999999Y-61045180D02*
X37999999Y-60045180D01*
X38476190Y-60045180D02*
X38476190Y-61045180D01*
X38476190Y-61045180D02*
X38857142Y-61045180D01*
X38857142Y-61045180D02*
X38952380Y-60997561D01*
X38952380Y-60997561D02*
X38999999Y-60949942D01*
X38999999Y-60949942D02*
X39047618Y-60854704D01*
X39047618Y-60854704D02*
X39047618Y-60711847D01*
X39047618Y-60711847D02*
X38999999Y-60616609D01*
X38999999Y-60616609D02*
X38952380Y-60568990D01*
X38952380Y-60568990D02*
X38857142Y-60521371D01*
X38857142Y-60521371D02*
X38476190Y-60521371D01*
X39238095Y-59949942D02*
X39999999Y-59949942D01*
X40714285Y-60045180D02*
X40238095Y-60045180D01*
X40238095Y-60045180D02*
X40238095Y-61045180D01*
X41571428Y-60045180D02*
X41000000Y-60045180D01*
X41285714Y-60045180D02*
X41285714Y-61045180D01*
X41285714Y-61045180D02*
X41190476Y-60902323D01*
X41190476Y-60902323D02*
X41095238Y-60807085D01*
X41095238Y-60807085D02*
X41000000Y-60759466D01*
D12*
X37351161Y-56206593D02*
X37351161Y-55342993D01*
X37351161Y-55342993D02*
X37145542Y-55342993D01*
X37145542Y-55342993D02*
X37022171Y-55384117D01*
X37022171Y-55384117D02*
X36939923Y-55466365D01*
X36939923Y-55466365D02*
X36898800Y-55548612D01*
X36898800Y-55548612D02*
X36857676Y-55713108D01*
X36857676Y-55713108D02*
X36857676Y-55836479D01*
X36857676Y-55836479D02*
X36898800Y-56000974D01*
X36898800Y-56000974D02*
X36939923Y-56083222D01*
X36939923Y-56083222D02*
X37022171Y-56165470D01*
X37022171Y-56165470D02*
X37145542Y-56206593D01*
X37145542Y-56206593D02*
X37351161Y-56206593D01*
X36487561Y-56206593D02*
X36487561Y-55342993D01*
X36076323Y-56206593D02*
X36076323Y-55342993D01*
X36076323Y-55342993D02*
X35582838Y-56206593D01*
X35582838Y-56206593D02*
X35582838Y-55342993D01*
X39681914Y-50884117D02*
X39764161Y-50842993D01*
X39764161Y-50842993D02*
X39887533Y-50842993D01*
X39887533Y-50842993D02*
X40010904Y-50884117D01*
X40010904Y-50884117D02*
X40093152Y-50966365D01*
X40093152Y-50966365D02*
X40134275Y-51048612D01*
X40134275Y-51048612D02*
X40175399Y-51213108D01*
X40175399Y-51213108D02*
X40175399Y-51336479D01*
X40175399Y-51336479D02*
X40134275Y-51500974D01*
X40134275Y-51500974D02*
X40093152Y-51583222D01*
X40093152Y-51583222D02*
X40010904Y-51665470D01*
X40010904Y-51665470D02*
X39887533Y-51706593D01*
X39887533Y-51706593D02*
X39805285Y-51706593D01*
X39805285Y-51706593D02*
X39681914Y-51665470D01*
X39681914Y-51665470D02*
X39640790Y-51624346D01*
X39640790Y-51624346D02*
X39640790Y-51336479D01*
X39640790Y-51336479D02*
X39805285Y-51336479D01*
X39311799Y-51459850D02*
X38900561Y-51459850D01*
X39394047Y-51706593D02*
X39106180Y-50842993D01*
X39106180Y-50842993D02*
X38818314Y-51706593D01*
X38530446Y-51706593D02*
X38530446Y-50842993D01*
X38119208Y-51706593D02*
X38119208Y-50842993D01*
X38119208Y-50842993D02*
X37625723Y-51706593D01*
X37625723Y-51706593D02*
X37625723Y-50842993D01*
X47511161Y-55342993D02*
X47223294Y-56206593D01*
X47223294Y-56206593D02*
X46935428Y-55342993D01*
X46647560Y-56206593D02*
X46647560Y-55630860D01*
X46647560Y-55342993D02*
X46688684Y-55384117D01*
X46688684Y-55384117D02*
X46647560Y-55425241D01*
X46647560Y-55425241D02*
X46606437Y-55384117D01*
X46606437Y-55384117D02*
X46647560Y-55342993D01*
X46647560Y-55342993D02*
X46647560Y-55425241D01*
X46236322Y-55630860D02*
X46236322Y-56206593D01*
X46236322Y-55713108D02*
X46195199Y-55671984D01*
X46195199Y-55671984D02*
X46112951Y-55630860D01*
X46112951Y-55630860D02*
X45989580Y-55630860D01*
X45989580Y-55630860D02*
X45907332Y-55671984D01*
X45907332Y-55671984D02*
X45866208Y-55754231D01*
X45866208Y-55754231D02*
X45866208Y-56206593D01*
X34951466Y-51254231D02*
X34828094Y-51295355D01*
X34828094Y-51295355D02*
X34786971Y-51336479D01*
X34786971Y-51336479D02*
X34745847Y-51418727D01*
X34745847Y-51418727D02*
X34745847Y-51542098D01*
X34745847Y-51542098D02*
X34786971Y-51624346D01*
X34786971Y-51624346D02*
X34828094Y-51665470D01*
X34828094Y-51665470D02*
X34910342Y-51706593D01*
X34910342Y-51706593D02*
X35239332Y-51706593D01*
X35239332Y-51706593D02*
X35239332Y-50842993D01*
X35239332Y-50842993D02*
X34951466Y-50842993D01*
X34951466Y-50842993D02*
X34869218Y-50884117D01*
X34869218Y-50884117D02*
X34828094Y-50925241D01*
X34828094Y-50925241D02*
X34786971Y-51007489D01*
X34786971Y-51007489D02*
X34786971Y-51089736D01*
X34786971Y-51089736D02*
X34828094Y-51171984D01*
X34828094Y-51171984D02*
X34869218Y-51213108D01*
X34869218Y-51213108D02*
X34951466Y-51254231D01*
X34951466Y-51254231D02*
X35239332Y-51254231D01*
X33882247Y-51624346D02*
X33923371Y-51665470D01*
X33923371Y-51665470D02*
X34046742Y-51706593D01*
X34046742Y-51706593D02*
X34128990Y-51706593D01*
X34128990Y-51706593D02*
X34252361Y-51665470D01*
X34252361Y-51665470D02*
X34334609Y-51583222D01*
X34334609Y-51583222D02*
X34375732Y-51500974D01*
X34375732Y-51500974D02*
X34416856Y-51336479D01*
X34416856Y-51336479D02*
X34416856Y-51213108D01*
X34416856Y-51213108D02*
X34375732Y-51048612D01*
X34375732Y-51048612D02*
X34334609Y-50966365D01*
X34334609Y-50966365D02*
X34252361Y-50884117D01*
X34252361Y-50884117D02*
X34128990Y-50842993D01*
X34128990Y-50842993D02*
X34046742Y-50842993D01*
X34046742Y-50842993D02*
X33923371Y-50884117D01*
X33923371Y-50884117D02*
X33882247Y-50925241D01*
X33100894Y-51706593D02*
X33512132Y-51706593D01*
X33512132Y-51706593D02*
X33512132Y-50842993D01*
X32813027Y-51706593D02*
X32813027Y-50842993D01*
X32319542Y-51706593D02*
X32689656Y-51213108D01*
X32319542Y-50842993D02*
X32813027Y-51336479D01*
X41971542Y-56165470D02*
X41848171Y-56206593D01*
X41848171Y-56206593D02*
X41642552Y-56206593D01*
X41642552Y-56206593D02*
X41560304Y-56165470D01*
X41560304Y-56165470D02*
X41519180Y-56124346D01*
X41519180Y-56124346D02*
X41478057Y-56042098D01*
X41478057Y-56042098D02*
X41478057Y-55959850D01*
X41478057Y-55959850D02*
X41519180Y-55877603D01*
X41519180Y-55877603D02*
X41560304Y-55836479D01*
X41560304Y-55836479D02*
X41642552Y-55795355D01*
X41642552Y-55795355D02*
X41807047Y-55754231D01*
X41807047Y-55754231D02*
X41889295Y-55713108D01*
X41889295Y-55713108D02*
X41930418Y-55671984D01*
X41930418Y-55671984D02*
X41971542Y-55589736D01*
X41971542Y-55589736D02*
X41971542Y-55507489D01*
X41971542Y-55507489D02*
X41930418Y-55425241D01*
X41930418Y-55425241D02*
X41889295Y-55384117D01*
X41889295Y-55384117D02*
X41807047Y-55342993D01*
X41807047Y-55342993D02*
X41601428Y-55342993D01*
X41601428Y-55342993D02*
X41478057Y-55384117D01*
X41107942Y-56206593D02*
X41107942Y-55342993D01*
X41107942Y-55342993D02*
X40902323Y-55342993D01*
X40902323Y-55342993D02*
X40778952Y-55384117D01*
X40778952Y-55384117D02*
X40696704Y-55466365D01*
X40696704Y-55466365D02*
X40655581Y-55548612D01*
X40655581Y-55548612D02*
X40614457Y-55713108D01*
X40614457Y-55713108D02*
X40614457Y-55836479D01*
X40614457Y-55836479D02*
X40655581Y-56000974D01*
X40655581Y-56000974D02*
X40696704Y-56083222D01*
X40696704Y-56083222D02*
X40778952Y-56165470D01*
X40778952Y-56165470D02*
X40902323Y-56206593D01*
X40902323Y-56206593D02*
X41107942Y-56206593D01*
X32364294Y-56206593D02*
X32775532Y-56206593D01*
X32775532Y-56206593D02*
X32775532Y-55342993D01*
X31582942Y-56206593D02*
X31870808Y-55795355D01*
X32076427Y-56206593D02*
X32076427Y-55342993D01*
X32076427Y-55342993D02*
X31747437Y-55342993D01*
X31747437Y-55342993D02*
X31665189Y-55384117D01*
X31665189Y-55384117D02*
X31624066Y-55425241D01*
X31624066Y-55425241D02*
X31582942Y-55507489D01*
X31582942Y-55507489D02*
X31582942Y-55630860D01*
X31582942Y-55630860D02*
X31624066Y-55713108D01*
X31624066Y-55713108D02*
X31665189Y-55754231D01*
X31665189Y-55754231D02*
X31747437Y-55795355D01*
X31747437Y-55795355D02*
X32076427Y-55795355D01*
X30719342Y-56124346D02*
X30760466Y-56165470D01*
X30760466Y-56165470D02*
X30883837Y-56206593D01*
X30883837Y-56206593D02*
X30966085Y-56206593D01*
X30966085Y-56206593D02*
X31089456Y-56165470D01*
X31089456Y-56165470D02*
X31171704Y-56083222D01*
X31171704Y-56083222D02*
X31212827Y-56000974D01*
X31212827Y-56000974D02*
X31253951Y-55836479D01*
X31253951Y-55836479D02*
X31253951Y-55713108D01*
X31253951Y-55713108D02*
X31212827Y-55548612D01*
X31212827Y-55548612D02*
X31171704Y-55466365D01*
X31171704Y-55466365D02*
X31089456Y-55384117D01*
X31089456Y-55384117D02*
X30966085Y-55342993D01*
X30966085Y-55342993D02*
X30883837Y-55342993D01*
X30883837Y-55342993D02*
X30760466Y-55384117D01*
X30760466Y-55384117D02*
X30719342Y-55425241D01*
X44617981Y-50884117D02*
X44700228Y-50842993D01*
X44700228Y-50842993D02*
X44823600Y-50842993D01*
X44823600Y-50842993D02*
X44946971Y-50884117D01*
X44946971Y-50884117D02*
X45029219Y-50966365D01*
X45029219Y-50966365D02*
X45070342Y-51048612D01*
X45070342Y-51048612D02*
X45111466Y-51213108D01*
X45111466Y-51213108D02*
X45111466Y-51336479D01*
X45111466Y-51336479D02*
X45070342Y-51500974D01*
X45070342Y-51500974D02*
X45029219Y-51583222D01*
X45029219Y-51583222D02*
X44946971Y-51665470D01*
X44946971Y-51665470D02*
X44823600Y-51706593D01*
X44823600Y-51706593D02*
X44741352Y-51706593D01*
X44741352Y-51706593D02*
X44617981Y-51665470D01*
X44617981Y-51665470D02*
X44576857Y-51624346D01*
X44576857Y-51624346D02*
X44576857Y-51336479D01*
X44576857Y-51336479D02*
X44741352Y-51336479D01*
X44206742Y-51706593D02*
X44206742Y-50842993D01*
X44206742Y-50842993D02*
X43713257Y-51706593D01*
X43713257Y-51706593D02*
X43713257Y-50842993D01*
X43302018Y-51706593D02*
X43302018Y-50842993D01*
X43302018Y-50842993D02*
X43096399Y-50842993D01*
X43096399Y-50842993D02*
X42973028Y-50884117D01*
X42973028Y-50884117D02*
X42890780Y-50966365D01*
X42890780Y-50966365D02*
X42849657Y-51048612D01*
X42849657Y-51048612D02*
X42808533Y-51213108D01*
X42808533Y-51213108D02*
X42808533Y-51336479D01*
X42808533Y-51336479D02*
X42849657Y-51500974D01*
X42849657Y-51500974D02*
X42890780Y-51583222D01*
X42890780Y-51583222D02*
X42973028Y-51665470D01*
X42973028Y-51665470D02*
X43096399Y-51706593D01*
X43096399Y-51706593D02*
X43302018Y-51706593D01*
D13*
%TO.C,AMP_R1*%
X30230000Y-30437000D02*
X30230000Y-44407000D01*
X32770000Y-46947000D02*
X45470000Y-46947000D01*
D14*
X35720000Y-27853000D02*
X42720000Y-27853000D01*
X35720000Y-29253000D02*
X35720000Y-27853000D01*
X35720000Y-29253000D02*
X42720000Y-29253000D01*
X35720000Y-34853000D02*
X35720000Y-29253000D01*
X42720000Y-27853000D02*
X42720000Y-29253000D01*
X42720000Y-29253000D02*
X42720000Y-34853000D01*
X42720000Y-34853000D02*
X35720000Y-34853000D01*
D13*
X45470000Y-27897000D02*
X32770000Y-27897000D01*
X48000000Y-30500000D02*
X48000000Y-44470000D01*
X30230000Y-30437000D02*
G75*
G02*
X32770000Y-27897000I2540000J0D01*
G01*
X32770000Y-46947000D02*
G75*
G02*
X30230000Y-44407000I0J2540000D01*
G01*
X45457238Y-27913452D02*
G75*
G02*
X47997238Y-30453452I-1J-2540001D01*
G01*
X48010000Y-44407000D02*
G75*
G02*
X45470000Y-46947000I-2540001J1D01*
G01*
D14*
X34770000Y-30437000D02*
G75*
G02*
X30770000Y-30437000I-2000000J0D01*
G01*
X30770000Y-30437000D02*
G75*
G02*
X34770000Y-30437000I2000000J0D01*
G01*
X47470000Y-30437000D02*
G75*
G02*
X43470000Y-30437000I-2000000J0D01*
G01*
X43470000Y-30437000D02*
G75*
G02*
X47470000Y-30437000I2000000J0D01*
G01*
D13*
%TO.C,AMP_L1*%
X30000000Y-67000000D02*
X30000000Y-53030000D01*
X32530000Y-69603000D02*
X45230000Y-69603000D01*
D14*
X35280000Y-62647000D02*
X42280000Y-62647000D01*
X35280000Y-68247000D02*
X35280000Y-62647000D01*
X35280000Y-69647000D02*
X35280000Y-68247000D01*
X42280000Y-62647000D02*
X42280000Y-68247000D01*
X42280000Y-68247000D02*
X35280000Y-68247000D01*
X42280000Y-68247000D02*
X42280000Y-69647000D01*
X42280000Y-69647000D02*
X35280000Y-69647000D01*
D13*
X45230000Y-50553000D02*
X32530000Y-50553000D01*
X47770000Y-67063000D02*
X47770000Y-53093000D01*
X29990000Y-53093000D02*
G75*
G02*
X32530000Y-50553000I2540001J-1D01*
G01*
X32542762Y-69586548D02*
G75*
G02*
X30002762Y-67046548I1J2540001D01*
G01*
X45230000Y-50553000D02*
G75*
G02*
X47770000Y-53093000I0J-2540000D01*
G01*
X47770000Y-67063000D02*
G75*
G02*
X45230000Y-69603000I-2540000J0D01*
G01*
D14*
X34530000Y-67063000D02*
G75*
G02*
X30530000Y-67063000I-2000000J0D01*
G01*
X30530000Y-67063000D02*
G75*
G02*
X34530000Y-67063000I2000000J0D01*
G01*
X47230000Y-67063000D02*
G75*
G02*
X43230000Y-67063000I-2000000J0D01*
G01*
X43230000Y-67063000D02*
G75*
G02*
X47230000Y-67063000I2000000J0D01*
G01*
%TD*%
M02*
